<svg width="163" height="145" viewBox="0 0 163 145" fill="none" xmlns="http://www.w3.org/2000/svg">
<path fill-rule="evenodd" clip-rule="evenodd" d="M80 119.008C123.078 119.008 158 92.5929 158 60.0081C158 27.4233 123.078 1.00806 80 1.00806C36.9218 1.00806 2 27.4233 2 60.0081C2 80.896 16.3501 99.2486 38 109.733V142.508L63.3366 117.659C68.7056 118.542 74.2809 119.008 80 119.008Z" fill="white"/>
<path d="M38 109.733H39V109.106L38.4359 108.833L38 109.733ZM38 142.508H37V144.89L38.7002 143.222L38 142.508ZM63.3366 117.659L63.499 116.672L62.9985 116.59L62.6364 116.945L63.3366 117.659ZM157 60.0081C157 75.9188 148.476 90.3965 134.551 100.93C120.625 111.464 101.342 118.008 80 118.008V120.008C101.737 120.008 121.453 113.345 135.758 102.525C150.063 91.7044 159 76.6821 159 60.0081H157ZM80 2.00806C101.342 2.00806 120.625 8.55252 134.551 19.0863C148.476 29.6196 157 44.0973 157 60.0081H159C159 43.334 150.063 28.3117 135.758 17.4912C121.453 6.67119 101.737 0.00805664 80 0.00805664V2.00806ZM3 60.0081C3 44.0973 11.5235 29.6196 25.4489 19.0863C39.3749 8.55252 58.6583 2.00806 80 2.00806V0.00805664C58.2634 0.00805664 38.5468 6.67119 24.2424 17.4912C9.93737 28.3117 1 43.334 1 60.0081H3ZM38.4359 108.833C17.0155 98.4598 3 80.3991 3 60.0081H1C1 81.3928 15.6848 100.037 37.5641 110.633L38.4359 108.833ZM39 142.508V109.733H37V142.508H39ZM62.6364 116.945L37.2998 141.794L38.7002 143.222L64.0368 118.373L62.6364 116.945ZM80 118.008C74.3351 118.008 68.8141 117.547 63.499 116.672L63.1742 118.645C68.597 119.538 74.2267 120.008 80 120.008V118.008Z" fill="black"/>
<mask id="path-3-outside-1_876_2" maskUnits="userSpaceOnUse" x="-1.67629" y="-4.83538" width="170.569" height="123.063" fill="black">
<rect fill="white" x="-1.67629" y="-4.83538" width="170.569" height="123.063"/>
<path fill-rule="evenodd" clip-rule="evenodd" d="M34.682 94.8857C34.0499 93.2537 33.4344 91.5868 32.8357 89.8851L32.5449 89.0585L29.9824 89.922C30.145 90.3104 30.3169 90.6799 30.4983 91.0303C30.6765 91.3712 30.8609 91.6837 31.0516 91.9677L28.8778 93.0325C28.6871 92.7169 28.4898 92.3508 28.2861 91.934C28.0791 91.5078 27.8816 91.0625 27.6935 90.5983C27.1532 90.717 26.6142 90.7931 26.0768 90.8265C25.5361 90.8504 25.0284 90.7999 24.5536 90.6749C24.0694 90.5532 23.6386 90.3237 23.2612 89.9866C22.8837 89.6495 22.5913 89.1729 22.3837 88.5569C22.1187 87.7704 22.0243 86.958 22.1006 86.1197L24.5236 85.8415C24.4501 86.5627 24.482 87.1271 24.6193 87.5346C24.7662 87.9705 25.0247 88.221 25.3949 88.2862C25.7556 88.3546 26.2235 88.3183 26.7986 88.1773C26.6357 87.6624 26.4965 87.1711 26.3811 86.7034C26.2531 86.2295 26.1553 85.814 26.0877 85.4569L28.3961 84.9323C28.451 85.2832 28.5392 85.6861 28.6609 86.141C28.7699 86.5897 28.9058 87.0557 29.0686 87.539C29.5583 87.3951 30.0369 87.2497 30.5045 87.1027C30.9104 86.9753 31.315 86.8441 31.7184 86.7093L31.094 84.9345C30.871 84.3008 30.6497 83.6683 30.4301 83.0371C30.269 83.0904 30.1085 83.144 29.9485 83.1979C29.2504 83.4437 28.5635 83.691 27.8875 83.9399C27.1989 84.1825 26.5388 84.4313 25.9072 84.6863L25.0315 82.3222C25.3789 82.1946 25.7342 82.059 26.0974 81.9155C25.6162 81.74 25.1948 81.4916 24.8332 81.1702C24.459 80.8425 24.1841 80.4181 24.0084 79.8969C23.9414 79.6979 23.8836 79.4324 23.8351 79.1006C23.7866 78.7687 23.7886 78.4145 23.8411 78.038L26.3344 77.4986C26.2721 77.7834 26.2588 78.0728 26.2945 78.3668C26.3176 78.6545 26.3595 78.8884 26.4202 79.0684C26.6245 79.6749 27.0734 80.0988 27.7667 80.34C28.2723 80.5145 28.8709 80.5762 29.5624 80.5251C29.0689 79.0855 28.5841 77.6525 28.108 76.226C27.9967 76.2705 27.8834 76.3122 27.768 76.3511C27.1426 76.5619 26.5278 76.6477 25.9237 76.6085C25.3069 76.5631 24.734 76.4132 24.2051 76.1588C23.673 75.8949 23.2085 75.5343 22.8117 75.0771C22.4055 74.623 22.097 74.0833 21.8862 73.4578C21.6659 72.8039 21.5752 72.1591 21.6143 71.5234C21.6533 70.8876 21.8063 70.2926 22.0733 69.7383C22.3403 69.1841 22.7103 68.7006 23.1833 68.288C23.6531 67.8659 24.2102 67.5462 24.8546 67.3291C24.968 67.2909 25.0803 67.2558 25.1913 67.2239C25.0699 66.837 24.949 66.4507 24.8289 66.0648C24.6946 66.1105 24.5606 66.1558 24.4269 66.2008C23.7352 66.434 23.0418 66.6623 22.3468 66.8859C21.6392 67.1033 20.8809 67.3271 20.0721 67.5574L19.2627 65.1552C19.7019 65.0494 20.1442 64.9372 20.5897 64.8188C20.0737 64.6339 19.6079 64.3635 19.1925 64.0075C18.7676 63.6547 18.453 63.175 18.2486 62.5685C18.0474 61.9715 17.9825 61.45 18.0538 61.0038C18.1219 60.5483 18.2945 60.1524 18.5717 59.8163C18.8457 59.4707 19.1941 59.1739 19.6171 58.9259C20.0274 58.6715 20.4883 58.4424 20.9999 58.2383C21.4269 58.0675 21.8609 57.9058 22.3017 57.7532C21.9727 56.6543 21.6478 55.563 21.3269 54.4791C21.0668 54.5754 20.7995 54.6698 20.5251 54.7623C19.8997 54.973 19.2425 55.1681 18.5537 55.3474C18.853 55.9536 19.1679 56.5281 19.4986 57.0709L17.4153 58.2636C16.9418 57.5473 16.5076 56.7597 16.1127 55.9009C15.607 55.9974 15.0761 56.0971 14.5199 56.2001C13.9542 56.3063 13.3568 56.4126 12.7279 56.5191L12.1172 54.0023C12.6483 53.95 13.1746 53.8834 13.6962 53.8027C14.2082 53.7251 14.7028 53.6428 15.1801 53.5559C15.0012 53.0252 14.8478 52.5229 14.7198 52.049C14.5791 51.5688 14.4701 51.1201 14.3928 50.7029L16.7203 50.2352C16.7942 50.5797 16.8871 50.9335 16.9989 51.2968C17.0981 51.6538 17.2084 52.0124 17.3297 52.3725C17.4032 52.5905 17.4813 52.8068 17.5643 53.0216C18.2752 52.8454 18.8803 52.6837 19.3794 52.5366C19.8754 52.38 20.2276 52.2666 20.4361 52.1964C20.5047 52.1732 20.5706 52.1505 20.6338 52.1281C20.4351 51.4514 20.238 50.7777 20.0425 50.1069C20.0275 50.1033 20.0126 50.0998 19.9976 50.0964L20.0302 50.0648C19.2167 47.2735 18.431 44.534 17.673 41.8465C15.7917 43.0879 14.2365 44.1856 13.0075 45.1396L5.63642 33.8246C7.89111 32.1621 10.311 30.5573 12.8961 29.0103C15.5146 27.3936 18.1012 25.9331 20.6557 24.6287C23.2437 23.2545 25.645 22.091 27.8595 21.138C30.1075 20.1153 31.9793 19.3408 33.4747 18.8147C35.0733 18.2523 37.0783 17.6917 39.4896 17.1332C41.9524 16.5564 44.5666 16.2452 47.3322 16.1994C50.1312 16.0839 52.8948 16.4444 55.6231 17.281C58.3514 18.1177 60.8667 19.6667 63.1691 21.928C65.5049 24.1197 67.3894 27.2525 68.8227 31.3264C70.3104 35.555 70.625 39.414 69.7664 42.9034C69.1835 45.1891 68.2542 47.3277 66.9786 49.3192C68.6462 49.3326 70.2043 49.5499 71.6531 49.9709C74.1615 50.6717 76.313 51.8078 78.1074 53.3794C79.9019 54.9509 81.3481 56.8199 82.4461 58.9862C82.7484 59.5825 83.0233 60.1878 83.2708 60.8019C83.3367 59.8349 83.4053 58.8723 83.4766 57.9139C84.0043 50.7915 84.5731 44.0041 85.1828 37.5518C83.1147 38.0017 81.3808 38.4361 79.9812 38.8552L77.3593 26.4485C79.8971 25.7564 82.5601 25.1708 85.3482 24.6918C88.1892 24.1631 90.9492 23.7603 93.6284 23.4834C96.3604 23.1568 98.8576 22.9513 101.12 22.8669C103.435 22.7329 105.337 22.6888 106.825 22.7347C108.415 22.7837 110.361 22.9721 112.662 23.2998C115.014 23.6291 117.409 24.2422 119.847 25.1391C122.337 25.9862 124.635 27.2383 126.741 28.8953C128.847 30.5523 130.525 32.7611 131.776 35.5216C133.079 38.2323 133.668 41.6144 133.543 45.6678C133.413 49.8752 132.381 53.3614 130.447 56.1264C128.514 58.8402 126.008 60.997 122.929 62.5968C119.851 64.1454 116.48 65.2227 112.815 65.8287C109.15 66.4347 105.547 66.6832 102.007 66.574C99.749 66.5044 97.5971 66.3354 95.5511 66.0669C95.4239 68.5281 95.3231 70.9645 95.2487 73.376C95.1475 76.6598 95.079 79.7135 95.0434 82.537C95.0093 85.3093 95.0367 87.7496 95.1258 89.8581L82.1095 89.7649C82.1088 88.1215 82.1346 86.4531 82.1868 84.7599L82.3288 80.1541C82.2035 80.3693 82.0739 80.5817 81.94 80.7914C80.6427 82.7859 78.9863 84.4266 76.971 85.7135C74.9557 87.0004 72.6587 87.8456 70.0801 88.2489C67.294 88.6848 64.6786 88.5625 62.2341 87.8821C59.7942 87.2314 57.603 86.1318 55.6603 84.5835C53.7177 83.0351 52.1209 81.1745 50.8701 79.0017C49.6193 76.8289 48.7922 74.4532 48.3888 71.8746C48.0179 69.5034 48.0096 67.1211 48.3639 64.7276C48.449 64.1382 48.558 63.5586 48.691 62.9887C47.6452 63.4286 46.5926 63.8348 45.5334 64.2075C43.2644 65.0058 41.0623 65.6646 38.927 66.1841C39.7463 68.6775 40.5823 71.1361 41.435 73.5598C42.5962 76.8601 43.7015 79.9194 44.7509 82.7375C45.7822 85.504 46.7471 87.9172 47.6457 89.9771L34.682 94.8857ZM23.0229 60.1533C21.1139 60.815 20.2667 61.4643 20.4813 62.1012C20.6633 62.6413 21.0662 63.0543 21.6901 63.34C22.3014 63.6194 23.0118 63.7863 23.8216 63.8406L24.1059 63.7448L24.112 63.7427C24.0081 63.4034 23.9048 63.0644 23.8019 62.7259C23.5399 61.8639 23.2802 61.0064 23.0229 60.1533ZM25.9544 69.6331C25.8445 69.6599 25.7319 69.6927 25.6166 69.7315C24.9628 69.9519 24.5039 70.3281 24.24 70.8602C23.9761 71.3923 23.9527 71.9806 24.1698 72.625C24.3008 73.0135 24.5247 73.3338 24.8418 73.5857C25.1494 73.8409 25.5073 74.0105 25.9155 74.0945C26.311 74.1723 26.7125 74.1425 27.12 74.0052C27.1961 73.9796 27.2707 73.9509 27.3437 73.9192C26.8718 72.4839 26.4086 71.0552 25.9544 69.6331ZM37.5512 31.6365C36.2104 32.1083 34.8362 32.6497 33.4286 33.2608C32.0725 33.8538 30.7255 34.4726 29.3876 35.1172C30.0914 37.941 30.9283 40.9787 31.8985 44.2304C32.8687 47.4821 33.8918 50.802 34.968 54.1902C36.9304 53.6736 38.943 53.0525 41.0057 52.3267C53.3821 47.9724 58.2821 42.1339 55.7058 34.8112C54.6898 31.9234 52.6992 30.2188 49.7341 29.6973C46.769 29.1758 42.708 29.8222 37.5512 31.6365ZM68.9186 80.8242C70.697 80.546 72.2748 79.8589 73.6519 78.7629C75.0245 77.6373 76.0241 76.069 76.6508 74.0579C77.2775 72.0469 77.3568 69.5446 76.8885 66.551C76.4851 63.9724 75.6497 61.932 74.3823 60.4298C73.1149 58.9276 71.6184 57.9016 69.8927 57.3517C68.1669 56.8018 66.4297 56.6636 64.681 56.9372C62.6951 57.2478 61.0761 57.8654 59.824 58.7901C58.5718 59.7147 57.6259 60.8495 56.9861 62.1946C56.3416 63.51 55.9575 64.9365 55.8336 66.4741C55.7098 68.0117 55.7707 69.566 56.0164 71.1369C56.2575 72.6781 56.7834 74.0989 57.5941 75.3993C58.4002 76.6699 59.3906 77.76 60.5652 78.6694C61.7649 79.5445 63.0803 80.1889 64.5114 80.6027C65.938 80.9869 67.407 81.0607 68.9186 80.8242ZM101.89 35.3706C103.33 35.3123 104.717 35.3037 106.051 35.3448C111.182 35.503 114.957 36.3127 117.377 37.774C119.797 39.2352 120.963 41.4025 120.875 44.2758C120.65 51.5617 114.381 55.0148 102.066 54.6352C100.014 54.5719 98.0411 54.4341 96.1474 54.2216C96.3528 50.8897 96.5815 47.6355 96.8335 44.4591C97.0855 41.2827 97.3817 38.3388 97.7221 35.6273C99.1122 35.5161 100.501 35.4305 101.89 35.3706ZM141.3 26.5138L153.056 29.7084C152.5 31.5313 151.811 33.8503 150.986 36.6653C150.223 39.4411 149.395 42.5178 148.5 45.8955C147.617 49.223 146.722 52.6006 145.817 56.0284C144.912 59.4562 144.064 62.739 143.275 65.8768C142.546 68.9755 141.925 71.7034 141.411 74.0606L141 75.9414C140.869 76.5432 140.779 77.0753 140.731 77.5376L128.985 74.6603C129.121 73.7967 129.304 72.8383 129.534 71.7851L130.321 68.174C131.219 64.0614 132.248 59.5835 133.409 54.7405C134.621 49.9084 135.888 45.0621 137.211 40.2017C138.595 35.3021 139.958 30.7395 141.3 26.5138ZM130.368 95.0586C128.412 94.6319 126.91 93.5687 125.862 91.869C124.853 90.2304 124.568 88.408 125.006 86.4019C125.443 84.3957 126.487 82.8632 128.136 81.8045C129.836 80.7566 131.689 80.4515 133.695 80.8891C135.651 81.3158 137.128 82.3735 138.126 84.0623C139.173 85.762 139.468 87.6651 139.008 89.7715C138.56 91.8278 137.546 93.3407 135.969 94.3101C134.391 95.2795 132.524 95.529 130.368 95.0586Z"/>
</mask>
<path fill-rule="evenodd" clip-rule="evenodd" d="M34.682 94.8857C34.0499 93.2537 33.4344 91.5868 32.8357 89.8851L32.5449 89.0585L29.9824 89.922C30.145 90.3104 30.3169 90.6799 30.4983 91.0303C30.6765 91.3712 30.8609 91.6837 31.0516 91.9677L28.8778 93.0325C28.6871 92.7169 28.4898 92.3508 28.2861 91.934C28.0791 91.5078 27.8816 91.0625 27.6935 90.5983C27.1532 90.717 26.6142 90.7931 26.0768 90.8265C25.5361 90.8504 25.0284 90.7999 24.5536 90.6749C24.0694 90.5532 23.6386 90.3237 23.2612 89.9866C22.8837 89.6495 22.5913 89.1729 22.3837 88.5569C22.1187 87.7704 22.0243 86.958 22.1006 86.1197L24.5236 85.8415C24.4501 86.5627 24.482 87.1271 24.6193 87.5346C24.7662 87.9705 25.0247 88.221 25.3949 88.2862C25.7556 88.3546 26.2235 88.3183 26.7986 88.1773C26.6357 87.6624 26.4965 87.1711 26.3811 86.7034C26.2531 86.2295 26.1553 85.814 26.0877 85.4569L28.3961 84.9323C28.451 85.2832 28.5392 85.6861 28.6609 86.141C28.7699 86.5897 28.9058 87.0557 29.0686 87.539C29.5583 87.3951 30.0369 87.2497 30.5045 87.1027C30.9104 86.9753 31.315 86.8441 31.7184 86.7093L31.094 84.9345C30.871 84.3008 30.6497 83.6683 30.4301 83.0371C30.269 83.0904 30.1085 83.144 29.9485 83.1979C29.2504 83.4437 28.5635 83.691 27.8875 83.9399C27.1989 84.1825 26.5388 84.4313 25.9072 84.6863L25.0315 82.3222C25.3789 82.1946 25.7342 82.059 26.0974 81.9155C25.6162 81.74 25.1948 81.4916 24.8332 81.1702C24.459 80.8425 24.1841 80.4181 24.0084 79.8969C23.9414 79.6979 23.8836 79.4324 23.8351 79.1006C23.7866 78.7687 23.7886 78.4145 23.8411 78.038L26.3344 77.4986C26.2721 77.7834 26.2588 78.0728 26.2945 78.3668C26.3176 78.6545 26.3595 78.8884 26.4202 79.0684C26.6245 79.6749 27.0734 80.0988 27.7667 80.34C28.2723 80.5145 28.8709 80.5762 29.5624 80.5251C29.0689 79.0855 28.5841 77.6525 28.108 76.226C27.9967 76.2705 27.8834 76.3122 27.768 76.3511C27.1426 76.5619 26.5278 76.6477 25.9237 76.6085C25.3069 76.5631 24.734 76.4132 24.2051 76.1588C23.673 75.8949 23.2085 75.5343 22.8117 75.0771C22.4055 74.623 22.097 74.0833 21.8862 73.4578C21.6659 72.8039 21.5752 72.1591 21.6143 71.5234C21.6533 70.8876 21.8063 70.2926 22.0733 69.7383C22.3403 69.1841 22.7103 68.7006 23.1833 68.288C23.6531 67.8659 24.2102 67.5462 24.8546 67.3291C24.968 67.2909 25.0803 67.2558 25.1913 67.2239C25.0699 66.837 24.949 66.4507 24.8289 66.0648C24.6946 66.1105 24.5606 66.1558 24.4269 66.2008C23.7352 66.434 23.0418 66.6623 22.3468 66.8859C21.6392 67.1033 20.8809 67.3271 20.0721 67.5574L19.2627 65.1552C19.7019 65.0494 20.1442 64.9372 20.5897 64.8188C20.0737 64.6339 19.6079 64.3635 19.1925 64.0075C18.7676 63.6547 18.453 63.175 18.2486 62.5685C18.0474 61.9715 17.9825 61.45 18.0538 61.0038C18.1219 60.5483 18.2945 60.1524 18.5717 59.8163C18.8457 59.4707 19.1941 59.1739 19.6171 58.9259C20.0274 58.6715 20.4883 58.4424 20.9999 58.2383C21.4269 58.0675 21.8609 57.9058 22.3017 57.7532C21.9727 56.6543 21.6478 55.563 21.3269 54.4791C21.0668 54.5754 20.7995 54.6698 20.5251 54.7623C19.8997 54.973 19.2425 55.1681 18.5537 55.3474C18.853 55.9536 19.1679 56.5281 19.4986 57.0709L17.4153 58.2636C16.9418 57.5473 16.5076 56.7597 16.1127 55.9009C15.607 55.9974 15.0761 56.0971 14.5199 56.2001C13.9542 56.3063 13.3568 56.4126 12.7279 56.5191L12.1172 54.0023C12.6483 53.95 13.1746 53.8834 13.6962 53.8027C14.2082 53.7251 14.7028 53.6428 15.1801 53.5559C15.0012 53.0252 14.8478 52.5229 14.7198 52.049C14.5791 51.5688 14.4701 51.1201 14.3928 50.7029L16.7203 50.2352C16.7942 50.5797 16.8871 50.9335 16.9989 51.2968C17.0981 51.6538 17.2084 52.0124 17.3297 52.3725C17.4032 52.5905 17.4813 52.8068 17.5643 53.0216C18.2752 52.8454 18.8803 52.6837 19.3794 52.5366C19.8754 52.38 20.2276 52.2666 20.4361 52.1964C20.5047 52.1732 20.5706 52.1505 20.6338 52.1281C20.4351 51.4514 20.238 50.7777 20.0425 50.1069C20.0275 50.1033 20.0126 50.0998 19.9976 50.0964L20.0302 50.0648C19.2167 47.2735 18.431 44.534 17.673 41.8465C15.7917 43.0879 14.2365 44.1856 13.0075 45.1396L5.63642 33.8246C7.89111 32.1621 10.311 30.5573 12.8961 29.0103C15.5146 27.3936 18.1012 25.9331 20.6557 24.6287C23.2437 23.2545 25.645 22.091 27.8595 21.138C30.1075 20.1153 31.9793 19.3408 33.4747 18.8147C35.0733 18.2523 37.0783 17.6917 39.4896 17.1332C41.9524 16.5564 44.5666 16.2452 47.3322 16.1994C50.1312 16.0839 52.8948 16.4444 55.6231 17.281C58.3514 18.1177 60.8667 19.6667 63.1691 21.928C65.5049 24.1197 67.3894 27.2525 68.8227 31.3264C70.3104 35.555 70.625 39.414 69.7664 42.9034C69.1835 45.1891 68.2542 47.3277 66.9786 49.3192C68.6462 49.3326 70.2043 49.5499 71.6531 49.9709C74.1615 50.6717 76.313 51.8078 78.1074 53.3794C79.9019 54.9509 81.3481 56.8199 82.4461 58.9862C82.7484 59.5825 83.0233 60.1878 83.2708 60.8019C83.3367 59.8349 83.4053 58.8723 83.4766 57.9139C84.0043 50.7915 84.5731 44.0041 85.1828 37.5518C83.1147 38.0017 81.3808 38.4361 79.9812 38.8552L77.3593 26.4485C79.8971 25.7564 82.5601 25.1708 85.3482 24.6918C88.1892 24.1631 90.9492 23.7603 93.6284 23.4834C96.3604 23.1568 98.8576 22.9513 101.12 22.8669C103.435 22.7329 105.337 22.6888 106.825 22.7347C108.415 22.7837 110.361 22.9721 112.662 23.2998C115.014 23.6291 117.409 24.2422 119.847 25.1391C122.337 25.9862 124.635 27.2383 126.741 28.8953C128.847 30.5523 130.525 32.7611 131.776 35.5216C133.079 38.2323 133.668 41.6144 133.543 45.6678C133.413 49.8752 132.381 53.3614 130.447 56.1264C128.514 58.8402 126.008 60.997 122.929 62.5968C119.851 64.1454 116.48 65.2227 112.815 65.8287C109.15 66.4347 105.547 66.6832 102.007 66.574C99.749 66.5044 97.5971 66.3354 95.5511 66.0669C95.4239 68.5281 95.3231 70.9645 95.2487 73.376C95.1475 76.6598 95.079 79.7135 95.0434 82.537C95.0093 85.3093 95.0367 87.7496 95.1258 89.8581L82.1095 89.7649C82.1088 88.1215 82.1346 86.4531 82.1868 84.7599L82.3288 80.1541C82.2035 80.3693 82.0739 80.5817 81.94 80.7914C80.6427 82.7859 78.9863 84.4266 76.971 85.7135C74.9557 87.0004 72.6587 87.8456 70.0801 88.2489C67.294 88.6848 64.6786 88.5625 62.2341 87.8821C59.7942 87.2314 57.603 86.1318 55.6603 84.5835C53.7177 83.0351 52.1209 81.1745 50.8701 79.0017C49.6193 76.8289 48.7922 74.4532 48.3888 71.8746C48.0179 69.5034 48.0096 67.1211 48.3639 64.7276C48.449 64.1382 48.558 63.5586 48.691 62.9887C47.6452 63.4286 46.5926 63.8348 45.5334 64.2075C43.2644 65.0058 41.0623 65.6646 38.927 66.1841C39.7463 68.6775 40.5823 71.1361 41.435 73.5598C42.5962 76.8601 43.7015 79.9194 44.7509 82.7375C45.7822 85.504 46.7471 87.9172 47.6457 89.9771L34.682 94.8857ZM23.0229 60.1533C21.1139 60.815 20.2667 61.4643 20.4813 62.1012C20.6633 62.6413 21.0662 63.0543 21.6901 63.34C22.3014 63.6194 23.0118 63.7863 23.8216 63.8406L24.1059 63.7448L24.112 63.7427C24.0081 63.4034 23.9048 63.0644 23.8019 62.7259C23.5399 61.8639 23.2802 61.0064 23.0229 60.1533ZM25.9544 69.6331C25.8445 69.6599 25.7319 69.6927 25.6166 69.7315C24.9628 69.9519 24.5039 70.3281 24.24 70.8602C23.9761 71.3923 23.9527 71.9806 24.1698 72.625C24.3008 73.0135 24.5247 73.3338 24.8418 73.5857C25.1494 73.8409 25.5073 74.0105 25.9155 74.0945C26.311 74.1723 26.7125 74.1425 27.12 74.0052C27.1961 73.9796 27.2707 73.9509 27.3437 73.9192C26.8718 72.4839 26.4086 71.0552 25.9544 69.6331ZM37.5512 31.6365C36.2104 32.1083 34.8362 32.6497 33.4286 33.2608C32.0725 33.8538 30.7255 34.4726 29.3876 35.1172C30.0914 37.941 30.9283 40.9787 31.8985 44.2304C32.8687 47.4821 33.8918 50.802 34.968 54.1902C36.9304 53.6736 38.943 53.0525 41.0057 52.3267C53.3821 47.9724 58.2821 42.1339 55.7058 34.8112C54.6898 31.9234 52.6992 30.2188 49.7341 29.6973C46.769 29.1758 42.708 29.8222 37.5512 31.6365ZM68.9186 80.8242C70.697 80.546 72.2748 79.8589 73.6519 78.7629C75.0245 77.6373 76.0241 76.069 76.6508 74.0579C77.2775 72.0469 77.3568 69.5446 76.8885 66.551C76.4851 63.9724 75.6497 61.932 74.3823 60.4298C73.1149 58.9276 71.6184 57.9016 69.8927 57.3517C68.1669 56.8018 66.4297 56.6636 64.681 56.9372C62.6951 57.2478 61.0761 57.8654 59.824 58.7901C58.5718 59.7147 57.6259 60.8495 56.9861 62.1946C56.3416 63.51 55.9575 64.9365 55.8336 66.4741C55.7098 68.0117 55.7707 69.566 56.0164 71.1369C56.2575 72.6781 56.7834 74.0989 57.5941 75.3993C58.4002 76.6699 59.3906 77.76 60.5652 78.6694C61.7649 79.5445 63.0803 80.1889 64.5114 80.6027C65.938 80.9869 67.407 81.0607 68.9186 80.8242ZM101.89 35.3706C103.33 35.3123 104.717 35.3037 106.051 35.3448C111.182 35.503 114.957 36.3127 117.377 37.774C119.797 39.2352 120.963 41.4025 120.875 44.2758C120.65 51.5617 114.381 55.0148 102.066 54.6352C100.014 54.5719 98.0411 54.4341 96.1474 54.2216C96.3528 50.8897 96.5815 47.6355 96.8335 44.4591C97.0855 41.2827 97.3817 38.3388 97.7221 35.6273C99.1122 35.5161 100.501 35.4305 101.89 35.3706ZM141.3 26.5138L153.056 29.7084C152.5 31.5313 151.811 33.8503 150.986 36.6653C150.223 39.4411 149.395 42.5178 148.5 45.8955C147.617 49.223 146.722 52.6006 145.817 56.0284C144.912 59.4562 144.064 62.739 143.275 65.8768C142.546 68.9755 141.925 71.7034 141.411 74.0606L141 75.9414C140.869 76.5432 140.779 77.0753 140.731 77.5376L128.985 74.6603C129.121 73.7967 129.304 72.8383 129.534 71.7851L130.321 68.174C131.219 64.0614 132.248 59.5835 133.409 54.7405C134.621 49.9084 135.888 45.0621 137.211 40.2017C138.595 35.3021 139.958 30.7395 141.3 26.5138ZM130.368 95.0586C128.412 94.6319 126.91 93.5687 125.862 91.869C124.853 90.2304 124.568 88.408 125.006 86.4019C125.443 84.3957 126.487 82.8632 128.136 81.8045C129.836 80.7566 131.689 80.4515 133.695 80.8891C135.651 81.3158 137.128 82.3735 138.126 84.0623C139.173 85.762 139.468 87.6651 139.008 89.7715C138.56 91.8278 137.546 93.3407 135.969 94.3101C134.391 95.2795 132.524 95.529 130.368 95.0586Z" fill="url(#paint0_linear_876_2)"/>
<path d="M32.8357 89.8851L36.1373 88.7235L32.8357 89.8851ZM34.682 94.8857L31.4183 96.1499L32.6729 99.389L35.9214 98.159L34.682 94.8857ZM32.5449 89.0585L35.8465 87.8969L34.7003 84.6389L31.4273 85.7418L32.5449 89.0585ZM29.9824 89.922L28.8648 86.6052L25.3027 87.8055L26.7537 91.2731L29.9824 89.922ZM30.4983 91.0303L27.39 92.6392L27.3964 92.6515L30.4983 91.0303ZM31.0516 91.9677L32.5913 95.1108L36.193 93.3465L33.9574 90.0167L31.0516 91.9677ZM28.8778 93.0325L25.8825 94.843L27.54 97.5853L30.4176 96.1757L28.8778 93.0325ZM28.2861 91.934L25.1375 93.4626L25.1417 93.4712L28.2861 91.934ZM27.6935 90.5983L30.9374 89.284L29.8279 86.5456L26.9422 87.1799L27.6935 90.5983ZM26.0768 90.8265L26.2314 94.3231L26.2625 94.3217L26.2937 94.3198L26.0768 90.8265ZM24.5536 90.6749L25.4444 87.2902L25.4258 87.2853L25.407 87.2806L24.5536 90.6749ZM23.2612 89.9866L20.9295 92.5968L20.9295 92.5968L23.2612 89.9866ZM22.3837 88.5569L19.0669 89.6746L19.0669 89.6746L22.3837 88.5569ZM22.1006 86.1197L21.7013 82.6426L18.8732 82.9674L18.6151 85.8024L22.1006 86.1197ZM24.5236 85.8415L28.0056 86.1965L28.447 81.8679L24.1243 82.3643L24.5236 85.8415ZM24.6193 87.5346L21.3025 88.6522L21.3025 88.6522L24.6193 87.5346ZM25.3949 88.2862L26.0469 84.8475L26.0245 84.8432L26.002 84.8393L25.3949 88.2862ZM26.7986 88.1773L27.6321 91.5766L31.2637 90.6861L30.1355 87.1213L26.7986 88.1773ZM26.3811 86.7034L29.7792 85.8651L29.77 85.8278L29.76 85.7906L26.3811 86.7034ZM26.0877 85.4569L25.3121 82.0439L22.0213 82.7917L22.6487 86.1076L26.0877 85.4569ZM28.3961 84.9323L31.854 84.3912L31.2746 80.689L27.6205 81.5193L28.3961 84.9323ZM28.6609 86.141L32.062 85.3149L32.0525 85.2758L32.0421 85.237L28.6609 86.141ZM29.0686 87.539L25.7519 88.6566L26.8265 91.8459L30.0554 90.897L29.0686 87.539ZM30.5045 87.1027L29.4562 83.7634L29.4548 83.7638L30.5045 87.1027ZM31.7184 86.7093L32.8281 90.0287L36.2 88.9014L35.02 85.5477L31.7184 86.7093ZM31.094 84.9345L27.7924 86.0961L27.7924 86.0961L31.094 84.9345ZM30.4301 83.0371L33.7356 81.8868L32.6025 78.6304L29.3295 79.7146L30.4301 83.0371ZM29.9485 83.1979L28.8309 79.8812L28.8085 79.8887L28.7862 79.8966L29.9485 83.1979ZM27.8875 83.9399L29.0505 87.241L29.0737 87.2328L29.0968 87.2243L27.8875 83.9399ZM25.9072 84.6863L22.6252 85.9021L23.8767 89.2807L27.2177 87.9317L25.9072 84.6863ZM25.0315 82.3222L23.8246 79.0368L20.5303 80.247L21.7494 83.538L25.0315 82.3222ZM26.0974 81.9155L27.3834 85.1707L35.9538 81.7848L27.2966 78.6274L26.0974 81.9155ZM24.8332 81.1702L27.1585 78.5543L27.1487 78.5456L27.1388 78.5369L24.8332 81.1702ZM24.0084 79.8969L20.6917 81.0145L20.6917 81.0145L24.0084 79.8969ZM23.8351 79.1006L27.2983 78.5943L23.8351 79.1006ZM23.8411 78.038L23.101 74.6171L20.7124 75.1339L20.3747 77.5543L23.8411 78.038ZM26.3344 77.4986L29.7535 78.2467L30.9177 72.9261L25.5943 74.0778L26.3344 77.4986ZM26.2945 78.3668L29.7833 78.087L29.7776 78.0155L29.769 77.9444L26.2945 78.3668ZM26.4202 79.0684L29.7369 77.9508L29.7369 77.9508L26.4202 79.0684ZM27.7667 80.34L26.6165 83.6456L26.6247 83.6485L27.7667 80.34ZM29.5624 80.5251L29.8206 84.0155L34.3442 83.6809L32.8733 79.3901L29.5624 80.5251ZM28.108 76.226L31.4279 75.1179L30.253 71.5977L26.8076 72.9766L28.108 76.226ZM27.768 76.3511L28.8856 79.6679L28.8857 79.6679L27.768 76.3511ZM25.9237 76.6085L25.6666 80.0991L25.682 80.1002L25.6974 80.1012L25.9237 76.6085ZM24.2051 76.1588L22.65 79.2943L22.6689 79.3037L22.6879 79.3128L24.2051 76.1588ZM22.8117 75.0771L25.4552 72.7831L25.4378 72.7631L25.4201 72.7433L22.8117 75.0771ZM21.8862 73.4578L25.203 72.3402L25.203 72.3402L21.8862 73.4578ZM21.6143 71.5234L18.1209 71.3089L18.1209 71.3089L21.6143 71.5234ZM22.0733 69.7383L25.2266 71.2572L25.2266 71.2572L22.0733 69.7383ZM23.1833 68.288L25.4842 70.9254L25.5035 70.9086L25.5225 70.8914L23.1833 68.288ZM24.8546 67.3291L25.9722 70.6459L25.9723 70.6458L24.8546 67.3291ZM25.1913 67.2239L26.1582 70.5877L29.605 69.597L28.5306 66.1753L25.1913 67.2239ZM24.8289 66.0648L28.1706 65.0242L27.1029 61.5953L23.7026 62.751L24.8289 66.0648ZM24.4269 66.2008L25.5446 69.5176L25.5446 69.5176L24.4269 66.2008ZM22.3468 66.8859L23.3744 70.2317L23.3967 70.2248L23.4189 70.2177L22.3468 66.8859ZM20.0721 67.5574L16.7554 68.6751L17.821 71.8377L21.0307 70.9236L20.0721 67.5574ZM19.2627 65.1552L18.4431 61.7525L14.7245 62.6481L15.9459 66.2728L19.2627 65.1552ZM20.5897 64.8188L21.4891 68.2013L32.3483 65.3138L21.7702 61.5239L20.5897 64.8188ZM19.1925 64.0075L21.47 61.3498L21.4493 61.3321L21.4283 61.3147L19.1925 64.0075ZM18.2486 62.5685L14.9319 63.6862L18.2486 62.5685ZM18.0538 61.0038L21.5099 61.556L21.5127 61.5386L21.5153 61.5211L18.0538 61.0038ZM18.5717 59.8163L21.2719 62.0431L21.2933 62.0171L21.3143 61.9907L18.5717 59.8163ZM19.6171 58.9259L21.3877 61.945L21.4247 61.9233L21.4611 61.9007L19.6171 58.9259ZM20.9999 58.2383L22.2965 61.4893L22.2998 61.488L20.9999 58.2383ZM22.3017 57.7532L23.4464 61.0607L26.6167 59.9635L25.6547 56.7496L22.3017 57.7532ZM21.3269 54.4791L24.683 53.4856L23.6208 49.8979L20.1119 51.1968L21.3269 54.4791ZM20.5251 54.7623L19.4075 51.4455L19.4075 51.4455L20.5251 54.7623ZM18.5537 55.3474L17.6719 51.9603L13.5131 53.0431L15.4153 56.8966L18.5537 55.3474ZM19.4986 57.0709L21.2375 60.1084L24.3585 58.3216L22.4877 55.2502L19.4986 57.0709ZM17.4153 58.2636L14.4956 60.1937L16.3057 62.9318L19.1543 61.301L17.4153 58.2636ZM16.1127 55.9009L19.2926 54.4386L18.1479 51.9492L15.4565 52.4629L16.1127 55.9009ZM14.5199 56.2001L13.8825 52.7587L13.8741 52.7602L14.5199 56.2001ZM12.7279 56.5191L9.32655 57.3443L10.0956 60.5141L13.3117 59.97L12.7279 56.5191ZM12.1172 54.0023L11.7741 50.5191L7.76643 50.914L8.71593 54.8275L12.1172 54.0023ZM13.6962 53.8027L13.172 50.3421L13.1606 50.3439L13.6962 53.8027ZM15.1801 53.5559L15.8073 56.9992L19.7892 56.2738L18.4968 52.4383L15.1801 53.5559ZM14.7198 52.049L18.0986 51.1361L18.089 51.1004L18.0786 51.0648L14.7198 52.049ZM14.3928 50.7029L13.7033 47.2715L10.3236 47.9506L10.9513 51.3402L14.3928 50.7029ZM16.7203 50.2352L20.1426 49.5014L19.4182 46.1231L16.0308 46.8038L16.7203 50.2352ZM16.9989 51.2968L20.3712 50.3599L20.3582 50.3132L20.3439 50.2669L16.9989 51.2968ZM17.3297 52.3725L20.6465 51.2549L20.6465 51.2549L17.3297 52.3725ZM17.5643 53.0216L14.2992 54.2822L15.4108 57.1614L18.4064 56.4188L17.5643 53.0216ZM19.3794 52.5366L20.3687 55.8939L20.401 55.8844L20.4331 55.8742L19.3794 52.5366ZM20.4361 52.1964L21.5537 55.5131L21.5538 55.5131L20.4361 52.1964ZM20.6338 52.1281L21.8027 55.4271L24.9253 54.3207L23.992 51.1421L20.6338 52.1281ZM20.0425 50.1069L23.4026 49.1275L22.8357 47.1824L20.8666 46.7054L20.0425 50.1069ZM19.9976 50.0964L17.5583 47.5865L12.925 52.0894L19.2276 53.5107L19.9976 50.0964ZM20.0302 50.0648L22.4695 52.5747L23.9795 51.1072L23.3904 49.0855L20.0302 50.0648ZM17.673 41.8465L21.0416 40.8964L19.7419 36.288L15.7453 38.9252L17.673 41.8465ZM13.0075 45.1396L10.0749 47.05L12.1501 50.2356L15.1535 47.9044L13.0075 45.1396ZM5.63642 33.8246L3.55927 31.0076L0.901035 32.9677L2.7038 35.735L5.63642 33.8246ZM12.8961 29.0103L14.6934 32.0136L14.7142 32.0012L14.7348 31.9884L12.8961 29.0103ZM20.6557 24.6287L22.2474 27.7458L22.2724 27.7331L22.2971 27.7199L20.6557 24.6287ZM27.8595 21.138L29.243 24.3529L29.2761 24.3387L29.3089 24.3238L27.8595 21.138ZM33.4747 18.8147L34.6363 22.1163L34.6363 22.1163L33.4747 18.8147ZM39.4896 17.1332L40.2795 20.5429L40.2876 20.541L39.4896 17.1332ZM47.3322 16.1994L47.3901 19.6989L47.4333 19.6982L47.4765 19.6964L47.3322 16.1994ZM55.6231 17.281L56.6492 13.9348L56.6492 13.9348L55.6231 17.281ZM63.1691 21.928L60.7165 24.425L60.745 24.453L60.7742 24.4804L63.1691 21.928ZM68.8227 31.3264L72.1243 30.1648L72.1243 30.1648L68.8227 31.3264ZM69.7664 42.9034L73.1579 43.7683L73.1615 43.754L73.1651 43.7396L69.7664 42.9034ZM66.9786 49.3192L64.0314 47.4313L60.613 52.768L66.9504 52.8191L66.9786 49.3192ZM71.6531 49.9709L70.6763 53.3319L70.6938 53.3369L70.7114 53.3419L71.6531 49.9709ZM78.1074 53.3794L75.8015 56.0123L75.8015 56.0124L78.1074 53.3794ZM82.4461 58.9862L79.3242 60.5685L79.3242 60.5685L82.4461 58.9862ZM83.2708 60.8019L80.0245 62.1103L86.7627 61.0399L83.2708 60.8019ZM83.4766 57.9139L86.9669 58.1736L86.967 58.1725L83.4766 57.9139ZM85.1828 37.5518L88.6673 37.8811L89.1178 33.1142L84.439 34.1318L85.1828 37.5518ZM79.9812 38.8552L76.5568 39.5789L77.343 43.2987L80.9852 42.2081L79.9812 38.8552ZM77.3593 26.4485L76.4384 23.0718L73.252 23.9408L73.9349 27.1722L77.3593 26.4485ZM85.3482 24.6918L85.9408 28.1413L85.9647 28.1372L85.9885 28.1327L85.3482 24.6918ZM93.6284 23.4834L93.9882 26.9648L94.016 26.962L94.0438 26.9586L93.6284 23.4834ZM101.12 22.8669L101.25 26.3645L101.286 26.3632L101.322 26.3611L101.12 22.8669ZM106.825 22.7347L106.933 19.2363L106.825 22.7347ZM112.662 23.2998L112.169 26.7648L112.177 26.766L112.662 23.2998ZM119.847 25.1391L118.638 28.4238L118.679 28.4387L118.72 28.4526L119.847 25.1391ZM126.741 28.8953L128.906 26.1447L126.741 28.8953ZM131.776 35.5216L128.587 36.9655L128.604 37.0019L128.621 37.0379L131.776 35.5216ZM133.543 45.6678L137.041 45.7757L133.543 45.6678ZM130.447 56.1264L133.298 58.1567L133.307 58.1446L133.315 58.1325L130.447 56.1264ZM122.929 62.5968L124.502 65.7234L124.522 65.7132L124.543 65.7027L122.929 62.5968ZM102.007 66.574L102.114 63.0757L102.114 63.0757L102.007 66.574ZM95.5511 66.0669L96.0065 62.5966L92.2513 62.1038L92.0558 65.8862L95.5511 66.0669ZM95.2487 73.376L91.7504 73.2682L91.7504 73.2682L95.2487 73.376ZM95.0434 82.537L91.5436 82.4928L91.5436 82.494L95.0434 82.537ZM95.1258 89.8581L95.1008 93.358L98.7779 93.3843L98.6227 89.7103L95.1258 89.8581ZM82.1095 89.7649L78.6095 89.7664L78.611 93.24L82.0845 93.2648L82.1095 89.7649ZM82.1868 84.7599L85.6851 84.8678L85.6851 84.8678L82.1868 84.7599ZM82.3288 80.1541L85.8271 80.2619L79.3038 78.3935L82.3288 80.1541ZM81.94 80.7914L84.8739 82.6998L84.8819 82.6876L84.8898 82.6752L81.94 80.7914ZM62.2341 87.8821L63.1726 84.5103L63.1544 84.5052L63.1361 84.5003L62.2341 87.8821ZM55.6603 84.5835L57.8418 81.8465L57.8418 81.8465L55.6603 84.5835ZM50.8701 79.0017L47.8368 80.7479L47.8368 80.7479L50.8701 79.0017ZM48.3639 64.7276L51.8262 65.2401L51.828 65.2275L48.3639 64.7276ZM48.691 62.9887L52.0994 63.7841L53.6587 57.1025L47.3341 59.7624L48.691 62.9887ZM45.5334 64.2075L46.695 67.5091L46.695 67.5091L45.5334 64.2075ZM38.927 66.1841L38.0997 62.7833L34.4196 63.6785L35.6019 67.2767L38.927 66.1841ZM41.435 73.5598L44.7366 72.3982L44.7366 72.3982L41.435 73.5598ZM44.7509 82.7375L41.4709 83.9589L41.4714 83.96L44.7509 82.7375ZM47.6457 89.9771L48.8851 93.2503L52.324 91.9481L50.8537 88.5776L47.6457 89.9771ZM23.0229 60.1533L26.3737 59.1425L25.3209 55.6523L21.8765 56.8464L23.0229 60.1533ZM20.4813 62.1012L17.1645 63.2188L17.1645 63.2188L20.4813 62.1012ZM21.6901 63.34L20.2328 66.5221L20.2348 66.5231L21.6901 63.34ZM23.8216 63.8406L23.5875 67.3327L24.2807 67.3792L24.9392 67.1574L23.8216 63.8406ZM24.1059 63.7448L25.2235 67.0616L25.2239 67.0614L24.1059 63.7448ZM24.112 63.7427L25.23 67.0594L28.4546 65.9723L27.4587 62.7184L24.112 63.7427ZM23.8019 62.7259L27.1509 61.7088L27.1506 61.7077L23.8019 62.7259ZM25.9544 69.6331L29.2885 68.5682L28.2959 65.4608L25.1265 66.2325L25.9544 69.6331ZM25.6166 69.7315L26.7343 73.0483L26.7343 73.0483L25.6166 69.7315ZM24.24 70.8602L21.1044 69.3052L21.1044 69.3052L24.24 70.8602ZM24.1698 72.625L27.4866 71.5074L24.1698 72.625ZM24.8418 73.5857L27.0764 70.8919L27.0481 70.8685L27.0193 70.8456L24.8418 73.5857ZM25.9155 74.0945L25.2096 77.5226L25.2249 77.5258L25.2403 77.5288L25.9155 74.0945ZM27.12 74.0052L28.2376 77.322L28.2377 77.322L27.12 74.0052ZM27.3437 73.9192L28.736 77.1304L31.6662 75.8599L30.6686 72.8259L27.3437 73.9192ZM33.4286 33.2608L32.0347 30.0504L32.0263 30.054L33.4286 33.2608ZM37.5512 31.6365L36.3896 28.3349L37.5512 31.6365ZM29.3876 35.1172L27.8685 31.964L25.3028 33.2001L25.9915 35.9635L29.3876 35.1172ZM31.8985 44.2304L28.5446 45.2311L28.5446 45.2311L31.8985 44.2304ZM34.968 54.1902L31.6322 55.2497L32.6399 58.4223L35.859 57.5749L34.968 54.1902ZM41.0057 52.3267L39.8441 49.0251L41.0057 52.3267ZM55.7058 34.8112L52.4042 35.9728L52.4042 35.9728L55.7058 34.8112ZM49.7341 29.6973L50.3403 26.2502L50.3403 26.2502L49.7341 29.6973ZM73.6519 78.7629L75.8314 81.5015L75.8515 81.4855L75.8714 81.4692L73.6519 78.7629ZM76.6508 74.0579L79.9923 75.0993L79.9923 75.0993L76.6508 74.0579ZM69.8927 57.3517L68.83 60.6865L68.83 60.6865L69.8927 57.3517ZM59.824 58.7901L61.9031 61.6056L59.824 58.7901ZM56.9861 62.1946L60.1291 63.7344L60.138 63.7163L60.1467 63.698L56.9861 62.1946ZM55.8336 66.4741L52.3449 66.1931L52.3449 66.1931L55.8336 66.4741ZM57.5941 75.3993L54.6241 77.251L54.6313 77.2626L54.6386 77.2741L57.5941 75.3993ZM60.5652 78.6694L58.4227 81.4369L58.4622 81.4675L58.5026 81.497L60.5652 78.6694ZM64.5114 80.6027L63.5393 83.965L63.5702 83.9739L63.6013 83.9823L64.5114 80.6027ZM106.051 35.3448L106.159 31.8465L106.159 31.8465L106.051 35.3448ZM101.89 35.3706L101.748 31.8735L101.739 31.8739L101.89 35.3706ZM117.377 37.774L115.568 40.7702L115.568 40.7702L117.377 37.774ZM120.875 44.2758L117.376 44.168L117.376 44.168L120.875 44.2758ZM102.066 54.6352L102.174 51.1369L102.174 51.1369L102.066 54.6352ZM96.1474 54.2216L92.654 54.0062L92.4492 57.3287L95.7572 57.6998L96.1474 54.2216ZM96.8335 44.4591L100.323 44.7359L96.8335 44.4591ZM97.7221 35.6273L97.443 32.1384L94.6041 32.3656L94.2494 35.1914L97.7221 35.6273ZM153.056 29.7084L156.404 30.7283L157.455 27.2771L153.973 26.3309L153.056 29.7084ZM141.3 26.5138L142.218 23.1363L138.98 22.2563L137.965 25.4543L141.3 26.5138ZM150.986 36.6653L147.627 35.6818L147.619 35.7096L147.612 35.7375L150.986 36.6653ZM148.5 45.8955L151.883 46.7936L151.883 46.7914L148.5 45.8955ZM145.817 56.0284L149.201 56.9222L149.201 56.9222L145.817 56.0284ZM143.275 65.8768L139.88 65.0228L139.874 65.0493L139.867 65.0759L143.275 65.8768ZM141.411 74.0606L137.991 73.3147L141.411 74.0606ZM141 75.9414L144.42 76.6873L144.42 76.6873L141 75.9414ZM140.731 77.5376L139.898 80.9371L143.795 81.8918L144.212 77.9014L140.731 77.5376ZM128.985 74.6603L125.528 74.1165L125.028 77.2943L128.153 78.0598L128.985 74.6603ZM129.534 71.7851L126.114 71.0392L129.534 71.7851ZM130.321 68.174L133.741 68.9199L130.321 68.174ZM133.409 54.7405L130.014 53.8892L130.01 53.9067L130.006 53.9242L133.409 54.7405ZM137.211 40.2017L133.843 39.2503L133.838 39.2664L133.834 39.2825L137.211 40.2017ZM125.862 91.869L122.881 93.7037L122.883 93.7057L125.862 91.869ZM130.368 95.0586L129.622 98.4781L129.622 98.4781L130.368 95.0586ZM125.006 86.4019L128.425 87.1478L128.425 87.1478L125.006 86.4019ZM128.136 81.8045L126.3 78.8251L126.272 78.8418L126.246 78.859L128.136 81.8045ZM133.695 80.8891L132.949 84.3087L132.949 84.3087L133.695 80.8891ZM138.126 84.0623L135.112 85.8425L135.129 85.8709L135.146 85.899L138.126 84.0623ZM139.008 89.7715L135.588 89.0256L135.588 89.0256L139.008 89.7715ZM135.969 94.3101L137.801 97.2921L135.969 94.3101ZM29.5341 91.0467C30.1446 92.7817 30.7726 94.4828 31.4183 96.1499L37.9458 93.6216C37.3272 92.0246 36.7243 90.3919 36.1373 88.7235L29.5341 91.0467ZM29.2433 90.2201L29.5341 91.0467L36.1373 88.7235L35.8465 87.8969L29.2433 90.2201ZM31.4273 85.7418L28.8648 86.6052L31.1 93.2388L33.6625 92.3753L31.4273 85.7418ZM26.7537 91.2731C26.9505 91.7433 27.1622 92.1991 27.3901 92.6392L33.6066 89.4213C33.4716 89.1606 33.3394 88.8776 33.2111 88.5709L26.7537 91.2731ZM27.3964 92.6515C27.6267 93.0921 27.8756 93.5163 28.1458 93.9186L33.9574 90.0167C33.8462 89.8511 33.7263 89.6503 33.6002 89.4091L27.3964 92.6515ZM29.5119 88.8246L27.3381 89.8894L30.4176 96.1757L32.5913 95.1108L29.5119 88.8246ZM31.8732 91.2221C31.7477 91.0144 31.5996 90.7428 31.4304 90.3968L25.1417 93.4712C25.38 93.9587 25.6265 94.4194 25.8825 94.843L31.8732 91.2221ZM31.4346 90.4054C31.2637 90.0534 31.0978 89.6799 30.9374 89.284L24.4497 91.9125C24.6655 92.4452 24.8946 92.9622 25.1375 93.4626L31.4346 90.4054ZM26.9422 87.1799C26.573 87.261 26.2127 87.3113 25.8599 87.3332L26.2937 94.3198C27.0158 94.2749 27.7334 94.1731 28.4449 94.0167L26.9422 87.1799ZM25.9222 87.3299C25.6979 87.3398 25.5454 87.3168 25.4444 87.2902L23.6628 94.0597C24.5114 94.283 25.3743 94.361 26.2314 94.3231L25.9222 87.3299ZM25.407 87.2806C25.4339 87.2873 25.4717 87.3006 25.5126 87.3223C25.5532 87.344 25.5804 87.3653 25.5928 87.3764L20.9295 92.5968C21.723 93.3057 22.6593 93.8076 23.7002 94.0693L25.407 87.2806ZM25.5928 87.3764C25.683 87.4569 25.7284 87.5238 25.7417 87.5455C25.7533 87.5644 25.7334 87.5371 25.7005 87.4393L19.0669 89.6746C19.4142 90.7052 19.989 91.7567 20.9295 92.5968L25.5928 87.3764ZM25.7005 87.4393C25.5931 87.1208 25.5534 86.7975 25.5862 86.4371L18.6151 85.8024C18.4952 87.1184 18.6442 88.42 19.0669 89.6746L25.7005 87.4393ZM22.5 89.5969L24.923 89.3186L24.1243 82.3643L21.7013 82.6426L22.5 89.5969ZM21.0417 85.4864C20.9476 86.4088 20.9322 87.5532 21.3025 88.6522L27.936 86.4169C27.9662 86.5064 27.9791 86.5702 27.9842 86.5992C27.9893 86.6286 27.9882 86.6333 27.9868 86.6083C27.9837 86.5532 27.9826 86.4221 28.0056 86.1965L21.0417 85.4864ZM21.3025 88.6522C21.7499 89.9798 22.8536 91.3925 24.7879 91.7332L26.002 84.8393C26.4739 84.9224 26.9629 85.1521 27.3591 85.536C27.7263 85.8919 27.8794 86.2488 27.936 86.4169L21.3025 88.6522ZM24.7429 91.725C25.8067 91.9267 26.8341 91.7723 27.6321 91.5766L25.9651 84.778C25.8935 84.7955 25.8392 84.8064 25.8008 84.8129C25.7621 84.8195 25.7444 84.8209 25.7456 84.8208C25.7465 84.8207 25.7728 84.8186 25.821 84.8205C25.869 84.8224 25.9464 84.8284 26.0469 84.8475L24.7429 91.725ZM30.1355 87.1213C29.9926 86.6698 29.8745 86.2514 29.7792 85.8651L22.983 87.5418C23.1184 88.0908 23.2787 88.655 23.4617 89.2333L30.1355 87.1213ZM29.76 85.7906C29.6478 85.3755 29.573 85.0508 29.5267 84.8062L22.6487 86.1076C22.7376 86.5772 22.8583 87.0836 23.0023 87.6163L29.76 85.7906ZM26.8633 88.8699L29.1716 88.3453L27.6205 81.5193L25.3121 82.0439L26.8633 88.8699ZM24.9381 85.4735C25.0172 85.9785 25.1357 86.5065 25.2797 87.0451L32.0421 85.237C31.9428 84.8656 31.8847 84.5878 31.854 84.3912L24.9381 85.4735ZM25.2598 86.9671C25.395 87.5237 25.56 88.0872 25.7519 88.6566L32.3854 86.4214C32.2516 86.0242 32.1448 85.6557 32.062 85.3149L25.2598 86.9671ZM30.0554 90.897C30.5653 90.7472 31.0649 90.5954 31.5542 90.4416L29.4548 83.7638C29.009 83.904 28.5513 84.043 28.0818 84.181L30.0554 90.897ZM31.5528 90.442C31.9792 90.3081 32.4043 90.1703 32.8281 90.0287L30.6087 83.3898C30.2257 83.5179 29.8415 83.6424 29.4562 83.7634L31.5528 90.442ZM27.7924 86.0961L28.4168 87.8709L35.02 85.5477L34.3956 83.7729L27.7924 86.0961ZM27.1245 84.1873C27.3455 84.8224 27.5681 85.4586 27.7924 86.0961L34.3956 83.7729C34.174 83.1429 33.954 82.5142 33.7356 81.8868L27.1245 84.1873ZM29.3295 79.7146C29.1627 79.7698 28.9965 79.8254 28.8309 79.8812L31.0661 86.5147C31.2204 86.4627 31.3753 86.411 31.5306 86.3595L29.3295 79.7146ZM28.7862 79.8966C28.0729 80.1477 27.3702 80.4007 26.6782 80.6554L29.0968 87.2243C29.7567 86.9814 30.428 86.7397 31.1108 86.4993L28.7862 79.8966ZM26.7246 80.6388C25.9899 80.8976 25.2805 81.1648 24.5968 81.4409L27.2177 87.9317C27.7972 87.6977 28.408 87.4674 29.0505 87.241L26.7246 80.6388ZM29.1893 83.4705L28.3135 81.1064L21.7494 83.538L22.6252 85.9021L29.1893 83.4705ZM26.2383 85.6076C26.6136 85.4697 26.9954 85.324 27.3834 85.1707L24.8114 78.6604C24.473 78.794 24.1441 78.9195 23.8246 79.0368L26.2383 85.6076ZM27.2966 78.6274C27.205 78.594 27.1713 78.5656 27.1585 78.5543L22.508 83.7861C23.2182 84.4175 24.0273 84.886 24.8982 85.2037L27.2966 78.6274ZM27.1388 78.5369C27.1992 78.5898 27.2485 78.6486 27.2839 78.7033C27.3183 78.7564 27.3279 78.7874 27.3252 78.7793L20.6917 81.0145C21.0432 82.0578 21.6404 83.0267 22.5276 83.8035L27.1388 78.5369ZM27.3252 78.7793C27.3428 78.8315 27.3436 78.8451 27.3347 78.8041C27.3264 78.7659 27.3134 78.698 27.2983 78.5943L20.3719 79.6068C20.4351 80.0393 20.5301 80.5351 20.6917 81.0145L27.3252 78.7793ZM27.2983 78.5943C27.3036 78.6309 27.2948 78.6127 27.3075 78.5217L20.3747 77.5543C20.2823 78.2163 20.2695 78.9065 20.3719 79.6068L27.2983 78.5943ZM24.5812 81.4589L27.0745 80.9195L25.5943 74.0778L23.101 74.6171L24.5812 81.4589ZM22.9153 76.7505C22.7675 77.4257 22.7377 78.111 22.8201 78.7892L29.769 77.9444C29.7799 78.0346 29.7766 78.1411 29.7535 78.2467L22.9153 76.7505ZM22.8057 78.6466C22.8412 79.0885 22.9172 79.6335 23.1034 80.1861L29.7369 77.9508C29.7558 78.0068 29.768 78.0514 29.7755 78.0817C29.783 78.1121 29.7869 78.1326 29.7885 78.1411C29.7912 78.1564 29.7877 78.1409 29.7833 78.087L22.8057 78.6466ZM23.1034 80.186C23.7068 81.9769 25.0719 83.1082 26.6166 83.6456L28.9168 77.0344C28.9499 77.0459 29.1169 77.1112 29.3131 77.2965C29.5211 77.4929 29.663 77.7314 29.7369 77.9508L23.1034 80.186ZM26.6247 83.6485C27.6918 84.0168 28.7893 84.0918 29.8206 84.0155L29.3042 77.0346C28.9525 77.0606 28.8528 77.0123 28.9087 77.0316L26.6247 83.6485ZM24.788 77.3341C25.2672 78.7697 25.755 80.2117 26.2516 81.6601L32.8733 79.3901C32.3828 77.9594 31.901 76.5353 31.4279 75.1179L24.788 77.3341ZM26.8076 72.9766C26.7576 72.9966 26.7052 73.0159 26.6504 73.0344L28.8857 79.6679C29.0616 79.6086 29.2359 79.5445 29.4084 79.4755L26.8076 72.9766ZM26.6504 73.0343C26.418 73.1127 26.2594 73.1229 26.15 73.1158L25.6974 80.1012C26.7962 80.1724 27.8672 80.011 28.8856 79.6679L26.6504 73.0343ZM26.1807 73.118C25.9775 73.103 25.835 73.0589 25.7222 73.0047L22.6879 79.3128C23.6331 79.7675 24.6362 80.0232 25.6666 80.0991L26.1807 73.118ZM25.7601 73.0232C25.651 72.9691 25.5544 72.8975 25.4552 72.7831L20.1682 77.371C20.8626 78.1711 21.6949 78.8207 22.65 79.2943L25.7601 73.0232ZM25.4201 72.7433C25.3554 72.671 25.2751 72.5542 25.203 72.3402L18.5695 74.5754C18.9188 75.6123 19.4555 76.575 20.2034 77.4108L25.4201 72.7433ZM25.203 72.3402C25.1149 72.0788 25.0986 71.886 25.1077 71.7379L18.1209 71.3089C18.0519 72.4323 18.2169 73.529 18.5695 74.5754L25.203 72.3402ZM25.1077 71.7379C25.1199 71.5386 25.1634 71.3884 25.2266 71.2572L18.9201 68.2195C18.4493 69.1968 18.1867 70.2367 18.1209 71.3089L25.1077 71.7379ZM25.2266 71.2572C25.2838 71.1384 25.3606 71.0332 25.4842 70.9254L20.8824 65.6506C20.06 66.3681 19.3968 67.2297 18.9201 68.2195L25.2266 71.2572ZM25.5225 70.8914C25.6114 70.8116 25.7443 70.7227 25.9722 70.6459L23.737 64.0123C22.6761 64.3698 21.6948 64.9201 20.8441 65.6845L25.5225 70.8914ZM25.9723 70.6458C26.0374 70.6239 26.0993 70.6046 26.1582 70.5877L24.2245 63.8601C24.0612 63.907 23.8986 63.9579 23.7369 64.0123L25.9723 70.6458ZM21.4872 67.1054C21.6081 67.4939 21.7298 67.883 21.8521 68.2725L28.5306 66.1753C28.4099 65.7911 28.2899 65.4074 28.1706 65.0242L21.4872 67.1054ZM23.7026 62.751C23.5711 62.7957 23.44 62.84 23.3093 62.8841L25.5446 69.5176C25.6812 69.4716 25.8181 69.4252 25.9552 69.3786L23.7026 62.751ZM23.3093 62.8841C22.6327 63.1121 21.9545 63.3354 21.2747 63.5542L23.4189 70.2177C24.1291 69.9892 24.8376 69.7558 25.5446 69.5176L23.3093 62.8841ZM21.3192 63.5402C20.6373 63.7496 19.9023 63.9667 19.1135 64.1913L21.0307 70.9236C21.8596 70.6876 22.641 70.4569 23.3744 70.2317L21.3192 63.5402ZM23.3889 66.4398L22.5794 64.0375L15.9459 66.2728L16.7554 68.6751L23.3889 66.4398ZM20.0822 68.5578C20.5487 68.4455 21.0176 68.3266 21.4891 68.2013L19.6903 61.4363C19.2708 61.5479 18.8551 61.6532 18.4431 61.7525L20.0822 68.5578ZM21.7702 61.5239C21.6548 61.4825 21.5609 61.4278 21.47 61.3498L16.9151 66.6652C17.6549 67.2992 18.4926 67.7853 19.4092 68.1137L21.7702 61.5239ZM21.4283 61.3147C21.4934 61.3687 21.5386 61.424 21.5644 61.4634C21.5885 61.5001 21.5831 61.5034 21.5654 61.4509L14.9319 63.6862C15.31 64.8083 15.9574 65.8705 16.9567 66.7003L21.4283 61.3147ZM21.5654 61.4509C21.5255 61.3326 21.5206 61.2843 21.5222 61.2971C21.524 61.3116 21.534 61.4053 21.5099 61.556L14.5976 60.4516C14.4087 61.6342 14.6171 62.7521 14.9319 63.6862L21.5654 61.4509ZM21.5153 61.5211C21.507 61.577 21.4869 61.6627 21.4425 61.7644C21.3976 61.8673 21.3384 61.9625 21.2719 62.0431L15.8715 57.5894C15.1665 58.4442 14.7486 59.4401 14.5922 60.4865L21.5153 61.5211ZM21.3143 61.9907C21.3046 62.0029 21.3005 62.0054 21.308 61.999C21.3161 61.9921 21.3402 61.9728 21.3877 61.945L17.8465 55.9068C17.0917 56.3494 16.4005 56.9212 15.8291 57.6418L21.3143 61.9907ZM21.4611 61.9007C21.675 61.7681 21.9491 61.6279 22.2965 61.4893L19.7033 54.9873C19.0275 55.2569 18.3797 55.575 17.773 55.9511L21.4611 61.9007ZM22.2998 61.488C22.6748 61.3379 23.057 61.1955 23.4464 61.0607L21.1569 54.4457C20.6647 54.6161 20.1791 54.797 19.7 54.9886L22.2998 61.488ZM17.9709 55.4727C18.2928 56.5599 18.6187 57.6547 18.9487 58.7569L25.6547 56.7496C25.3267 55.654 25.0028 54.566 24.683 53.4856L17.9709 55.4727ZM20.1119 51.1968C19.8854 51.2806 19.6507 51.3636 19.4075 51.4455L21.6427 58.079C21.9483 57.9761 22.2482 57.8702 22.542 57.7614L20.1119 51.1968ZM19.4075 51.4455C18.8655 51.6281 18.2874 51.8001 17.6719 51.9603L19.4356 58.7345C20.1977 58.5361 20.9338 58.3179 21.6427 58.079L19.4075 51.4455ZM15.4153 56.8966C15.7574 57.5897 16.1218 58.2552 16.5094 58.8917L22.4877 55.2502C22.2141 54.801 21.9486 54.3175 21.6922 53.7982L15.4153 56.8966ZM17.7596 54.0335L15.6764 55.2261L19.1543 61.301L21.2375 60.1084L17.7596 54.0335ZM20.335 56.3335C19.9694 55.7803 19.6202 55.1512 19.2926 54.4386L12.9327 57.3631C13.395 58.3683 13.9143 59.3143 14.4956 60.1937L20.335 56.3335ZM15.4565 52.4629C14.9577 52.5581 14.4331 52.6567 13.8825 52.7587L15.1572 59.6416C15.7191 59.5376 16.2564 59.4366 16.7689 59.3388L15.4565 52.4629ZM13.8741 52.7602C13.3311 52.8622 12.7545 52.9648 12.144 53.0681L13.3117 59.97C13.9592 59.8605 14.5772 59.7505 15.1656 59.6401L13.8741 52.7602ZM16.1292 55.6938L15.5186 53.177L8.71593 54.8275L9.32655 57.3443L16.1292 55.6938ZM12.4604 57.4854C13.0552 57.4268 13.6456 57.3522 14.2318 57.2614L13.1606 50.3439C12.7037 50.4146 12.2415 50.4731 11.7741 50.5191L12.4604 57.4854ZM14.2204 57.2632C14.7646 57.1807 15.2936 57.0928 15.8073 56.9992L14.5528 50.1126C14.112 50.1929 13.6518 50.2694 13.172 50.3421L14.2204 57.2632ZM18.4968 52.4383C18.3377 51.966 18.2057 51.5324 18.0986 51.1361L11.3409 52.9618C11.4899 53.5134 11.6648 54.0844 11.8633 54.6735L18.4968 52.4383ZM18.0786 51.0648C17.9655 50.6791 17.8865 50.3473 17.8343 50.0656L10.9513 51.3402C11.0537 51.8928 11.1926 52.4584 11.361 53.0331L18.0786 51.0648ZM15.0824 54.1343L17.4099 53.6666L16.0308 46.8038L13.7033 47.2715L15.0824 54.1343ZM13.2981 50.969C13.395 51.4207 13.5143 51.8735 13.6539 52.3268L20.3439 50.2669C20.2598 49.9935 20.1934 49.7386 20.1426 49.5014L13.2981 50.969ZM13.6267 52.2338C13.7431 52.653 13.872 53.0718 14.013 53.4901L20.6465 51.2549C20.5448 50.953 20.4531 50.6546 20.3712 50.3599L13.6267 52.2338ZM14.013 53.4901C14.1026 53.7562 14.198 54.0202 14.2992 54.2822L20.8294 51.761C20.7647 51.5934 20.7037 51.4248 20.6465 51.2549L14.013 53.4901ZM18.4064 56.4188C19.1486 56.2348 19.8057 56.0598 20.3687 55.8939L18.3901 49.1793C17.9548 49.3076 17.4018 49.4559 16.7221 49.6244L18.4064 56.4188ZM20.4331 55.8742C20.9296 55.7175 21.3102 55.5952 21.5537 55.5131L19.3185 48.8796C19.145 48.938 18.8212 49.0426 18.3258 49.199L20.4331 55.8742ZM21.5538 55.5131C21.6381 55.4847 21.7212 55.456 21.8027 55.4271L19.4648 48.8291C19.42 48.845 19.3713 48.8618 19.3184 48.8796L21.5538 55.5131ZM16.6823 51.0863C16.8784 51.7593 17.0762 52.4353 17.2755 53.1142L23.992 51.1421C23.7939 50.4675 23.5975 49.796 23.4026 49.1275L16.6823 51.0863ZM20.8666 46.7054C20.8344 46.6976 20.8014 46.6898 20.7676 46.6822L19.2276 53.5107C19.2237 53.5098 19.2206 53.5091 19.2183 53.5085L20.8666 46.7054ZM22.4369 52.6064L22.4695 52.5747L17.5909 47.5549L17.5583 47.5865L22.4369 52.6064ZM14.3044 42.7966C15.0653 45.4942 15.8538 48.2434 16.67 51.044L23.3904 49.0855C22.5796 46.3035 21.7967 43.5738 21.0416 40.8964L14.3044 42.7966ZM15.1535 47.9044C16.2882 47.0237 17.7642 45.9796 19.6007 44.7678L15.7453 38.9252C13.8192 40.1962 12.1848 41.3475 10.8614 42.3747L15.1535 47.9044ZM2.7038 35.735L10.0749 47.05L15.9401 43.2291L8.56903 31.9142L2.7038 35.735ZM11.0989 26.007C8.42467 27.6073 5.91067 29.2738 3.55927 31.0076L7.71357 36.6416C9.87155 35.0504 12.1974 33.5073 14.6934 32.0136L11.0989 26.007ZM19.064 21.5115C16.4195 22.8619 13.7506 24.3694 11.0574 26.0322L14.7348 31.9884C17.2787 30.4179 19.7829 29.0043 22.2474 27.7458L19.064 21.5115ZM26.476 17.923C24.1576 18.9207 21.6694 20.1277 19.0144 21.5374L22.2971 27.7199C24.818 26.3814 27.1323 25.2613 29.243 24.3529L26.476 17.923ZM32.3131 15.5131C30.6821 16.0869 28.7067 16.9074 26.4102 17.9522L29.3089 24.3238C31.5083 23.3232 33.2764 22.5948 34.6363 22.1163L32.3131 15.5131ZM38.6997 13.7234C36.2142 14.2992 34.075 14.8932 32.3131 15.5131L34.6363 22.1163C36.0717 21.6113 37.9424 21.0843 40.2795 20.5429L38.6997 13.7234ZM47.2743 12.6999C44.2824 12.7494 41.4185 13.0868 38.6916 13.7253L40.2876 20.541C42.4863 20.0261 44.8509 19.7409 47.3901 19.6989L47.2743 12.6999ZM56.6492 13.9348C53.5493 12.9843 50.3902 12.5702 47.1879 12.7023L47.4765 19.6964C49.8722 19.5976 52.2403 19.9046 54.597 20.6273L56.6492 13.9348ZM65.6217 19.4311C62.9718 16.8283 59.981 14.9565 56.6492 13.9348L54.597 20.6273C56.7219 21.2788 58.7617 22.505 60.7165 24.425L65.6217 19.4311ZM72.1243 30.1648C70.5667 25.7375 68.4265 22.0617 65.564 19.3757L60.7742 24.4804C62.5832 26.1778 64.2121 28.7676 65.5211 32.488L72.1243 30.1648ZM73.1651 43.7396C74.2224 39.4424 73.7821 34.8767 72.1243 30.1648L65.5211 32.488C66.8388 36.2333 67.0276 39.3855 66.3678 42.0671L73.1651 43.7396ZM69.9258 51.207C71.4027 48.9013 72.4823 46.4175 73.1579 43.7683L66.375 42.0385C65.8848 43.9607 65.1058 45.7541 64.0314 47.4313L69.9258 51.207ZM72.6299 46.61C70.8423 46.0905 68.962 45.835 67.0068 45.8193L66.9504 52.8191C68.3303 52.8302 69.5664 53.0093 70.6763 53.3319L72.6299 46.61ZM80.4134 50.7464C78.19 48.7991 75.5604 47.4284 72.5948 46.6L70.7114 53.3419C72.7626 53.9149 74.436 54.8165 75.8015 56.0123L80.4134 50.7464ZM85.568 57.4039C84.2714 54.8458 82.5507 52.6182 80.4134 50.7464L75.8015 56.0124C77.2531 57.2836 78.4247 58.7939 79.3242 60.5685L85.568 57.4039ZM86.517 59.4936C86.2316 58.7855 85.9152 58.0888 85.568 57.4039L79.3242 60.5685C79.5815 61.0762 79.8149 61.5901 80.0245 62.1103L86.517 59.4936ZM79.9862 57.6542C79.9144 58.6199 79.8453 59.5897 79.7789 60.5639L86.7627 61.0399C86.8281 60.0801 86.8962 59.1247 86.9669 58.1736L79.9862 57.6542ZM81.6984 37.2225C81.0862 43.7006 80.5155 50.5116 79.9862 57.6553L86.967 58.1725C87.4932 51.0713 88.06 44.3076 88.6673 37.8811L81.6984 37.2225ZM80.9852 42.2081C82.2703 41.8233 83.911 41.4103 85.9267 40.9719L84.439 34.1318C82.3183 34.593 80.4912 35.0489 78.9773 35.5023L80.9852 42.2081ZM73.9349 27.1722L76.5568 39.5789L83.4056 38.1315L80.7836 25.7248L73.9349 27.1722ZM84.7556 21.2424C81.8652 21.7389 79.0922 22.3481 76.4384 23.0718L78.2801 29.8252C80.7021 29.1647 83.255 28.6027 85.9408 28.1413L84.7556 21.2424ZM93.2685 20.0019C90.4889 20.2892 87.6351 20.7061 84.7078 21.2509L85.9885 28.1327C88.7432 27.6201 91.4096 27.2314 93.9882 26.9648L93.2685 20.0019ZM100.99 19.3694C98.6142 19.4579 96.0202 19.6725 93.2129 20.0081L94.0438 26.9586C96.7005 26.641 99.1009 26.4446 101.25 26.3645L100.99 19.3694ZM106.933 19.2363C105.301 19.186 103.286 19.2357 100.918 19.3728L101.322 26.3611C103.584 26.2301 105.373 26.1916 106.717 26.233L106.933 19.2363ZM113.156 19.8348C110.779 19.4963 108.696 19.2907 106.933 19.2363L106.717 26.233C108.134 26.2767 109.943 26.4478 112.169 26.7648L113.156 19.8348ZM121.055 21.8543C118.405 20.8793 115.768 20.2005 113.147 19.8336L112.177 26.766C114.26 27.0577 116.413 27.6051 118.638 28.4238L121.055 21.8543ZM128.906 26.1447C126.494 24.2473 123.846 22.8027 120.974 21.8255L118.72 28.4526C120.828 29.1698 122.777 30.2292 124.577 31.6459L128.906 26.1447ZM134.964 34.0776C133.513 30.8734 131.508 28.192 128.906 26.1447L124.577 31.6459C126.187 32.9126 127.538 34.6488 128.587 36.9655L134.964 34.0776ZM137.041 45.7757C137.178 41.3478 136.546 37.367 134.93 34.0052L128.621 37.0379C129.611 39.0977 130.158 41.8811 130.044 45.56L137.041 45.7757ZM133.315 58.1325C135.726 54.6858 136.896 50.4951 137.041 45.7757L130.044 45.56C129.93 49.2552 129.036 52.0369 127.579 54.1203L133.315 58.1325ZM124.543 65.7027C128.093 63.8583 131.03 61.3409 133.298 58.1567L127.596 54.0961C125.998 56.3394 123.924 58.1356 121.315 59.491L124.543 65.7027ZM113.386 69.2818C117.372 68.6226 121.085 67.4427 124.502 65.7234L121.356 59.4703C118.617 60.8481 115.587 61.8227 112.244 62.3756L113.386 69.2818ZM101.899 70.0724C105.677 70.1888 109.507 69.9231 113.386 69.2818L112.244 62.3756C108.792 62.9463 105.417 63.1775 102.114 63.0757L101.899 70.0724ZM95.0957 69.5371C97.2672 69.8221 99.5356 69.9995 101.899 70.0724L102.114 63.0757C99.9623 63.0093 97.927 62.8487 96.0065 62.5966L95.0957 69.5371ZM98.7471 73.4839C98.8207 71.0971 98.9204 68.685 99.0464 66.2476L92.0558 65.8862C91.9273 68.3712 91.8255 70.8318 91.7504 73.2682L98.7471 73.4839ZM98.5431 82.5813C98.5785 79.782 98.6464 76.7498 98.7471 73.4839L91.7504 73.2682C91.6486 76.5698 91.5796 79.6449 91.5436 82.4928L98.5431 82.5813ZM98.6227 89.7103C98.537 87.6815 98.5095 85.3072 98.5431 82.5801L91.5436 82.494C91.509 85.3114 91.5365 87.8177 91.6289 90.0058L98.6227 89.7103ZM82.0845 93.2648L95.1008 93.358L95.1509 86.3581L82.1345 86.265L82.0845 93.2648ZM78.6884 84.6521C78.6351 86.3806 78.6088 88.0854 78.6095 89.7664L85.6095 89.7635C85.6088 88.1575 85.634 86.5256 85.6851 84.8678L78.6884 84.6521ZM78.8304 80.0462L78.6884 84.6521L85.6851 84.8678L85.8271 80.2619L78.8304 80.0462ZM84.8898 82.6752C85.0496 82.425 85.2042 82.1715 85.3537 81.9147L79.3038 78.3935C79.2028 78.567 79.0983 78.7384 78.9902 78.9075L84.8898 82.6752ZM78.8547 88.6633C81.2881 87.1094 83.3033 85.1144 84.8739 82.6998L79.0061 78.883C77.982 80.4573 76.6845 81.7437 75.0873 82.7636L78.8547 88.6633ZM70.621 91.7069C73.6334 91.2357 76.3957 90.2336 78.8547 88.6633L75.0873 82.7636C73.5157 83.7672 71.684 84.4555 69.5392 84.791L70.621 91.7069ZM61.2956 91.254C64.2727 92.0826 67.3966 92.2113 70.621 91.7069L69.5392 84.791C67.1913 85.1583 65.0846 85.0425 63.1726 84.5103L61.2956 91.254ZM53.4788 87.3205C55.8053 89.1748 58.4338 90.4909 61.3322 91.2639L63.1361 84.5003C61.1547 83.9719 59.4006 83.0889 57.8418 81.8465L53.4788 87.3205ZM47.8368 80.7479C49.3048 83.2979 51.1894 85.4956 53.4788 87.3205L57.8418 81.8465C56.246 80.5746 54.9371 79.0511 53.9034 77.2555L47.8368 80.7479ZM44.9309 72.4155C45.3979 75.4009 46.3629 78.1876 47.8368 80.7479L53.9034 77.2555C52.8756 75.4702 52.1865 73.5056 51.8467 71.3337L44.9309 72.4155ZM44.9017 64.215C44.496 66.955 44.5049 69.6925 44.9309 72.4155L51.8467 71.3337C51.5309 69.3143 51.5231 67.2872 51.8262 65.2401L44.9017 64.215ZM45.2826 62.1933C45.1264 62.8625 44.9989 63.5408 44.8998 64.2276L51.828 65.2275C51.899 64.7357 51.9896 64.2547 52.0994 63.7841L45.2826 62.1933ZM46.695 67.5091C47.8207 67.113 48.9384 66.6816 50.0479 66.215L47.3341 59.7624C46.3519 60.1755 45.3645 60.5566 44.3718 60.9059L46.695 67.5091ZM39.7543 69.5849C42.0126 69.0355 44.3265 68.3424 46.695 67.5091L44.3718 60.9059C42.2024 61.6691 40.112 62.2937 38.0997 62.7833L39.7543 69.5849ZM44.7366 72.3982C43.8921 69.9979 43.0639 67.5623 42.2521 65.0915L35.6019 67.2767C36.4286 69.7927 37.2724 72.2743 38.1334 74.7214L44.7366 72.3982ZM48.0309 81.516C46.9899 78.7207 45.8918 75.6817 44.7366 72.3982L38.1334 74.7214C39.3005 78.0386 40.413 81.118 41.4709 83.9589L48.0309 81.516ZM50.8537 88.5776C49.987 86.5908 49.046 84.2391 48.0304 81.5149L41.4714 83.96C42.5184 86.7689 43.5072 89.2436 44.4376 91.3765L50.8537 88.5776ZM35.9214 98.159L48.8851 93.2503L46.4063 86.7039L33.4426 91.6125L35.9214 98.159ZM21.8765 56.8464C20.8249 57.2109 19.7054 57.6851 18.8267 58.3586C18.0281 58.9706 16.3182 60.7073 17.1645 63.2188L23.798 60.9835C23.9151 61.3311 23.9724 61.7252 23.9396 62.1391C23.907 62.5482 23.793 62.8957 23.66 63.166C23.4136 63.6669 23.1085 63.8963 23.0847 63.9146C23.0387 63.9498 23.0845 63.9074 23.2936 63.8079C23.4917 63.7137 23.7772 63.5961 24.1692 63.4602L21.8765 56.8464ZM17.1645 63.2188C17.7168 64.8579 18.9241 65.9228 20.2328 66.5221L23.1475 60.1578C23.1547 60.1611 23.2745 60.2174 23.425 60.3716C23.5855 60.5361 23.7193 60.7498 23.798 60.9835L17.1645 63.2188ZM20.2348 66.5231C21.3018 67.0109 22.4405 67.2559 23.5875 67.3327L24.0557 60.3484C23.5831 60.3167 23.3009 60.228 23.1454 60.1569L20.2348 66.5231ZM24.9392 67.1574L25.2235 67.0616L22.9883 60.428L22.704 60.5238L24.9392 67.1574ZM25.2239 67.0614L25.23 67.0594L22.994 60.4261L22.9878 60.4282L25.2239 67.0614ZM20.453 63.7429C20.5565 64.0839 20.6606 64.4253 20.7652 64.767L27.4587 62.7184C27.3556 62.3815 27.253 62.0449 27.1509 61.7088L20.453 63.7429ZM19.672 61.1641C19.93 62.0196 20.1905 62.8796 20.4533 63.744L27.1506 61.7077C26.8893 60.8482 26.6303 59.9931 26.3737 59.1425L19.672 61.1641ZM25.1265 66.2325C24.9119 66.2847 24.7026 66.3462 24.499 66.4148L26.7343 73.0483C26.7613 73.0392 26.7771 73.0351 26.7823 73.0338L25.1265 66.2325ZM24.499 66.4148C23.1193 66.8797 21.8476 67.8066 21.1044 69.3052L27.3756 72.4153C27.2873 72.5932 27.1557 72.7588 27.0011 72.8856C26.8547 73.0056 26.7441 73.045 26.7343 73.0483L24.499 66.4148ZM21.1044 69.3052C20.3674 70.7912 20.3861 72.3569 20.8531 73.7426L27.4866 71.5074C27.4935 71.5278 27.5294 71.6466 27.5218 71.8395C27.5137 72.0421 27.4605 72.2441 27.3756 72.4152L21.1044 69.3052ZM20.8531 73.7426C21.1966 74.7621 21.8121 75.6487 22.6643 76.3259L27.0193 70.8456C27.1155 70.9221 27.2156 71.024 27.3041 71.1506C27.3924 71.2768 27.4508 71.4012 27.4866 71.5074L20.8531 73.7426ZM22.6072 76.2796C23.3757 76.917 24.2643 77.328 25.2096 77.5226L26.6213 70.6664C26.6769 70.6779 26.753 70.7004 26.8397 70.7414C26.927 70.7828 27.0075 70.8348 27.0764 70.8919L22.6072 76.2796ZM25.2403 77.5288C26.2734 77.7319 27.2928 77.6404 28.2376 77.322L26.0024 70.6884C26.0577 70.6698 26.1437 70.6483 26.2545 70.6401C26.3665 70.6318 26.4814 70.6388 26.5907 70.6603L25.2403 77.5288ZM28.2377 77.322C28.4061 77.2652 28.5723 77.2014 28.736 77.1304L25.9514 70.7081C25.969 70.7005 25.9861 70.694 26.0023 70.6885L28.2377 77.322ZM22.6204 70.6981C23.0777 72.1297 23.5438 73.5678 24.0189 75.0125L30.6686 72.8259C30.1997 71.3999 29.7396 69.9806 29.2885 68.5682L22.6204 70.6981ZM34.8225 36.4713C36.1597 35.8907 37.4564 35.3802 38.7128 34.9382L36.3896 28.3349C34.9644 28.8363 33.5127 29.4087 32.0347 30.0504L34.8225 36.4713ZM30.9067 38.2703C32.2062 37.6443 33.5142 37.0434 34.8309 36.4676L32.0263 30.054C30.6308 30.6643 29.2449 31.3009 27.8685 31.964L30.9067 38.2703ZM35.2524 43.2297C34.295 40.021 33.4727 37.0353 32.7838 34.2708L25.9915 35.9635C26.71 38.8468 27.5616 41.9364 28.5446 45.2311L35.2524 43.2297ZM38.3038 53.1307C37.2335 49.7611 36.2164 46.4608 35.2524 43.2297L28.5446 45.2311C29.5209 48.5033 30.5501 51.8429 31.6322 55.2497L38.3038 53.1307ZM39.8441 49.0251C37.8637 49.7219 35.9415 50.3147 34.077 50.8055L35.859 57.5749C37.9194 57.0325 40.0224 56.383 42.1673 55.6284L39.8441 49.0251ZM52.4042 35.9728C53.2911 38.4937 52.9189 40.4818 51.2821 42.4321C49.4304 44.6384 45.8147 46.9245 39.8441 49.0251L42.1673 55.6284C48.5731 53.3746 53.5956 50.5643 56.644 46.9321C59.9072 43.0439 60.6968 38.4514 59.0074 33.6496L52.4042 35.9728ZM49.1279 33.1444C50.0864 33.313 50.7223 33.6382 51.1743 34.0253C51.6289 34.4146 52.0657 35.0108 52.4042 35.9728L59.0074 33.6496C58.3299 31.7238 57.2634 30.0238 55.7274 28.7084C54.1889 27.3909 52.3469 26.6031 50.3403 26.2502L49.1279 33.1444ZM38.7128 34.9382C43.6968 33.1847 47.0622 32.7811 49.1279 33.1444L50.3403 26.2502C46.4757 25.5705 41.7192 26.4598 36.3896 28.3349L38.7128 34.9382ZM71.4724 76.0244C70.581 76.7338 69.571 77.1796 68.3777 77.3663L69.4596 84.2822C71.823 83.9125 73.9685 82.9841 75.8314 81.5015L71.4724 76.0244ZM73.3093 73.0166C72.8474 74.4989 72.1843 75.4401 71.4324 76.0567L75.8714 81.4692C77.8646 79.8345 79.2008 77.639 79.9923 75.0993L73.3093 73.0166ZM73.4305 67.0919C73.8497 69.7718 73.7224 71.6912 73.3093 73.0166L79.9923 75.0993C80.8327 72.4027 80.8638 69.3174 80.3464 66.0101L73.4305 67.0919ZM71.7072 62.6868C72.4471 63.5637 73.0946 64.9443 73.4305 67.0919L80.3464 66.0101C79.8756 63.0004 78.8523 60.3002 77.0574 58.1728L71.7072 62.6868ZM68.83 60.6865C69.8741 61.0192 70.8274 61.644 71.7072 62.6868L77.0574 58.1728C75.4024 56.2112 73.3627 54.784 70.9553 54.0169L68.83 60.6865ZM65.2219 60.3951C66.421 60.2075 67.6095 60.2976 68.83 60.6865L70.9553 54.0169C68.7243 53.306 66.4384 53.1197 64.14 53.4792L65.2219 60.3951ZM61.9031 61.6056C62.5889 61.0992 63.6357 60.6432 65.2219 60.3951L64.14 53.4792C61.7545 53.8524 59.5633 54.6317 57.7449 55.9745L61.9031 61.6056ZM60.1467 63.698C60.5281 62.8963 61.0923 62.2044 61.9031 61.6056L57.7449 55.9745C56.0514 57.225 54.7237 58.8028 53.8254 60.6911L60.1467 63.698ZM59.3223 66.7551C59.4128 65.6315 59.6879 64.6349 60.1291 63.7344L53.843 60.6547C52.9953 62.385 52.5021 64.2415 52.3449 66.1931L59.3223 66.7551ZM59.4744 70.596C59.2699 69.2885 59.2212 68.0102 59.3223 66.7551L52.3449 66.1931C52.1983 68.0133 52.2715 69.8435 52.5585 71.6778L59.4744 70.596ZM60.5642 73.5475C60.0072 72.6542 59.644 71.6805 59.4744 70.596L52.5585 71.6778C52.871 73.6757 53.5596 75.5436 54.6241 77.251L60.5642 73.5475ZM62.7078 75.9018C61.858 75.2439 61.1414 74.4572 60.5496 73.5244L54.6386 77.2741C55.6591 78.8827 56.9231 80.276 58.4227 81.4369L62.7078 75.9018ZM65.4836 77.2404C64.443 76.9396 63.4969 76.4756 62.6279 75.8417L58.5026 81.497C60.0329 82.6133 61.7176 83.4383 63.5393 83.965L65.4836 77.2404ZM68.3777 77.3663C67.3322 77.5298 66.3582 77.4753 65.4215 77.2231L63.6013 83.9823C65.5177 84.4984 67.4818 84.5916 69.4596 84.2822L68.3777 77.3663ZM106.159 31.8465C104.735 31.8026 103.265 31.812 101.748 31.8735L102.032 38.8677C103.395 38.8125 104.698 38.8048 105.943 38.8431L106.159 31.8465ZM119.186 34.7778C115.984 32.8444 111.473 32.0103 106.159 31.8465L105.943 38.8431C110.891 38.9957 113.93 39.781 115.568 40.7702L119.186 34.7778ZM124.373 44.3837C124.433 42.4364 124.069 40.5479 123.149 38.8374C122.227 37.1238 120.852 35.7834 119.186 34.7778L115.568 40.7702C116.323 41.2258 116.74 41.6997 116.984 42.1534C117.23 42.6101 117.405 43.2419 117.376 44.168L124.373 44.3837ZM101.959 58.1335C108.346 58.3305 113.743 57.5714 117.693 55.3958C121.935 53.059 124.223 49.235 124.373 44.3837L117.376 44.168C117.301 46.6025 116.342 48.148 114.316 49.2643C111.996 50.5419 108.101 51.3196 102.174 51.1369L101.959 58.1335ZM95.7572 57.6998C97.7516 57.9235 99.8191 58.0676 101.959 58.1335L102.174 51.1369C100.209 51.0763 98.3306 50.9446 96.5376 50.7434L95.7572 57.6998ZM93.3445 44.1823C93.0908 47.3801 92.8607 50.6548 92.654 54.0062L99.6408 54.437C99.845 51.1246 100.072 47.8909 100.323 44.7359L93.3445 44.1823ZM94.2494 35.1914C93.9013 37.9635 93.6 40.9612 93.3445 44.1823L100.323 44.7359C100.571 41.6042 100.862 38.714 101.195 36.0632L94.2494 35.1914ZM101.739 31.8739C100.308 31.9356 98.8756 32.0238 97.443 32.1384L98.0012 39.1162C99.3488 39.0083 100.695 38.9254 102.041 38.8674L101.739 31.8739ZM153.973 26.3309L142.218 23.1363L140.382 29.8912L152.138 33.0859L153.973 26.3309ZM154.345 37.6488C155.168 34.8402 155.854 32.5345 156.404 30.7283L149.707 28.6886C149.147 30.5282 148.453 32.8603 147.627 35.6818L154.345 37.6488ZM151.883 46.7914C152.776 43.4222 153.602 40.3563 154.361 37.5931L147.612 35.7375C146.845 38.5259 146.013 41.6134 145.117 44.9995L151.883 46.7914ZM149.201 56.9222C150.106 53.4958 151 50.1196 151.883 46.7936L145.117 44.9973C144.233 48.3263 143.339 51.7054 142.433 55.1346L149.201 56.9222ZM146.669 66.7309C147.455 63.6075 148.299 60.338 149.201 56.9222L142.433 55.1346C141.524 58.5744 140.674 61.8705 139.88 65.0228L146.669 66.7309ZM144.83 74.8065C145.339 72.4724 145.956 69.7635 146.682 66.6778L139.867 65.0759C139.136 68.1874 138.51 70.9343 137.991 73.3147L144.83 74.8065ZM144.42 76.6873L144.83 74.8065L137.991 73.3147L137.581 75.1955L144.42 76.6873ZM144.212 77.9014C144.243 77.601 144.308 77.2008 144.42 76.6873L137.581 75.1954C137.43 75.8856 137.315 76.5497 137.25 77.1739L144.212 77.9014ZM128.153 78.0598L139.898 80.9371L141.564 74.1382L129.818 71.2608L128.153 78.0598ZM126.114 71.0392C125.873 72.1447 125.676 73.1718 125.528 74.1165L132.443 75.2041C132.566 74.4217 132.735 73.532 132.953 72.531L126.114 71.0392ZM126.902 67.4281L126.114 71.0392L132.953 72.531L133.741 68.9199L126.902 67.4281ZM130.006 53.9242C128.84 58.7866 127.805 63.2882 126.902 67.4281L133.741 68.9199C134.632 64.8346 135.656 60.3805 136.813 55.5567L130.006 53.9242ZM133.834 39.2825C132.505 44.1652 131.232 49.0341 130.014 53.8892L136.804 55.5918C138.01 50.7826 139.271 45.959 140.588 41.1209L133.834 39.2825ZM137.965 25.4543C136.61 29.7206 135.236 34.3197 133.843 39.2503L140.579 41.1532C141.955 36.2846 143.307 31.7583 144.636 27.5732L137.965 25.4543ZM122.883 93.7057C124.431 96.2168 126.74 97.8495 129.622 98.4781L131.114 91.639C130.083 91.4142 129.389 90.9206 128.841 90.0323L122.883 93.7057ZM121.586 85.6559C120.97 88.4813 121.364 91.2388 122.881 93.7037L128.843 90.0343C128.343 89.222 128.166 88.3348 128.425 87.1478L121.586 85.6559ZM126.246 78.859C123.775 80.4451 122.211 82.7909 121.586 85.6559L128.425 87.1478C128.675 86.0005 129.199 85.2813 130.027 84.7499L126.246 78.859ZM134.441 77.4695C131.577 76.8449 128.795 77.2869 126.3 78.8251L129.973 84.7838C130.877 84.2263 131.8 84.0582 132.949 84.3087L134.441 77.4695ZM141.139 82.282C139.635 79.7359 137.326 78.0988 134.441 77.4695L132.949 84.3087C133.977 84.5328 134.621 85.0112 135.112 85.8425L141.139 82.282ZM142.428 90.5175C143.063 87.6031 142.668 84.7617 141.105 82.2256L135.146 85.899C135.678 86.7622 135.872 87.727 135.588 89.0256L142.428 90.5175ZM137.801 97.2921C140.304 95.7542 141.807 93.3647 142.428 90.5174L135.588 89.0256C135.312 90.291 134.789 90.9272 134.137 91.3281L137.801 97.2921ZM129.622 98.4781C132.481 99.1019 135.309 98.8239 137.801 97.2921L134.137 91.3281C133.474 91.7351 132.568 91.9561 131.114 91.639L129.622 98.4781Z" fill="black" mask="url(#path-3-outside-1_876_2)"/>
<rect x="44" y="96.0081" width="61.8691" height="14.7089" rx="7.35445" fill="#E50E14"/>
<path d="M49.1347 100.198H52.8531L53.8491 101.194V105.012L52.8531 106.008H49.1347V100.198ZM52.297 105.045L52.7203 104.622V101.584L52.297 101.161H50.2635V105.045H52.297ZM54.849 100.198H59.0488V101.153H55.9778V102.622H58.8081V103.56H55.9778V105.054H59.0488V106.008H54.849V100.198ZM59.426 100.198H60.588L62.0322 104.663H62.0488L63.493 100.198H64.655L62.5883 106.008H61.4927L59.426 100.198ZM65.2808 100.198H69.4806V101.153H66.4096V102.622H69.2399V103.56H66.4096V105.054H69.4806V106.008H65.2808V100.198ZM70.3143 100.198H71.4431V105.054H74.3481V106.008H70.3143V100.198ZM74.7622 105.054V101.153L75.7167 100.198H78.7047L79.6592 101.153V105.054L78.7047 106.008H75.7167L74.7622 105.054ZM78.1071 105.045L78.5304 104.622V101.584L78.1071 101.161H76.3143L75.891 101.584V104.622L76.3143 105.045H78.1071ZM80.6569 100.198H84.3006L85.1887 101.094V103.128L84.2923 104.033H81.7857V106.008H80.6569V100.198ZM83.786 103.086L84.0765 102.796V101.435L83.786 101.144H81.7857V103.086H83.786ZM86.0227 100.198H90.2225V101.153H87.1515V102.622H89.9818V103.56H87.1515V105.054H90.2225V106.008H86.0227V100.198ZM95.6212 104.082V106.008H94.4924V104.34L93.9944 103.784H92.185V106.008H91.0562V100.198H94.6999L95.588 101.094V102.854L95.0236 103.427L95.6212 104.082ZM92.185 102.854H94.1853L94.4758 102.564V101.435L94.1853 101.144H92.185V102.854ZM96.5325 105.112V104.282H97.6447V104.771L97.9186 105.045H99.6367L99.9189 104.763V103.8L99.645 103.526H97.4455L96.5491 102.63V101.094L97.4455 100.198H100.068L100.965 101.094V101.933H99.8525V101.435L99.5786 101.161H97.9352L97.6613 101.435V102.29L97.9352 102.564H100.135L101.031 103.46V105.095L100.118 106.008H97.4289L96.5325 105.112Z" fill="white"/>
<defs>
<linearGradient id="paint0_linear_876_2" x1="72.957" y1="18.6303" x2="84.6062" y2="93.0992" gradientUnits="userSpaceOnUse">
<stop stop-color="#F6B300"/>
<stop offset="1" stop-color="#FCEDA6"/>
</linearGradient>
</defs>
</svg>
