<svg width="460" height="643" viewBox="0 0 460 643" fill="none" xmlns="http://www.w3.org/2000/svg">
<g clip-path="url(#clip0_1180_2)">
<path d="M414 190L460 129H377.5V513H459L414 470V190Z" fill="#424242"/>
<path d="M414 190L460 129H377.5V513H459L414 470V190Z" fill="url(#paint0_linear_1180_2)"/>
<rect x="76" y="129" width="322" height="386" fill="#212121"/>
<rect x="76" y="129" width="322" height="386" fill="url(#paint1_radial_1180_2)"/>
<rect y="513" width="459" height="130" fill="white"/>
<rect x="1" width="459" height="129" fill="white"/>
<rect width="96" height="643" fill="white"/>
<ellipse cx="97" cy="83" rx="97" ry="68" fill="white"/>
<g clip-path="url(#clip1_1180_2)">
<rect width="409" height="76" transform="translate(26 29)" fill="#12274C"/>
<g filter="url(#filter0_d_1180_2)">
<circle cx="397" cy="67" r="38" fill="#EEEEEE"/>
</g>
<g filter="url(#filter1_d_1180_2)">
<path fill-rule="evenodd" clip-rule="evenodd" d="M298.599 35H268.269C263.921 35 260.377 38.5456 260.377 42.892V65.1338H252.764V57.6796H258.631V50.0666H252.764H252.253C248.341 50.0666 245.151 53.2572 245.151 57.1689V57.6796V65.1338V72.7468H252.764H275.482C279.829 72.7468 283.374 69.2013 283.374 64.8548V42.613H298.6V35H298.599ZM298.599 50.0672H285.118V57.6802H291.498C295.409 57.6802 298.6 54.4897 298.6 50.5779V50.0672H298.599ZM271.814 65.1344H267.99V46.5597C267.99 44.3861 269.762 42.613 271.936 42.613H275.761V61.1878C275.761 63.3614 273.988 65.1344 271.814 65.1344Z" fill="#0098DA"/>
<path fill-rule="evenodd" clip-rule="evenodd" d="M235.927 79.6206H245.258V84.3732H235.753V98.4333H231V84.5469C231 81.8334 233.213 79.62 235.927 79.62V79.6206Z" fill="#0098DA"/>
<path fill-rule="evenodd" clip-rule="evenodd" d="M236.842 93.7809H240.825C243.267 93.7809 245.259 91.7892 245.259 89.3466V89.0277H236.842V93.7802V93.7809Z" fill="#0098DA"/>
<path d="M246.688 89.3565H249.238V98.3639H246.688V89.3565ZM251.756 91.8651C251.641 91.7499 251.498 91.6608 251.332 91.6042C251.164 91.545 250.968 91.5151 250.749 91.5151C250.269 91.5151 249.899 91.672 249.635 91.9803C249.372 92.2911 249.238 92.7208 249.238 93.2689L249.058 90.9259C249.307 90.3897 249.63 89.9724 250.027 89.6729C250.421 89.3739 250.856 89.2257 251.333 89.2257C251.706 89.2257 252.047 89.2849 252.352 89.4032C252.654 89.5222 252.92 89.6965 253.145 89.9276L251.756 91.8645L251.756 91.8651Z" fill="#EEEEEE"/>
<path d="M257.727 98.4952C256.904 98.4952 256.204 98.3407 255.621 98.0362C255.04 97.7285 254.599 97.2808 254.294 96.6947C253.991 96.108 253.838 95.3999 253.838 94.5735V93.1074C253.838 92.2897 253.991 91.5909 254.294 91.0105C254.599 90.43 255.04 89.9854 255.621 89.6833C256.204 89.3781 256.903 89.2274 257.727 89.2274C258.547 89.2274 259.249 89.3788 259.83 89.6833C260.414 89.9854 260.855 90.4294 261.157 91.0105C261.463 91.5909 261.613 92.2903 261.613 93.1074V94.6003C261.613 95.4205 261.462 96.1224 261.157 96.7034C260.855 97.2839 260.414 97.7285 259.83 98.0362C259.25 98.3414 258.548 98.4952 257.727 98.4952ZM257.718 96.2052C258.197 96.2052 258.571 96.0632 258.837 95.7817C259.104 95.5033 259.237 95.106 259.237 94.5996V93.1068C259.237 92.603 259.104 92.2125 258.837 91.9341C258.571 91.6557 258.197 91.5168 257.718 91.5168C257.244 91.5168 256.873 91.6563 256.61 91.9341C256.346 92.2125 256.216 92.6036 256.216 93.1068V94.5996C256.216 95.106 256.346 95.5027 256.607 95.7817C256.868 96.0632 257.238 96.2052 257.718 96.2052Z" fill="#EEEEEE"/>
<path d="M263.784 89.3565H266.163V98.3639H263.784V89.3565ZM268.992 92.9052C268.992 92.4667 268.864 92.126 268.615 91.8832C268.364 91.6372 268.005 91.5157 267.543 91.5157C267.101 91.5157 266.764 91.6403 266.521 91.8857C266.281 92.1317 266.163 92.4779 266.163 92.9226L265.979 90.9259C266.251 90.3598 266.578 89.9338 266.956 89.6523C267.336 89.3683 267.812 89.2257 268.384 89.2257C269.332 89.2257 270.067 89.5452 270.588 90.1854C271.11 90.825 271.371 91.7287 271.371 92.8958V98.3639H268.992V92.9052H268.992Z" fill="#EEEEEE"/>
<path d="M276.231 98.4081C275.443 98.4081 274.865 98.2069 274.498 97.804C274.131 97.4011 273.947 96.8088 273.947 96.021V86.7351H276.326V95.4318C276.326 95.651 276.37 95.8198 276.456 95.9381C276.542 96.0564 276.669 96.1156 276.837 96.1156H277.427V98.4081H276.23H276.231ZM273.02 89.3558H277.427V91.388H273.02V89.3558Z" fill="#EEEEEE"/>
<path fill-rule="evenodd" clip-rule="evenodd" d="M280.33 98.4343H285.083H289.662C292.375 98.4343 294.589 96.2209 294.589 93.5074V79.6216H289.836V93.6818H285.083V89.0282H288.747V84.2757H285.083H284.765C282.323 84.2757 280.33 86.2674 280.33 88.71V89.0289V93.6824V98.4349V98.4343Z" fill="#0098DA"/>
<path d="M300.183 98.4342C299.315 98.4342 298.572 98.2772 297.955 97.9602C297.339 97.6463 296.871 97.1873 296.545 96.5795C296.222 95.9754 296.059 95.2498 296.059 94.3997V93.3839C296.059 92.4927 296.216 91.731 296.525 91.1002C296.832 90.4693 297.286 89.9897 297.878 89.6609C298.47 89.332 299.187 89.1664 300.025 89.1664C300.813 89.1664 301.485 89.3619 302.048 89.7555C302.608 90.1492 303.034 90.7209 303.327 91.4707C303.621 92.2206 303.766 93.1236 303.766 94.1811V94.7734H297.605V93.1678H301.594L301.571 92.9579C301.505 92.4398 301.343 92.0368 301.079 91.7522C300.815 91.4676 300.466 91.3287 300.024 91.3287C299.452 91.3287 299.008 91.4975 298.691 91.8382C298.377 92.1819 298.22 92.6646 298.22 93.2899V94.4333C298.22 95.0462 298.392 95.5232 298.736 95.8583C299.079 96.1927 299.562 96.3615 300.181 96.3615C300.498 96.3615 300.815 96.3055 301.126 96.1927C301.44 96.08 301.721 95.9168 301.976 95.7094L303.531 97.0902C303.063 97.5168 302.536 97.8487 301.952 98.0823C301.366 98.3164 300.776 98.4348 300.181 98.4348L300.183 98.4342Z" fill="#EEEEEE"/>
<path d="M310.633 89.2955H313L309.617 98.3036H307.932L304.549 89.2955H306.919L308.776 94.9443L310.633 89.2955Z" fill="#EEEEEE"/>
</g>
</g>
<rect width="54" height="430" transform="translate(26 99)" fill="#12274C"/>
<rect width="409" height="100" transform="translate(26 528)" fill="#12274C"/>
<path fill-rule="evenodd" clip-rule="evenodd" d="M96 141C139.078 141 174 114.585 174 82C174 49.4152 139.078 23 96 23C52.9218 23 18 49.4152 18 82C18 102.888 32.3501 121.241 54 131.725V164.5L79.3366 139.651C84.7056 140.534 90.2809 141 96 141Z" fill="white"/>
<path d="M54 131.725H55V131.098L54.4359 130.825L54 131.725ZM54 164.5H53V166.881L54.7002 165.214L54 164.5ZM79.3366 139.651L79.499 138.664L78.9985 138.582L78.6364 138.937L79.3366 139.651ZM173 82C173 97.9107 164.476 112.388 150.551 122.922C136.625 133.456 117.342 140 96 140V142C117.737 142 137.453 135.337 151.758 124.517C166.063 113.696 175 98.6741 175 82H173ZM96 24C117.342 24 136.625 30.5445 150.551 41.0782C164.476 51.6116 173 66.0893 173 82H175C175 65.3259 166.063 50.3036 151.758 39.4832C137.453 28.6631 117.737 22 96 22V24ZM19 82C19 66.0893 27.5235 51.6116 41.4489 41.0782C55.3749 30.5445 74.6583 24 96 24V22C74.2634 22 54.5468 28.6631 40.2424 39.4832C25.9374 50.3036 17 65.3259 17 82H19ZM54.4359 130.825C33.0155 120.452 19 102.391 19 82H17C17 103.385 31.6848 122.029 53.5641 132.625L54.4359 130.825ZM55 164.5V131.725H53V164.5H55ZM78.6364 138.937L53.2998 163.786L54.7002 165.214L80.0368 140.365L78.6364 138.937ZM96 140C90.3351 140 84.8141 139.539 79.499 138.664L79.1742 140.637C84.597 141.53 90.2267 142 96 142V140Z" fill="black"/>
<mask id="path-22-outside-1_1180_2" maskUnits="userSpaceOnUse" x="14.3237" y="17.1567" width="170.569" height="123.063" fill="black">
<rect fill="white" x="14.3237" y="17.1567" width="170.569" height="123.063"/>
<path fill-rule="evenodd" clip-rule="evenodd" d="M50.682 116.878C50.0499 115.246 49.4344 113.579 48.8357 111.877L48.5449 111.051L45.9824 111.914C46.145 112.302 46.3169 112.672 46.4983 113.022C46.6765 113.363 46.8609 113.676 47.0516 113.96L44.8778 115.025C44.6871 114.709 44.4898 114.343 44.2861 113.926C44.0791 113.5 43.8816 113.055 43.6935 112.59C43.1532 112.709 42.6142 112.785 42.0768 112.819C41.5361 112.842 41.0284 112.792 40.5536 112.667C40.0694 112.545 39.6386 112.316 39.2612 111.979C38.8837 111.642 38.5913 111.165 38.3837 110.549C38.1187 109.762 38.0243 108.95 38.1006 108.112L40.5236 107.834C40.4501 108.555 40.482 109.119 40.6193 109.527C40.7662 109.963 41.0247 110.213 41.3949 110.278C41.7556 110.347 42.2235 110.31 42.7986 110.169C42.6357 109.654 42.4965 109.163 42.3811 108.696C42.2531 108.222 42.1553 107.806 42.0877 107.449L44.3961 106.924C44.451 107.275 44.5392 107.678 44.6609 108.133C44.7699 108.582 44.9058 109.048 45.0686 109.531C45.5583 109.387 46.0369 109.242 46.5045 109.095C46.9104 108.967 47.315 108.836 47.7184 108.701L47.094 106.927C46.871 106.293 46.6497 105.66 46.4301 105.029C46.269 105.082 46.1085 105.136 45.9485 105.19C45.2504 105.436 44.5635 105.683 43.8875 105.932C43.1989 106.175 42.5388 106.423 41.9072 106.678L41.0315 104.314C41.3789 104.187 41.7342 104.051 42.0974 103.908C41.6162 103.732 41.1948 103.484 40.8332 103.162C40.459 102.835 40.1841 102.41 40.0084 101.889C39.9414 101.69 39.8836 101.425 39.8351 101.093C39.7866 100.761 39.7886 100.407 39.8411 100.03L42.3344 99.4907C42.2721 99.7755 42.2588 100.065 42.2945 100.359C42.3176 100.647 42.3595 100.88 42.4202 101.06C42.6245 101.667 43.0734 102.091 43.7667 102.332C44.2723 102.507 44.8709 102.568 45.5624 102.517C45.0689 101.078 44.5841 99.6446 44.108 98.2181C43.9967 98.2626 43.8834 98.3043 43.768 98.3432C43.1426 98.5539 42.5278 98.6397 41.9237 98.6006C41.3069 98.5552 40.734 98.4052 40.2051 98.1508C39.673 97.8869 39.2085 97.5264 38.8117 97.0691C38.4055 96.6151 38.097 96.0753 37.8862 95.4499C37.6659 94.796 37.5752 94.1512 37.6143 93.5154C37.6533 92.8797 37.8063 92.2847 38.0733 91.7304C38.3403 91.1761 38.7103 90.6927 39.1833 90.28C39.6531 89.8579 40.2102 89.5383 40.8546 89.3212C40.968 89.2829 41.0803 89.2479 41.1913 89.216C41.0699 88.8291 40.949 88.4427 40.8289 88.0569C40.6946 88.1025 40.5606 88.1479 40.4269 88.1929C39.7352 88.426 39.0418 88.6544 38.3468 88.878C37.6392 89.0954 36.8809 89.3192 36.0721 89.5495L35.2627 87.1472C35.7019 87.0414 36.1442 86.9293 36.5897 86.8109C36.0737 86.626 35.6079 86.3555 35.1925 85.9995C34.7676 85.6467 34.453 85.1671 34.2486 84.5606C34.0474 83.9636 33.9825 83.442 34.0538 82.9959C34.1219 82.5403 34.2945 82.1445 34.5717 81.8084C34.8457 81.4628 35.1941 81.166 35.6171 80.9179C36.0274 80.6636 36.4883 80.4344 36.9999 80.2304C37.4269 80.0596 37.8609 79.8979 38.3017 79.7453C37.9727 78.6464 37.6478 77.555 37.3269 76.4712C37.0668 76.5675 36.7995 76.6619 36.5251 76.7543C35.8997 76.9651 35.2425 77.1601 34.5537 77.3395C34.853 77.9457 35.1679 78.5202 35.4986 79.063L33.4153 80.2557C32.9418 79.5394 32.5076 78.7518 32.1127 77.8929C31.607 77.9894 31.0761 78.0892 30.5199 78.1922C29.9542 78.2984 29.3568 78.4047 28.7279 78.5111L28.1172 75.9943C28.6483 75.942 29.1746 75.8755 29.6962 75.7947C30.2082 75.7172 30.7028 75.6349 31.1801 75.548C31.0012 75.0173 30.8478 74.515 30.7198 74.041C30.5791 73.5608 30.4701 73.1121 30.3928 72.695L32.7203 72.2273C32.7942 72.5717 32.8871 72.9256 32.9989 73.2889C33.0981 73.6459 33.2084 74.0045 33.3297 74.3646C33.4032 74.5825 33.4813 74.7989 33.5643 75.0137C34.2752 74.8374 34.8803 74.6757 35.3794 74.5287C35.8754 74.3721 36.2276 74.2587 36.4361 74.1884C36.5047 74.1653 36.5706 74.1426 36.6338 74.1202C36.4351 73.4435 36.238 72.7697 36.0425 72.099C36.0275 72.0954 36.0126 72.0919 35.9976 72.0885L36.0302 72.0569C35.2167 69.2655 34.431 66.5261 33.673 63.8386C31.7917 65.08 30.2365 66.1777 29.0075 67.1316L21.6364 55.8167C23.8911 54.1541 26.311 52.5494 28.8961 51.0024C31.5146 49.3857 34.1012 47.9252 36.6557 46.6207C39.2437 45.2466 41.645 44.0831 43.8595 43.1301C46.1075 42.1073 47.9793 41.3329 49.4747 40.8068C51.0733 40.2443 53.0783 39.6838 55.4896 39.1252C57.9524 38.5485 60.5666 38.2372 63.3322 38.1914C66.1312 38.076 68.8948 38.4365 71.6231 39.2731C74.3514 40.1097 76.8667 41.6587 79.1691 43.9201C81.5049 46.1118 83.3894 49.2446 84.8227 53.3185C86.3104 57.547 86.625 61.406 85.7664 64.8954C85.1835 67.1812 84.2542 69.3198 82.9786 71.3112C84.6462 71.3247 86.2043 71.5419 87.6531 71.963C90.1615 72.6637 92.313 73.7999 94.1074 75.3714C95.9019 76.943 97.3481 78.8119 98.4461 80.9782C98.7484 81.5746 99.0233 82.1799 99.2708 82.794C99.3367 81.827 99.4053 80.8643 99.4766 79.906C100.004 72.7835 100.573 65.9962 101.183 59.5439C99.1147 59.9937 97.3808 60.4282 95.9812 60.8472L93.3593 48.4406C95.8971 47.7484 98.5601 47.1629 101.348 46.6839C104.189 46.1552 106.949 45.7524 109.628 45.4755C112.36 45.1488 114.858 44.9433 117.12 44.859C119.435 44.725 121.337 44.6809 122.825 44.7267C124.415 44.7758 126.361 44.9641 128.662 45.2919C131.014 45.6212 133.409 46.2343 135.847 47.1311C138.337 47.9783 140.635 49.2303 142.741 50.8874C144.847 52.5444 146.525 54.7531 147.776 57.5136C149.079 60.2244 149.668 63.6065 149.543 67.6599C149.413 71.8672 148.381 75.3534 146.447 78.1185C144.514 80.8322 142.008 82.989 138.929 84.5889C135.851 86.1375 132.48 87.2147 128.815 87.8208C125.15 88.4268 121.547 88.6752 118.007 88.5661C115.749 88.4965 113.597 88.3274 111.551 88.0589C111.424 90.5202 111.323 92.9566 111.249 95.3681C111.148 98.6519 111.079 101.706 111.043 104.529C111.009 107.301 111.037 109.742 111.126 111.85L98.1095 111.757C98.1088 110.114 98.1346 108.445 98.1868 106.752L98.3288 102.146C98.2035 102.361 98.0739 102.574 97.94 102.783C96.6427 104.778 94.9863 106.419 92.971 107.706C90.9557 108.992 88.6587 109.838 86.0801 110.241C83.294 110.677 80.6786 110.555 78.2341 109.874C75.7942 109.223 73.603 108.124 71.6603 106.576C69.7177 105.027 68.1209 103.167 66.8701 100.994C65.6193 98.821 64.7922 96.4453 64.3888 93.8667C64.0179 91.4955 64.0096 89.1132 64.3639 86.7196C64.449 86.1303 64.558 85.5507 64.691 84.9808C63.6452 85.4206 62.5926 85.8269 61.5334 86.1995C59.2644 86.9978 57.0623 87.6567 54.927 88.1762C55.7463 90.6696 56.5823 93.1281 57.435 95.5518C58.5962 98.8522 59.7015 101.911 60.7509 104.73C61.7822 107.496 62.7471 109.909 63.6457 111.969L50.682 116.878ZM39.0229 82.1454C37.1139 82.8071 36.2667 83.4564 36.4813 84.0932C36.6633 84.6334 37.0662 85.0463 37.6901 85.3321C38.3014 85.6115 39.0118 85.7784 39.8216 85.8327L40.1059 85.7369L40.112 85.7348C40.0081 85.3954 39.9048 85.0565 39.8019 84.7179C39.5399 83.856 39.2802 82.9984 39.0229 82.1454ZM41.9544 91.6252C41.8445 91.652 41.7319 91.6848 41.6166 91.7236C40.9628 91.9439 40.5039 92.3202 40.24 92.8523C39.9761 93.3844 39.9527 93.9727 40.1698 94.6171C40.3008 95.0056 40.5247 95.3259 40.8418 95.5778C41.1494 95.8329 41.5073 96.0025 41.9155 96.0866C42.311 96.1644 42.7125 96.1346 43.12 95.9973C43.1961 95.9717 43.2707 95.943 43.3437 95.9113C42.8718 94.4759 42.4086 93.0472 41.9544 91.6252ZM53.5512 53.6286C52.2104 54.1003 50.8362 54.6418 49.4286 55.2529C48.0725 55.8459 46.7255 56.4647 45.3876 57.1092C46.0914 59.9331 46.9283 62.9708 47.8985 66.2225C48.8687 69.4741 49.8918 72.7941 50.968 76.1823C52.9304 75.6657 54.943 75.0445 57.0057 74.3188C69.3821 69.9645 74.2821 64.126 71.7058 56.8033C70.6898 53.9155 68.6992 52.2108 65.7341 51.6893C62.769 51.1679 58.708 51.8143 53.5512 53.6286ZM84.9186 102.816C86.697 102.538 88.2748 101.851 89.6519 100.755C91.0245 99.6294 92.0241 98.061 92.6508 96.05C93.2775 94.039 93.3568 91.5367 92.8885 88.5431C92.4851 85.9644 91.6497 83.924 90.3823 82.4219C89.1149 80.9197 87.6184 79.8936 85.8927 79.3437C84.1669 78.7938 82.4297 78.6557 80.681 78.9292C78.6951 79.2399 77.0761 79.8575 75.824 80.7821C74.5718 81.7068 73.6259 82.8416 72.9861 84.1866C72.3416 85.502 71.9575 86.9286 71.8336 88.4662C71.7098 90.0038 71.7707 91.558 72.0164 93.1289C72.2575 94.6702 72.7834 96.091 73.5941 97.3913C74.4002 98.662 75.3906 99.752 76.5652 100.661C77.7649 101.537 79.0803 102.181 80.5114 102.595C81.938 102.979 83.407 103.053 84.9186 102.816ZM117.89 57.3627C119.33 57.3043 120.717 57.2957 122.051 57.3369C127.182 57.495 130.957 58.3048 133.377 59.766C135.797 61.2273 136.963 63.3946 136.875 66.2679C136.65 73.5538 130.381 77.0069 118.066 76.6273C116.014 76.564 114.041 76.4261 112.147 76.2137C112.353 72.8818 112.582 69.6276 112.834 66.4512C113.086 63.2748 113.382 60.3308 113.722 57.6194C115.112 57.5081 116.501 57.4226 117.89 57.3627ZM157.3 48.5058L169.056 51.7005C168.5 53.5234 167.811 55.8423 166.986 58.6573C166.223 61.4331 165.395 64.5099 164.5 67.8875C163.617 71.215 162.722 74.5927 161.817 78.0205C160.912 81.4483 160.064 84.7311 159.275 87.8689C158.546 90.9675 157.925 93.6954 157.411 96.0527L157 97.9334C156.869 98.5353 156.779 99.0674 156.731 99.5297L144.985 96.6524C145.121 95.7888 145.304 94.8304 145.534 93.7772L146.321 90.1661C147.219 86.0535 148.248 81.5756 149.409 76.7326C150.621 71.9004 151.888 67.0542 153.211 62.1938C154.595 57.2942 155.958 52.7315 157.3 48.5058ZM146.368 117.051C144.412 116.624 142.91 115.561 141.862 113.861C140.853 112.222 140.568 110.4 141.006 108.394C141.443 106.388 142.487 104.855 144.136 103.797C145.836 102.749 147.689 102.444 149.695 102.881C151.651 103.308 153.128 104.366 154.126 106.054C155.173 107.754 155.468 109.657 155.008 111.764C154.56 113.82 153.546 115.333 151.969 116.302C150.391 117.272 148.524 117.521 146.368 117.051Z"/>
</mask>
<path fill-rule="evenodd" clip-rule="evenodd" d="M50.682 116.878C50.0499 115.246 49.4344 113.579 48.8357 111.877L48.5449 111.051L45.9824 111.914C46.145 112.302 46.3169 112.672 46.4983 113.022C46.6765 113.363 46.8609 113.676 47.0516 113.96L44.8778 115.025C44.6871 114.709 44.4898 114.343 44.2861 113.926C44.0791 113.5 43.8816 113.055 43.6935 112.59C43.1532 112.709 42.6142 112.785 42.0768 112.819C41.5361 112.842 41.0284 112.792 40.5536 112.667C40.0694 112.545 39.6386 112.316 39.2612 111.979C38.8837 111.642 38.5913 111.165 38.3837 110.549C38.1187 109.762 38.0243 108.95 38.1006 108.112L40.5236 107.834C40.4501 108.555 40.482 109.119 40.6193 109.527C40.7662 109.963 41.0247 110.213 41.3949 110.278C41.7556 110.347 42.2235 110.31 42.7986 110.169C42.6357 109.654 42.4965 109.163 42.3811 108.696C42.2531 108.222 42.1553 107.806 42.0877 107.449L44.3961 106.924C44.451 107.275 44.5392 107.678 44.6609 108.133C44.7699 108.582 44.9058 109.048 45.0686 109.531C45.5583 109.387 46.0369 109.242 46.5045 109.095C46.9104 108.967 47.315 108.836 47.7184 108.701L47.094 106.927C46.871 106.293 46.6497 105.66 46.4301 105.029C46.269 105.082 46.1085 105.136 45.9485 105.19C45.2504 105.436 44.5635 105.683 43.8875 105.932C43.1989 106.175 42.5388 106.423 41.9072 106.678L41.0315 104.314C41.3789 104.187 41.7342 104.051 42.0974 103.908C41.6162 103.732 41.1948 103.484 40.8332 103.162C40.459 102.835 40.1841 102.41 40.0084 101.889C39.9414 101.69 39.8836 101.425 39.8351 101.093C39.7866 100.761 39.7886 100.407 39.8411 100.03L42.3344 99.4907C42.2721 99.7755 42.2588 100.065 42.2945 100.359C42.3176 100.647 42.3595 100.88 42.4202 101.06C42.6245 101.667 43.0734 102.091 43.7667 102.332C44.2723 102.507 44.8709 102.568 45.5624 102.517C45.0689 101.078 44.5841 99.6446 44.108 98.2181C43.9967 98.2626 43.8834 98.3043 43.768 98.3432C43.1426 98.5539 42.5278 98.6397 41.9237 98.6006C41.3069 98.5552 40.734 98.4052 40.2051 98.1508C39.673 97.8869 39.2085 97.5264 38.8117 97.0691C38.4055 96.6151 38.097 96.0753 37.8862 95.4499C37.6659 94.796 37.5752 94.1512 37.6143 93.5154C37.6533 92.8797 37.8063 92.2847 38.0733 91.7304C38.3403 91.1761 38.7103 90.6927 39.1833 90.28C39.6531 89.8579 40.2102 89.5383 40.8546 89.3212C40.968 89.2829 41.0803 89.2479 41.1913 89.216C41.0699 88.8291 40.949 88.4427 40.8289 88.0569C40.6946 88.1025 40.5606 88.1479 40.4269 88.1929C39.7352 88.426 39.0418 88.6544 38.3468 88.878C37.6392 89.0954 36.8809 89.3192 36.0721 89.5495L35.2627 87.1472C35.7019 87.0414 36.1442 86.9293 36.5897 86.8109C36.0737 86.626 35.6079 86.3555 35.1925 85.9995C34.7676 85.6467 34.453 85.1671 34.2486 84.5606C34.0474 83.9636 33.9825 83.442 34.0538 82.9959C34.1219 82.5403 34.2945 82.1445 34.5717 81.8084C34.8457 81.4628 35.1941 81.166 35.6171 80.9179C36.0274 80.6636 36.4883 80.4344 36.9999 80.2304C37.4269 80.0596 37.8609 79.8979 38.3017 79.7453C37.9727 78.6464 37.6478 77.555 37.3269 76.4712C37.0668 76.5675 36.7995 76.6619 36.5251 76.7543C35.8997 76.9651 35.2425 77.1601 34.5537 77.3395C34.853 77.9457 35.1679 78.5202 35.4986 79.063L33.4153 80.2557C32.9418 79.5394 32.5076 78.7518 32.1127 77.8929C31.607 77.9894 31.0761 78.0892 30.5199 78.1922C29.9542 78.2984 29.3568 78.4047 28.7279 78.5111L28.1172 75.9943C28.6483 75.942 29.1746 75.8755 29.6962 75.7947C30.2082 75.7172 30.7028 75.6349 31.1801 75.548C31.0012 75.0173 30.8478 74.515 30.7198 74.041C30.5791 73.5608 30.4701 73.1121 30.3928 72.695L32.7203 72.2273C32.7942 72.5717 32.8871 72.9256 32.9989 73.2889C33.0981 73.6459 33.2084 74.0045 33.3297 74.3646C33.4032 74.5825 33.4813 74.7989 33.5643 75.0137C34.2752 74.8374 34.8803 74.6757 35.3794 74.5287C35.8754 74.3721 36.2276 74.2587 36.4361 74.1884C36.5047 74.1653 36.5706 74.1426 36.6338 74.1202C36.4351 73.4435 36.238 72.7697 36.0425 72.099C36.0275 72.0954 36.0126 72.0919 35.9976 72.0885L36.0302 72.0569C35.2167 69.2655 34.431 66.5261 33.673 63.8386C31.7917 65.08 30.2365 66.1777 29.0075 67.1316L21.6364 55.8167C23.8911 54.1541 26.311 52.5494 28.8961 51.0024C31.5146 49.3857 34.1012 47.9252 36.6557 46.6207C39.2437 45.2466 41.645 44.0831 43.8595 43.1301C46.1075 42.1073 47.9793 41.3329 49.4747 40.8068C51.0733 40.2443 53.0783 39.6838 55.4896 39.1252C57.9524 38.5485 60.5666 38.2372 63.3322 38.1914C66.1312 38.076 68.8948 38.4365 71.6231 39.2731C74.3514 40.1097 76.8667 41.6587 79.1691 43.9201C81.5049 46.1118 83.3894 49.2446 84.8227 53.3185C86.3104 57.547 86.625 61.406 85.7664 64.8954C85.1835 67.1812 84.2542 69.3198 82.9786 71.3112C84.6462 71.3247 86.2043 71.5419 87.6531 71.963C90.1615 72.6637 92.313 73.7999 94.1074 75.3714C95.9019 76.943 97.3481 78.8119 98.4461 80.9782C98.7484 81.5746 99.0233 82.1799 99.2708 82.794C99.3367 81.827 99.4053 80.8643 99.4766 79.906C100.004 72.7835 100.573 65.9962 101.183 59.5439C99.1147 59.9937 97.3808 60.4282 95.9812 60.8472L93.3593 48.4406C95.8971 47.7484 98.5601 47.1629 101.348 46.6839C104.189 46.1552 106.949 45.7524 109.628 45.4755C112.36 45.1488 114.858 44.9433 117.12 44.859C119.435 44.725 121.337 44.6809 122.825 44.7267C124.415 44.7758 126.361 44.9641 128.662 45.2919C131.014 45.6212 133.409 46.2343 135.847 47.1311C138.337 47.9783 140.635 49.2303 142.741 50.8874C144.847 52.5444 146.525 54.7531 147.776 57.5136C149.079 60.2244 149.668 63.6065 149.543 67.6599C149.413 71.8672 148.381 75.3534 146.447 78.1185C144.514 80.8322 142.008 82.989 138.929 84.5889C135.851 86.1375 132.48 87.2147 128.815 87.8208C125.15 88.4268 121.547 88.6752 118.007 88.5661C115.749 88.4965 113.597 88.3274 111.551 88.0589C111.424 90.5202 111.323 92.9566 111.249 95.3681C111.148 98.6519 111.079 101.706 111.043 104.529C111.009 107.301 111.037 109.742 111.126 111.85L98.1095 111.757C98.1088 110.114 98.1346 108.445 98.1868 106.752L98.3288 102.146C98.2035 102.361 98.0739 102.574 97.94 102.783C96.6427 104.778 94.9863 106.419 92.971 107.706C90.9557 108.992 88.6587 109.838 86.0801 110.241C83.294 110.677 80.6786 110.555 78.2341 109.874C75.7942 109.223 73.603 108.124 71.6603 106.576C69.7177 105.027 68.1209 103.167 66.8701 100.994C65.6193 98.821 64.7922 96.4453 64.3888 93.8667C64.0179 91.4955 64.0096 89.1132 64.3639 86.7196C64.449 86.1303 64.558 85.5507 64.691 84.9808C63.6452 85.4206 62.5926 85.8269 61.5334 86.1995C59.2644 86.9978 57.0623 87.6567 54.927 88.1762C55.7463 90.6696 56.5823 93.1281 57.435 95.5518C58.5962 98.8522 59.7015 101.911 60.7509 104.73C61.7822 107.496 62.7471 109.909 63.6457 111.969L50.682 116.878ZM39.0229 82.1454C37.1139 82.8071 36.2667 83.4564 36.4813 84.0932C36.6633 84.6334 37.0662 85.0463 37.6901 85.3321C38.3014 85.6115 39.0118 85.7784 39.8216 85.8327L40.1059 85.7369L40.112 85.7348C40.0081 85.3954 39.9048 85.0565 39.8019 84.7179C39.5399 83.856 39.2802 82.9984 39.0229 82.1454ZM41.9544 91.6252C41.8445 91.652 41.7319 91.6848 41.6166 91.7236C40.9628 91.9439 40.5039 92.3202 40.24 92.8523C39.9761 93.3844 39.9527 93.9727 40.1698 94.6171C40.3008 95.0056 40.5247 95.3259 40.8418 95.5778C41.1494 95.8329 41.5073 96.0025 41.9155 96.0866C42.311 96.1644 42.7125 96.1346 43.12 95.9973C43.1961 95.9717 43.2707 95.943 43.3437 95.9113C42.8718 94.4759 42.4086 93.0472 41.9544 91.6252ZM53.5512 53.6286C52.2104 54.1003 50.8362 54.6418 49.4286 55.2529C48.0725 55.8459 46.7255 56.4647 45.3876 57.1092C46.0914 59.9331 46.9283 62.9708 47.8985 66.2225C48.8687 69.4741 49.8918 72.7941 50.968 76.1823C52.9304 75.6657 54.943 75.0445 57.0057 74.3188C69.3821 69.9645 74.2821 64.126 71.7058 56.8033C70.6898 53.9155 68.6992 52.2108 65.7341 51.6893C62.769 51.1679 58.708 51.8143 53.5512 53.6286ZM84.9186 102.816C86.697 102.538 88.2748 101.851 89.6519 100.755C91.0245 99.6294 92.0241 98.061 92.6508 96.05C93.2775 94.039 93.3568 91.5367 92.8885 88.5431C92.4851 85.9644 91.6497 83.924 90.3823 82.4219C89.1149 80.9197 87.6184 79.8936 85.8927 79.3437C84.1669 78.7938 82.4297 78.6557 80.681 78.9292C78.6951 79.2399 77.0761 79.8575 75.824 80.7821C74.5718 81.7068 73.6259 82.8416 72.9861 84.1866C72.3416 85.502 71.9575 86.9286 71.8336 88.4662C71.7098 90.0038 71.7707 91.558 72.0164 93.1289C72.2575 94.6702 72.7834 96.091 73.5941 97.3913C74.4002 98.662 75.3906 99.752 76.5652 100.661C77.7649 101.537 79.0803 102.181 80.5114 102.595C81.938 102.979 83.407 103.053 84.9186 102.816ZM117.89 57.3627C119.33 57.3043 120.717 57.2957 122.051 57.3369C127.182 57.495 130.957 58.3048 133.377 59.766C135.797 61.2273 136.963 63.3946 136.875 66.2679C136.65 73.5538 130.381 77.0069 118.066 76.6273C116.014 76.564 114.041 76.4261 112.147 76.2137C112.353 72.8818 112.582 69.6276 112.834 66.4512C113.086 63.2748 113.382 60.3308 113.722 57.6194C115.112 57.5081 116.501 57.4226 117.89 57.3627ZM157.3 48.5058L169.056 51.7005C168.5 53.5234 167.811 55.8423 166.986 58.6573C166.223 61.4331 165.395 64.5099 164.5 67.8875C163.617 71.215 162.722 74.5927 161.817 78.0205C160.912 81.4483 160.064 84.7311 159.275 87.8689C158.546 90.9675 157.925 93.6954 157.411 96.0527L157 97.9334C156.869 98.5353 156.779 99.0674 156.731 99.5297L144.985 96.6524C145.121 95.7888 145.304 94.8304 145.534 93.7772L146.321 90.1661C147.219 86.0535 148.248 81.5756 149.409 76.7326C150.621 71.9004 151.888 67.0542 153.211 62.1938C154.595 57.2942 155.958 52.7315 157.3 48.5058ZM146.368 117.051C144.412 116.624 142.91 115.561 141.862 113.861C140.853 112.222 140.568 110.4 141.006 108.394C141.443 106.388 142.487 104.855 144.136 103.797C145.836 102.749 147.689 102.444 149.695 102.881C151.651 103.308 153.128 104.366 154.126 106.054C155.173 107.754 155.468 109.657 155.008 111.764C154.56 113.82 153.546 115.333 151.969 116.302C150.391 117.272 148.524 117.521 146.368 117.051Z" fill="url(#paint2_linear_1180_2)"/>
<path d="M48.8357 111.877L52.1373 110.716L48.8357 111.877ZM50.682 116.878L47.4183 118.142L48.6729 121.381L51.9214 120.151L50.682 116.878ZM48.5449 111.051L51.8465 109.889L50.7003 106.631L47.4273 107.734L48.5449 111.051ZM45.9824 111.914L44.8648 108.597L41.3027 109.798L42.7537 113.265L45.9824 111.914ZM46.4983 113.022L43.39 114.631L43.3964 114.644L46.4983 113.022ZM47.0516 113.96L48.5913 117.103L52.193 115.339L49.9574 112.009L47.0516 113.96ZM44.8778 115.025L41.8825 116.835L43.54 119.577L46.4176 118.168L44.8778 115.025ZM44.2861 113.926L41.1375 115.455L41.1417 115.463L44.2861 113.926ZM43.6935 112.59L46.9374 111.276L45.8279 108.538L42.9422 109.172L43.6935 112.59ZM42.0768 112.819L42.2314 116.315L42.2625 116.314L42.2937 116.312L42.0768 112.819ZM40.5536 112.667L41.4444 109.282L41.4258 109.277L41.407 109.273L40.5536 112.667ZM39.2612 111.979L36.9295 114.589L36.9295 114.589L39.2612 111.979ZM38.3837 110.549L35.0669 111.667L35.0669 111.667L38.3837 110.549ZM38.1006 108.112L37.7013 104.635L34.8732 104.959L34.6151 107.794L38.1006 108.112ZM40.5236 107.834L44.0056 108.189L44.447 103.86L40.1243 104.356L40.5236 107.834ZM40.6193 109.527L37.3025 110.644L37.3025 110.644L40.6193 109.527ZM41.3949 110.278L42.0469 106.84L42.0245 106.835L42.002 106.831L41.3949 110.278ZM42.7986 110.169L43.6321 113.569L47.2637 112.678L46.1355 109.113L42.7986 110.169ZM42.3811 108.696L45.7792 107.857L45.77 107.82L45.76 107.783L42.3811 108.696ZM42.0877 107.449L41.3121 104.036L38.0213 104.784L38.6487 108.1L42.0877 107.449ZM44.3961 106.924L47.854 106.383L47.2746 102.681L43.6205 103.511L44.3961 106.924ZM44.6609 108.133L48.062 107.307L48.0525 107.268L48.0421 107.229L44.6609 108.133ZM45.0686 109.531L41.7519 110.649L42.8265 113.838L46.0554 112.889L45.0686 109.531ZM46.5045 109.095L45.4562 105.755L45.4548 105.756L46.5045 109.095ZM47.7184 108.701L48.8281 112.021L52.2 110.894L51.02 107.54L47.7184 108.701ZM47.094 106.927L43.7924 108.088L43.7924 108.088L47.094 106.927ZM46.4301 105.029L49.7356 103.879L48.6025 100.622L45.3295 101.707L46.4301 105.029ZM45.9485 105.19L44.8309 101.873L44.8085 101.881L44.7862 101.889L45.9485 105.19ZM43.8875 105.932L45.0505 109.233L45.0737 109.225L45.0968 109.216L43.8875 105.932ZM41.9072 106.678L38.6252 107.894L39.8767 111.273L43.2177 109.924L41.9072 106.678ZM41.0315 104.314L39.8246 101.029L36.5303 102.239L37.7494 105.53L41.0315 104.314ZM42.0974 103.908L43.3834 107.163L51.9538 103.777L43.2966 100.619L42.0974 103.908ZM40.8332 103.162L43.1585 100.546L43.1487 100.538L43.1388 100.529L40.8332 103.162ZM40.0084 101.889L36.6917 103.007L36.6917 103.007L40.0084 101.889ZM39.8351 101.093L43.2983 100.586L39.8351 101.093ZM39.8411 100.03L39.101 96.6092L36.7124 97.126L36.3747 99.5464L39.8411 100.03ZM42.3344 99.4907L45.7535 100.239L46.9177 94.9182L41.5943 96.0698L42.3344 99.4907ZM42.2945 100.359L45.7833 100.079L45.7776 100.008L45.769 99.9364L42.2945 100.359ZM42.4202 101.06L45.7369 99.9429L45.7369 99.9428L42.4202 101.06ZM43.7667 102.332L42.6165 105.638L42.6247 105.641L43.7667 102.332ZM45.5624 102.517L45.8206 106.008L50.3442 105.673L48.8733 101.382L45.5624 102.517ZM44.108 98.2181L47.4279 97.11L46.253 93.5898L42.8076 94.9686L44.108 98.2181ZM43.768 98.3432L44.8856 101.66L44.8857 101.66L43.768 98.3432ZM41.9237 98.6006L41.6666 102.091L41.682 102.092L41.6974 102.093L41.9237 98.6006ZM40.2051 98.1508L38.65 101.286L38.6689 101.296L38.6879 101.305L40.2051 98.1508ZM38.8117 97.0691L41.4552 94.7752L41.4378 94.7551L41.4201 94.7353L38.8117 97.0691ZM37.8862 95.4499L41.203 94.3323L41.203 94.3323L37.8862 95.4499ZM37.6143 93.5154L34.1209 93.3009L34.1209 93.3009L37.6143 93.5154ZM38.0733 91.7304L41.2266 93.2493L41.2266 93.2493L38.0733 91.7304ZM39.1833 90.28L41.4842 92.9175L41.5035 92.9006L41.5225 92.8835L39.1833 90.28ZM40.8546 89.3212L41.9722 92.6379L41.9723 92.6379L40.8546 89.3212ZM41.1913 89.216L42.1582 92.5798L45.605 91.589L44.5306 88.1674L41.1913 89.216ZM40.8289 88.0569L44.1706 87.0163L43.1029 83.5873L39.7026 84.7431L40.8289 88.0569ZM40.4269 88.1929L41.5446 91.5097L41.5446 91.5097L40.4269 88.1929ZM38.3468 88.878L39.3744 92.2238L39.3967 92.2169L39.4189 92.2098L38.3468 88.878ZM36.0721 89.5495L32.7554 90.6671L33.821 93.8297L37.0307 92.9157L36.0721 89.5495ZM35.2627 87.1472L34.4431 83.7445L30.7245 84.6402L31.9459 88.2648L35.2627 87.1472ZM36.5897 86.8109L37.4891 90.1933L48.3483 87.3059L37.7702 83.5159L36.5897 86.8109ZM35.1925 85.9995L37.47 83.3419L37.4493 83.3241L37.4283 83.3067L35.1925 85.9995ZM34.2486 84.5606L30.9319 85.6782L34.2486 84.5606ZM34.0538 82.9959L37.5099 83.5481L37.5127 83.5307L37.5153 83.5132L34.0538 82.9959ZM34.5717 81.8084L37.2719 84.0352L37.2933 84.0092L37.3143 83.9828L34.5717 81.8084ZM35.6171 80.9179L37.3877 83.937L37.4247 83.9153L37.4611 83.8927L35.6171 80.9179ZM36.9999 80.2304L38.2965 83.4813L38.2998 83.48L36.9999 80.2304ZM38.3017 79.7453L39.4464 83.0528L42.6167 81.9556L41.6547 78.7417L38.3017 79.7453ZM37.3269 76.4712L40.683 75.4776L39.6208 71.8899L36.1119 73.1889L37.3269 76.4712ZM36.5251 76.7543L35.4075 73.4376L35.4075 73.4376L36.5251 76.7543ZM34.5537 77.3395L33.6719 73.9524L29.5131 75.0352L31.4153 78.8887L34.5537 77.3395ZM35.4986 79.063L37.2375 82.1004L40.3585 80.3137L38.4877 77.2423L35.4986 79.063ZM33.4153 80.2557L30.4956 82.1858L32.3057 84.9239L35.1543 83.2931L33.4153 80.2557ZM32.1127 77.8929L35.2926 76.4307L34.1479 73.9413L31.4565 74.455L32.1127 77.8929ZM30.5199 78.1922L29.8825 74.7507L29.8741 74.7523L30.5199 78.1922ZM28.7279 78.5111L25.3266 79.3364L26.0956 82.5062L29.3117 81.9621L28.7279 78.5111ZM28.1172 75.9943L27.7741 72.5112L23.7664 72.9061L24.7159 76.8196L28.1172 75.9943ZM29.6962 75.7947L29.172 72.3342L29.1606 72.3359L29.6962 75.7947ZM31.1801 75.548L31.8073 78.9913L35.7892 78.2659L34.4968 74.4303L31.1801 75.548ZM30.7198 74.041L34.0986 73.1282L34.089 73.0924L34.0786 73.0569L30.7198 74.041ZM30.3928 72.695L29.7033 69.2636L26.3236 69.9427L26.9513 73.3323L30.3928 72.695ZM32.7203 72.2273L36.1426 71.4935L35.4182 68.1152L32.0308 68.7959L32.7203 72.2273ZM32.9989 73.2889L36.3712 72.3519L36.3582 72.3052L36.3439 72.2589L32.9989 73.2889ZM33.3297 74.3646L36.6465 73.247L36.6465 73.247L33.3297 74.3646ZM33.5643 75.0137L30.2992 76.2743L31.4108 79.1535L34.4064 78.4108L33.5643 75.0137ZM35.3794 74.5287L36.3687 77.8859L36.401 77.8764L36.4331 77.8663L35.3794 74.5287ZM36.4361 74.1884L37.5537 77.5052L37.5538 77.5052L36.4361 74.1884ZM36.6338 74.1202L37.8027 77.4192L40.9253 76.3128L39.992 73.1341L36.6338 74.1202ZM36.0425 72.099L39.4026 71.1196L38.8357 69.1745L36.8666 68.6974L36.0425 72.099ZM35.9976 72.0885L33.5583 69.5786L28.925 74.0815L35.2276 75.5028L35.9976 72.0885ZM36.0302 72.0569L38.4695 74.5668L39.9795 73.0992L39.3904 71.0776L36.0302 72.0569ZM33.673 63.8386L37.0416 62.8885L35.7419 58.2801L31.7453 60.9173L33.673 63.8386ZM29.0075 67.1316L26.0749 69.0421L28.1501 72.2277L31.1535 69.8965L29.0075 67.1316ZM21.6364 55.8167L19.5593 52.9997L16.901 54.9598L18.7038 57.7271L21.6364 55.8167ZM28.8961 51.0024L30.6934 54.0057L30.7142 53.9933L30.7348 53.9805L28.8961 51.0024ZM36.6557 46.6207L38.2474 49.7379L38.2724 49.7251L38.2971 49.712L36.6557 46.6207ZM43.8595 43.1301L45.243 46.345L45.2761 46.3308L45.3089 46.3159L43.8595 43.1301ZM49.4747 40.8068L50.6363 44.1084L50.6363 44.1084L49.4747 40.8068ZM55.4896 39.1252L56.2795 42.5349L56.2876 42.533L55.4896 39.1252ZM63.3322 38.1914L63.3901 41.691L63.4333 41.6902L63.4765 41.6885L63.3322 38.1914ZM71.6231 39.2731L72.6492 35.9269L72.6492 35.9269L71.6231 39.2731ZM79.1691 43.9201L76.7165 46.4171L76.745 46.4451L76.7742 46.4725L79.1691 43.9201ZM84.8227 53.3185L88.1243 52.1569L88.1243 52.1569L84.8227 53.3185ZM85.7664 64.8954L89.1579 65.7603L89.1615 65.746L89.1651 65.7317L85.7664 64.8954ZM82.9786 71.3112L80.0314 69.4234L76.613 74.76L82.9504 74.8111L82.9786 71.3112ZM87.6531 71.963L86.6763 75.3239L86.6938 75.329L86.7114 75.3339L87.6531 71.963ZM94.1074 75.3714L91.8015 78.0044L91.8015 78.0044L94.1074 75.3714ZM98.4461 80.9782L95.3242 82.5606L95.3242 82.5606L98.4461 80.9782ZM99.2708 82.794L96.0245 84.1023L102.763 83.032L99.2708 82.794ZM99.4766 79.906L102.967 80.1657L102.967 80.1646L99.4766 79.906ZM101.183 59.5439L104.667 59.8732L105.118 55.1062L100.439 56.1239L101.183 59.5439ZM95.9812 60.8472L92.5568 61.5709L93.343 65.2907L96.9852 64.2002L95.9812 60.8472ZM93.3593 48.4406L92.4384 45.0639L89.252 45.9329L89.9349 49.1642L93.3593 48.4406ZM101.348 46.6839L101.941 50.1334L101.965 50.1292L101.989 50.1248L101.348 46.6839ZM109.628 45.4755L109.988 48.9569L110.016 48.954L110.044 48.9507L109.628 45.4755ZM117.12 44.859L117.25 48.3566L117.286 48.3552L117.322 48.3532L117.12 44.859ZM122.825 44.7267L122.933 41.2284L122.825 44.7267ZM128.662 45.2919L128.169 48.7569L128.177 48.7581L128.662 45.2919ZM135.847 47.1311L134.638 50.4158L134.679 50.4308L134.72 50.4447L135.847 47.1311ZM142.741 50.8874L144.906 48.1367L142.741 50.8874ZM147.776 57.5136L144.587 58.9576L144.604 58.994L144.621 59.03L147.776 57.5136ZM149.543 67.6599L153.041 67.7677L149.543 67.6599ZM146.447 78.1185L149.298 80.1487L149.307 80.1367L149.315 80.1246L146.447 78.1185ZM138.929 84.5889L140.502 87.7155L140.522 87.7052L140.543 87.6947L138.929 84.5889ZM118.007 88.5661L118.114 85.0677L118.114 85.0677L118.007 88.5661ZM111.551 88.0589L112.007 84.5887L108.251 84.0959L108.056 87.8782L111.551 88.0589ZM111.249 95.3681L107.75 95.2602L107.75 95.2602L111.249 95.3681ZM111.043 104.529L107.544 104.485L107.544 104.486L111.043 104.529ZM111.126 111.85L111.101 115.35L114.778 115.376L114.623 111.702L111.126 111.85ZM98.1095 111.757L94.6095 111.758L94.611 115.232L98.0845 115.257L98.1095 111.757ZM98.1868 106.752L101.685 106.86L101.685 106.86L98.1868 106.752ZM98.3288 102.146L101.827 102.254L95.3038 100.386L98.3288 102.146ZM97.94 102.783L100.874 104.692L100.882 104.68L100.89 104.667L97.94 102.783ZM78.2341 109.874L79.1726 106.502L79.1544 106.497L79.1361 106.492L78.2341 109.874ZM71.6603 106.576L73.8418 103.839L73.8418 103.839L71.6603 106.576ZM66.8701 100.994L63.8368 102.74L63.8368 102.74L66.8701 100.994ZM64.3639 86.7196L67.8262 87.2322L67.828 87.2195L64.3639 86.7196ZM64.691 84.9808L68.0994 85.7762L69.6587 79.0946L63.3341 81.7545L64.691 84.9808ZM61.5334 86.1995L62.695 89.5012L62.695 89.5012L61.5334 86.1995ZM54.927 88.1762L54.0997 84.7753L50.4196 85.6706L51.6019 89.2687L54.927 88.1762ZM57.435 95.5518L60.7366 94.3902L60.7366 94.3902L57.435 95.5518ZM60.7509 104.73L57.4709 105.951L57.4714 105.952L60.7509 104.73ZM63.6457 111.969L64.8851 115.242L68.324 113.94L66.8537 110.57L63.6457 111.969ZM39.0229 82.1454L42.3737 81.1346L41.3209 77.6444L37.8765 78.8384L39.0229 82.1454ZM36.4813 84.0932L33.1645 85.2108L33.1645 85.2108L36.4813 84.0932ZM37.6901 85.3321L36.2328 88.5142L36.2348 88.5152L37.6901 85.3321ZM39.8216 85.8327L39.5875 89.3248L40.2807 89.3713L40.9392 89.1494L39.8216 85.8327ZM40.1059 85.7369L41.2235 89.0536L41.2239 89.0535L40.1059 85.7369ZM40.112 85.7348L41.23 89.0514L44.4546 87.9644L43.4587 84.7105L40.112 85.7348ZM39.8019 84.7179L43.1509 83.7008L43.1506 83.6998L39.8019 84.7179ZM41.9544 91.6252L45.2885 90.5602L44.2959 87.4529L41.1265 88.2245L41.9544 91.6252ZM41.6166 91.7236L42.7343 95.0404L42.7343 95.0404L41.6166 91.7236ZM40.24 92.8523L37.1044 91.2973L37.1044 91.2973L40.24 92.8523ZM40.1698 94.6171L43.4866 93.4995L40.1698 94.6171ZM40.8418 95.5778L43.0764 92.884L43.0481 92.8605L43.0193 92.8377L40.8418 95.5778ZM41.9155 96.0866L41.2096 99.5147L41.2249 99.5178L41.2403 99.5208L41.9155 96.0866ZM43.12 95.9973L44.2376 99.3141L44.2377 99.314L43.12 95.9973ZM43.3437 95.9113L44.736 99.1225L47.6662 97.852L46.6686 94.818L43.3437 95.9113ZM49.4286 55.2529L48.0347 52.0424L48.0263 52.0461L49.4286 55.2529ZM53.5512 53.6286L52.3896 50.327L53.5512 53.6286ZM45.3876 57.1092L43.8685 53.9561L41.3028 55.1922L41.9915 57.9556L45.3876 57.1092ZM47.8985 66.2225L44.5446 67.2231L44.5446 67.2231L47.8985 66.2225ZM50.968 76.1823L47.6322 77.2418L48.6399 80.4143L51.859 79.567L50.968 76.1823ZM57.0057 74.3188L55.8441 71.0172L57.0057 74.3188ZM71.7058 56.8033L68.4042 57.9649L68.4042 57.9649L71.7058 56.8033ZM65.7341 51.6893L66.3403 48.2423L66.3403 48.2423L65.7341 51.6893ZM89.6519 100.755L91.8314 103.494L91.8515 103.478L91.8714 103.461L89.6519 100.755ZM92.6508 96.05L95.9923 97.0914L95.9923 97.0914L92.6508 96.05ZM85.8927 79.3437L84.83 82.6785L84.83 82.6785L85.8927 79.3437ZM75.824 80.7821L77.9031 83.5977L75.824 80.7821ZM72.9861 84.1866L76.1291 85.7265L76.138 85.7084L76.1467 85.6901L72.9861 84.1866ZM71.8336 88.4662L68.3449 88.1852L68.3449 88.1852L71.8336 88.4662ZM73.5941 97.3913L70.6241 99.243L70.6313 99.2546L70.6386 99.2662L73.5941 97.3913ZM76.5652 100.661L74.4227 103.429L74.4622 103.46L74.5026 103.489L76.5652 100.661ZM80.5114 102.595L79.5393 105.957L79.5702 105.966L79.6013 105.974L80.5114 102.595ZM122.051 57.3369L122.159 53.8385L122.159 53.8385L122.051 57.3369ZM117.89 57.3627L117.748 53.8655L117.739 53.8659L117.89 57.3627ZM133.377 59.766L131.568 62.7622L131.568 62.7622L133.377 59.766ZM136.875 66.2679L133.376 66.16L133.376 66.16L136.875 66.2679ZM118.066 76.6273L118.174 73.1289L118.174 73.1289L118.066 76.6273ZM112.147 76.2137L108.654 75.9983L108.449 79.3207L111.757 79.6919L112.147 76.2137ZM112.834 66.4512L116.323 66.728L112.834 66.4512ZM113.722 57.6194L113.443 54.1305L110.604 54.3576L110.249 57.1834L113.722 57.6194ZM169.056 51.7005L172.404 52.7203L173.455 49.2692L169.973 48.323L169.056 51.7005ZM157.3 48.5058L158.218 45.1283L154.98 44.2483L153.965 47.4464L157.3 48.5058ZM166.986 58.6573L163.627 57.6739L163.619 57.7016L163.612 57.7296L166.986 58.6573ZM164.5 67.8875L167.883 68.7857L167.883 68.7834L164.5 67.8875ZM161.817 78.0205L165.201 78.9142L165.201 78.9142L161.817 78.0205ZM159.275 87.8689L155.88 87.0149L155.874 87.0413L155.867 87.0679L159.275 87.8689ZM157.411 96.0527L153.991 95.3068L157.411 96.0527ZM157 97.9334L160.42 98.6794L160.42 98.6794L157 97.9334ZM156.731 99.5297L155.898 102.929L159.795 103.884L160.212 99.8934L156.731 99.5297ZM144.985 96.6524L141.528 96.1085L141.028 99.2864L144.153 100.052L144.985 96.6524ZM145.534 93.7772L142.114 93.0312L145.534 93.7772ZM146.321 90.1661L149.741 90.912L146.321 90.1661ZM149.409 76.7326L146.014 75.8813L146.01 75.8988L146.006 75.9163L149.409 76.7326ZM153.211 62.1938L149.843 61.2424L149.838 61.2585L149.834 61.2746L153.211 62.1938ZM141.862 113.861L138.881 115.696L138.883 115.698L141.862 113.861ZM146.368 117.051L145.622 120.47L145.622 120.47L146.368 117.051ZM141.006 108.394L144.425 109.14L144.425 109.14L141.006 108.394ZM144.136 103.797L142.3 100.817L142.272 100.834L142.246 100.851L144.136 103.797ZM149.695 102.881L148.949 106.301L148.949 106.301L149.695 102.881ZM154.126 106.054L151.112 107.835L151.129 107.863L151.146 107.891L154.126 106.054ZM155.008 111.764L151.588 111.018L151.588 111.018L155.008 111.764ZM151.969 116.302L153.801 119.284L151.969 116.302ZM45.5341 113.039C46.1446 114.774 46.7726 116.475 47.4183 118.142L53.9458 115.614C53.3272 114.017 52.7243 112.384 52.1373 110.716L45.5341 113.039ZM45.2433 112.212L45.5341 113.039L52.1373 110.716L51.8465 109.889L45.2433 112.212ZM47.4273 107.734L44.8648 108.597L47.1 115.231L49.6625 114.367L47.4273 107.734ZM42.7537 113.265C42.9505 113.735 43.1622 114.191 43.3901 114.631L49.6066 111.413C49.4716 111.153 49.3394 110.87 49.2111 110.563L42.7537 113.265ZM43.3964 114.644C43.6267 115.084 43.8756 115.508 44.1458 115.911L49.9574 112.009C49.8462 111.843 49.7263 111.642 49.6002 111.401L43.3964 114.644ZM45.5119 110.817L43.3381 111.881L46.4176 118.168L48.5913 117.103L45.5119 110.817ZM47.8732 113.214C47.7477 113.006 47.5996 112.735 47.4304 112.389L41.1417 115.463C41.38 115.951 41.6265 116.412 41.8825 116.835L47.8732 113.214ZM47.4346 112.397C47.2637 112.045 47.0978 111.672 46.9374 111.276L40.4497 113.905C40.6655 114.437 40.8946 114.954 41.1375 115.455L47.4346 112.397ZM42.9422 109.172C42.573 109.253 42.2127 109.303 41.8599 109.325L42.2937 116.312C43.0158 116.267 43.7334 116.165 44.4449 116.009L42.9422 109.172ZM41.9222 109.322C41.6979 109.332 41.5454 109.309 41.4444 109.282L39.6628 116.052C40.5114 116.275 41.3743 116.353 42.2314 116.315L41.9222 109.322ZM41.407 109.273C41.4339 109.279 41.4717 109.293 41.5126 109.314C41.5532 109.336 41.5804 109.357 41.5928 109.368L36.9295 114.589C37.723 115.298 38.6593 115.8 39.7002 116.061L41.407 109.273ZM41.5928 109.368C41.683 109.449 41.7284 109.516 41.7417 109.538C41.7533 109.557 41.7334 109.529 41.7005 109.431L35.0669 111.667C35.4142 112.697 35.989 113.749 36.9295 114.589L41.5928 109.368ZM41.7005 109.431C41.5931 109.113 41.5534 108.79 41.5862 108.429L34.6151 107.794C34.4952 109.111 34.6442 110.412 35.0669 111.667L41.7005 109.431ZM38.5 111.589L40.923 111.311L40.1243 104.356L37.7013 104.635L38.5 111.589ZM37.0417 107.478C36.9476 108.401 36.9322 109.545 37.3025 110.644L43.936 108.409C43.9662 108.498 43.9791 108.562 43.9842 108.591C43.9893 108.621 43.9882 108.625 43.9868 108.6C43.9837 108.545 43.9826 108.414 44.0056 108.189L37.0417 107.478ZM37.3025 110.644C37.7499 111.972 38.8536 113.385 40.7879 113.725L42.002 106.831C42.4739 106.914 42.9629 107.144 43.3591 107.528C43.7263 107.884 43.8794 108.241 43.936 108.409L37.3025 110.644ZM40.7429 113.717C41.8067 113.919 42.8341 113.764 43.6321 113.569L41.9651 106.77C41.8935 106.788 41.8392 106.798 41.8008 106.805C41.7621 106.812 41.7444 106.813 41.7456 106.813C41.7465 106.813 41.7728 106.811 41.821 106.813C41.869 106.814 41.9464 106.821 42.0469 106.84L40.7429 113.717ZM46.1355 109.113C45.9926 108.662 45.8745 108.243 45.7792 107.857L38.983 109.534C39.1184 110.083 39.2787 110.647 39.4617 111.225L46.1355 109.113ZM45.76 107.783C45.6478 107.368 45.573 107.043 45.5267 106.798L38.6487 108.1C38.7376 108.569 38.8583 109.076 39.0023 109.608L45.76 107.783ZM42.8633 110.862L45.1716 110.337L43.6205 103.511L41.3121 104.036L42.8633 110.862ZM40.9381 107.466C41.0172 107.971 41.1357 108.499 41.2797 109.037L48.0421 107.229C47.9428 106.858 47.8847 106.58 47.854 106.383L40.9381 107.466ZM41.2598 108.959C41.395 109.516 41.56 110.079 41.7519 110.649L48.3854 108.413C48.2516 108.016 48.1448 107.648 48.062 107.307L41.2598 108.959ZM46.0554 112.889C46.5653 112.739 47.0649 112.587 47.5542 112.434L45.4548 105.756C45.009 105.896 44.5513 106.035 44.0818 106.173L46.0554 112.889ZM47.5528 112.434C47.9792 112.3 48.4043 112.162 48.8281 112.021L46.6087 105.382C46.2257 105.51 45.8415 105.634 45.4562 105.755L47.5528 112.434ZM43.7924 108.088L44.4168 109.863L51.02 107.54L50.3956 105.765L43.7924 108.088ZM43.1245 106.179C43.3455 106.814 43.5681 107.451 43.7924 108.088L50.3956 105.765C50.174 105.135 49.954 104.506 49.7356 103.879L43.1245 106.179ZM45.3295 101.707C45.1627 101.762 44.9965 101.817 44.8309 101.873L47.0661 108.507C47.2204 108.455 47.3753 108.403 47.5306 108.352L45.3295 101.707ZM44.7862 101.889C44.0729 102.14 43.3702 102.393 42.6782 102.648L45.0968 109.216C45.7567 108.973 46.428 108.732 47.1108 108.491L44.7862 101.889ZM42.7246 102.631C41.9899 102.89 41.2805 103.157 40.5968 103.433L43.2177 109.924C43.7972 109.69 44.408 109.459 45.0505 109.233L42.7246 102.631ZM45.1893 105.463L44.3135 103.098L37.7494 105.53L38.6252 107.894L45.1893 105.463ZM42.2383 107.6C42.6136 107.462 42.9954 107.316 43.3834 107.163L40.8114 100.652C40.473 100.786 40.1441 100.912 39.8246 101.029L42.2383 107.6ZM43.2966 100.619C43.205 100.586 43.1713 100.558 43.1585 100.546L38.508 105.778C39.2182 106.41 40.0273 106.878 40.8982 107.196L43.2966 100.619ZM43.1388 100.529C43.1992 100.582 43.2485 100.641 43.2839 100.695C43.3183 100.748 43.3279 100.779 43.3252 100.771L36.6917 103.007C37.0432 104.05 37.6404 105.019 38.5276 105.796L43.1388 100.529ZM43.3252 100.771C43.3428 100.824 43.3436 100.837 43.3347 100.796C43.3264 100.758 43.3134 100.69 43.2983 100.586L36.3719 101.599C36.4351 102.031 36.5301 102.527 36.6917 103.007L43.3252 100.771ZM43.2983 100.586C43.3036 100.623 43.2948 100.605 43.3075 100.514L36.3747 99.5464C36.2823 100.208 36.2695 100.899 36.3719 101.599L43.2983 100.586ZM40.5812 103.451L43.0745 102.912L41.5943 96.0698L39.101 96.6092L40.5812 103.451ZM38.9153 98.7426C38.7675 99.4178 38.7377 100.103 38.8201 100.781L45.769 99.9364C45.7799 100.027 45.7766 100.133 45.7535 100.239L38.9153 98.7426ZM38.8057 100.639C38.8412 101.081 38.9172 101.626 39.1034 102.178L45.7369 99.9428C45.7558 99.9989 45.768 100.043 45.7755 100.074C45.783 100.104 45.7869 100.125 45.7885 100.133C45.7912 100.148 45.7877 100.133 45.7833 100.079L38.8057 100.639ZM39.1034 102.178C39.7068 103.969 41.0719 105.1 42.6166 105.638L44.9168 99.0265C44.9499 99.0379 45.1169 99.1033 45.3131 99.2886C45.5211 99.485 45.663 99.7234 45.7369 99.9429L39.1034 102.178ZM42.6247 105.641C43.6918 106.009 44.7893 106.084 45.8206 106.008L45.3042 99.0267C44.9525 99.0527 44.8528 99.0043 44.9087 99.0236L42.6247 105.641ZM40.788 99.3262C41.2672 100.762 41.755 102.204 42.2516 103.652L48.8733 101.382C48.3828 99.9514 47.901 98.5274 47.4279 97.11L40.788 99.3262ZM42.8076 94.9686C42.7576 94.9886 42.7052 95.0079 42.6504 95.0264L44.8857 101.66C45.0616 101.601 45.2359 101.537 45.4084 101.468L42.8076 94.9686ZM42.6504 95.0264C42.418 95.1047 42.2594 95.115 42.15 95.1079L41.6974 102.093C42.7962 102.164 43.8672 102.003 44.8856 101.66L42.6504 95.0264ZM42.1807 95.11C41.9775 95.0951 41.835 95.051 41.7222 94.9967L38.6879 101.305C39.6331 101.76 40.6362 102.015 41.6666 102.091L42.1807 95.11ZM41.7601 95.0152C41.651 94.9611 41.5544 94.8895 41.4552 94.7752L36.1682 99.363C36.8626 100.163 37.6949 100.813 38.65 101.286L41.7601 95.0152ZM41.4201 94.7353C41.3554 94.6631 41.2751 94.5463 41.203 94.3323L34.5695 96.5675C34.9188 97.6043 35.4555 98.5671 36.2034 99.4029L41.4201 94.7353ZM41.203 94.3323C41.1149 94.0709 41.0986 93.878 41.1077 93.7299L34.1209 93.3009C34.0519 94.4243 34.2169 95.5211 34.5695 96.5675L41.203 94.3323ZM41.1077 93.73C41.1199 93.5306 41.1634 93.3805 41.2266 93.2493L34.9201 90.2115C34.4493 91.1889 34.1867 92.2288 34.1209 93.3009L41.1077 93.73ZM41.2266 93.2493C41.2838 93.1305 41.3606 93.0252 41.4842 92.9175L36.8824 87.6426C36.06 88.3601 35.3968 89.2218 34.9201 90.2115L41.2266 93.2493ZM41.5225 92.8835C41.6114 92.8036 41.7443 92.7147 41.9722 92.6379L39.737 86.0044C38.6761 86.3619 37.6948 86.9122 36.8441 87.6766L41.5225 92.8835ZM41.9723 92.6379C42.0374 92.616 42.0993 92.5967 42.1582 92.5798L40.2245 85.8522C40.0612 85.8991 39.8986 85.9499 39.7369 86.0044L41.9723 92.6379ZM37.4872 89.0975C37.6081 89.486 37.7298 89.875 37.8521 90.2645L44.5306 88.1674C44.4099 87.7832 44.2899 87.3995 44.1706 87.0163L37.4872 89.0975ZM39.7026 84.7431C39.5711 84.7877 39.44 84.8321 39.3093 84.8762L41.5446 91.5097C41.6812 91.4636 41.8181 91.4173 41.9552 91.3707L39.7026 84.7431ZM39.3093 84.8761C38.6327 85.1041 37.9545 85.3275 37.2747 85.5462L39.4189 92.2098C40.1291 91.9813 40.8376 91.7479 41.5446 91.5097L39.3093 84.8761ZM37.3192 85.5323C36.6373 85.7417 35.9023 85.9587 35.1135 86.1833L37.0307 92.9157C37.8596 92.6796 38.641 92.449 39.3744 92.2238L37.3192 85.5323ZM39.3889 88.4319L38.5794 86.0296L31.9459 88.2648L32.7554 90.6671L39.3889 88.4319ZM36.0822 90.5499C36.5487 90.4376 37.0176 90.3187 37.4891 90.1933L35.6903 83.4284C35.2708 83.5399 34.8551 83.6453 34.4431 83.7445L36.0822 90.5499ZM37.7702 83.5159C37.6548 83.4746 37.5609 83.4198 37.47 83.3419L32.9151 88.6572C33.6549 89.2912 34.4926 89.7773 35.4092 90.1058L37.7702 83.5159ZM37.4283 83.3067C37.4934 83.3608 37.5386 83.4161 37.5644 83.4555C37.5885 83.4922 37.5831 83.4955 37.5654 83.443L30.9319 85.6782C31.31 86.8004 31.9574 87.8626 32.9567 88.6923L37.4283 83.3067ZM37.5654 83.443C37.5255 83.3247 37.5206 83.2764 37.5222 83.2892C37.524 83.3037 37.534 83.3973 37.5099 83.5481L30.5976 82.4437C30.4087 83.6263 30.6171 84.7442 30.9319 85.6782L37.5654 83.443ZM37.5153 83.5132C37.507 83.569 37.4869 83.6547 37.4425 83.7565C37.3976 83.8593 37.3384 83.9545 37.2719 84.0352L31.8715 79.5815C31.1665 80.4363 30.7486 81.4322 30.5922 82.4786L37.5153 83.5132ZM37.3143 83.9828C37.3046 83.995 37.3005 83.9974 37.308 83.991C37.3161 83.9842 37.3402 83.9649 37.3877 83.937L33.8465 77.8988C33.0917 78.3415 32.4005 78.9132 31.8291 79.6339L37.3143 83.9828ZM37.4611 83.8927C37.675 83.7601 37.9491 83.6199 38.2965 83.4813L35.7033 76.9794C35.0275 77.2489 34.3797 77.5671 33.773 77.9431L37.4611 83.8927ZM38.2998 83.48C38.6748 83.33 39.057 83.1876 39.4464 83.0528L37.1569 76.4378C36.6647 76.6082 36.1791 76.7891 35.7 76.9807L38.2998 83.48ZM33.9709 77.4648C34.2928 78.552 34.6187 79.6467 34.9487 80.749L41.6547 78.7417C41.3267 77.6461 41.0028 76.5581 40.683 75.4776L33.9709 77.4648ZM36.1119 73.1889C35.8854 73.2727 35.6507 73.3556 35.4075 73.4376L37.6427 80.0711C37.9483 79.9681 38.2482 79.8623 38.542 79.7535L36.1119 73.1889ZM35.4075 73.4376C34.8655 73.6202 34.2874 73.7921 33.6719 73.9524L35.4356 80.7265C36.1977 80.5281 36.9338 80.31 37.6427 80.0711L35.4075 73.4376ZM31.4153 78.8887C31.7574 79.5817 32.1218 80.2473 32.5094 80.8837L38.4877 77.2423C38.2141 76.793 37.9486 76.3096 37.6922 75.7902L31.4153 78.8887ZM33.7596 76.0256L31.6764 77.2182L35.1543 83.2931L37.2375 82.1004L33.7596 76.0256ZM36.335 78.3255C35.9694 77.7724 35.6202 77.1432 35.2926 76.4307L28.9327 79.3551C29.395 80.3603 29.9143 81.3063 30.4956 82.1858L36.335 78.3255ZM31.4565 74.455C30.9577 74.5502 30.4331 74.6488 29.8825 74.7507L31.1572 81.6337C31.7191 81.5296 32.2564 81.4287 32.7689 81.3309L31.4565 74.455ZM29.8741 74.7523C29.3311 74.8542 28.7545 74.9569 28.144 75.0602L29.3117 81.9621C29.9592 81.8525 30.5772 81.7426 31.1656 81.6321L29.8741 74.7523ZM32.1292 77.6859L31.5186 75.1691L24.7159 76.8196L25.3266 79.3364L32.1292 77.6859ZM28.4604 79.4775C29.0552 79.4189 29.6456 79.3443 30.2318 79.2535L29.1606 72.3359C28.7037 72.4067 28.2415 72.4652 27.7741 72.5112L28.4604 79.4775ZM30.2204 79.2552C30.7646 79.1728 31.2936 79.0849 31.8073 78.9913L30.5528 72.1046C30.112 72.1849 29.6518 72.2615 29.172 72.3342L30.2204 79.2552ZM34.4968 74.4303C34.3377 73.9581 34.2057 73.5245 34.0986 73.1282L27.3409 74.9539C27.4899 75.5055 27.6648 76.0765 27.8633 76.6656L34.4968 74.4303ZM34.0786 73.0569C33.9655 72.6712 33.8865 72.3394 33.8343 72.0577L26.9513 73.3323C27.0537 73.8849 27.1926 74.4505 27.361 75.0252L34.0786 73.0569ZM31.0824 76.1264L33.4099 75.6587L32.0308 68.7959L29.7033 69.2636L31.0824 76.1264ZM29.2981 72.9611C29.395 73.4128 29.5143 73.8656 29.6539 74.3189L36.3439 72.2589C36.2598 71.9856 36.1934 71.7307 36.1426 71.4935L29.2981 72.9611ZM29.6267 74.2259C29.7431 74.6451 29.872 75.0639 30.013 75.4822L36.6465 73.247C36.5448 72.945 36.4531 72.6467 36.3712 72.3519L29.6267 74.2259ZM30.013 75.4822C30.1026 75.7482 30.198 76.0123 30.2992 76.2743L36.8294 73.753C36.7647 73.5855 36.7037 73.4168 36.6465 73.247L30.013 75.4822ZM34.4064 78.4108C35.1486 78.2268 35.8057 78.0518 36.3687 77.8859L34.3901 71.1714C33.9548 71.2997 33.4018 71.448 32.7221 71.6165L34.4064 78.4108ZM36.4331 77.8663C36.9296 77.7096 37.3102 77.5872 37.5537 77.5052L35.3185 70.8717C35.145 70.9301 34.8212 71.0346 34.3258 71.191L36.4331 77.8663ZM37.5538 77.5052C37.6381 77.4768 37.7212 77.4481 37.8027 77.4192L35.4648 70.8211C35.42 70.837 35.3713 70.8539 35.3184 70.8717L37.5538 77.5052ZM32.6823 73.0784C32.8784 73.7514 33.0762 74.4273 33.2755 75.1062L39.992 73.1341C39.7939 72.4596 39.5975 71.7881 39.4026 71.1196L32.6823 73.0784ZM36.8666 68.6974C36.8344 68.6896 36.8014 68.6819 36.7676 68.6743L35.2276 75.5028C35.2237 75.5019 35.2206 75.5012 35.2183 75.5006L36.8666 68.6974ZM38.4369 74.5984L38.4695 74.5668L33.5909 69.5469L33.5583 69.5786L38.4369 74.5984ZM30.3044 64.7886C31.0653 67.4863 31.8538 70.2355 32.67 73.0361L39.3904 71.0776C38.5796 68.2956 37.7967 65.5659 37.0416 62.8885L30.3044 64.7886ZM31.1535 69.8965C32.2882 69.0158 33.7642 67.9717 35.6007 66.7599L31.7453 60.9173C29.8192 62.1882 28.1848 63.3396 26.8614 64.3668L31.1535 69.8965ZM18.7038 57.7271L26.0749 69.0421L31.9401 65.2212L24.569 53.9062L18.7038 57.7271ZM27.0989 47.9991C24.4247 49.5994 21.9107 51.2658 19.5593 52.9997L23.7136 58.6336C25.8715 57.0424 28.1974 55.4994 30.6934 54.0057L27.0989 47.9991ZM35.064 43.5036C32.4195 44.854 29.7506 46.3615 27.0574 48.0243L30.7348 53.9805C33.2787 52.4099 35.7829 50.9963 38.2474 49.7379L35.064 43.5036ZM42.476 39.9151C40.1576 40.9128 37.6694 42.1198 35.0144 43.5295L38.2971 49.712C40.818 48.3735 43.1323 47.2533 45.243 46.345L42.476 39.9151ZM48.3131 37.5051C46.6821 38.079 44.7067 38.8995 42.4102 39.9442L45.3089 46.3159C47.5083 45.3152 49.2764 44.5868 50.6363 44.1084L48.3131 37.5051ZM54.6997 35.7155C52.2142 36.2913 50.075 36.8853 48.3131 37.5051L50.6363 44.1084C52.0717 43.6034 53.9424 43.0763 56.2795 42.5349L54.6997 35.7155ZM63.2743 34.6919C60.2824 34.7414 57.4185 35.0788 54.6916 35.7174L56.2876 42.533C58.4863 42.0181 60.8509 41.733 63.3901 41.691L63.2743 34.6919ZM72.6492 35.9269C69.5493 34.9764 66.3902 34.5623 63.1879 34.6944L63.4765 41.6885C65.8722 41.5896 68.2403 41.8967 70.597 42.6193L72.6492 35.9269ZM81.6217 41.4231C78.9718 38.8204 75.981 36.9486 72.6492 35.9269L70.597 42.6193C72.7219 43.2709 74.7617 44.4971 76.7165 46.4171L81.6217 41.4231ZM88.1243 52.1569C86.5667 47.7295 84.4265 44.0537 81.564 41.3678L76.7742 46.4725C78.5832 48.1699 80.2121 50.7596 81.5211 54.4801L88.1243 52.1569ZM89.1651 65.7317C90.2224 61.4345 89.7821 56.8688 88.1243 52.1569L81.5211 54.4801C82.8388 58.2253 83.0276 61.3776 82.3678 64.0592L89.1651 65.7317ZM85.9258 73.1991C87.4027 70.8934 88.4823 68.4096 89.1579 65.7603L82.375 64.0305C81.8848 65.9528 81.1058 67.7461 80.0314 69.4234L85.9258 73.1991ZM88.6299 68.6021C86.8423 68.0825 84.962 67.8271 83.0068 67.8113L82.9504 74.8111C84.3303 74.8222 85.5664 75.0013 86.6763 75.3239L88.6299 68.6021ZM96.4134 72.7384C94.19 70.7912 91.5604 69.4205 88.5948 68.592L86.7114 75.3339C88.7626 75.9069 90.436 76.8086 91.8015 78.0044L96.4134 72.7384ZM101.568 79.3959C100.271 76.8379 98.5507 74.6103 96.4134 72.7384L91.8015 78.0044C93.2531 79.2757 94.4247 80.786 95.3242 82.5606L101.568 79.3959ZM102.517 81.4856C102.232 80.7775 101.915 80.0809 101.568 79.3959L95.3242 82.5606C95.5815 83.0683 95.8149 83.5822 96.0245 84.1023L102.517 81.4856ZM95.9862 79.6463C95.9144 80.6119 95.8453 81.5818 95.7789 82.556L102.763 83.032C102.828 82.0722 102.896 81.1168 102.967 80.1657L95.9862 79.6463ZM97.6984 59.2146C97.0862 65.6926 96.5155 72.5037 95.9862 79.6474L102.967 80.1646C103.493 73.0634 104.06 66.2997 104.667 59.8732L97.6984 59.2146ZM96.9852 64.2002C98.2703 63.8153 99.911 63.4023 101.927 62.9639L100.439 56.1239C98.3183 56.5851 96.4912 57.041 94.9773 57.4943L96.9852 64.2002ZM89.9349 49.1642L92.5568 61.5709L99.4056 60.1236L96.7836 47.7169L89.9349 49.1642ZM100.756 43.2344C97.8652 43.731 95.0922 44.3401 92.4384 45.0639L94.2801 51.8172C96.7021 51.1567 99.255 50.5948 101.941 50.1334L100.756 43.2344ZM109.269 41.994C106.489 42.2813 103.635 42.6982 100.708 43.243L101.989 50.1248C104.743 49.6122 107.41 49.2234 109.988 48.9569L109.269 41.994ZM116.99 41.3614C114.614 41.45 112.02 41.6646 109.213 42.0002L110.044 48.9507C112.701 48.6331 115.101 48.4367 117.25 48.3566L116.99 41.3614ZM122.933 41.2284C121.301 41.1781 119.286 41.2277 116.918 41.3649L117.322 48.3532C119.584 48.2222 121.373 48.1836 122.717 48.2251L122.933 41.2284ZM129.156 41.8268C126.779 41.4884 124.696 41.2828 122.933 41.2284L122.717 48.2251C124.134 48.2688 125.943 48.4399 128.169 48.7569L129.156 41.8268ZM137.055 43.8464C134.405 42.8714 131.768 42.1926 129.147 41.8257L128.177 48.7581C130.26 49.0498 132.413 49.5971 134.638 50.4158L137.055 43.8464ZM144.906 48.1367C142.494 46.2394 139.846 44.7947 136.974 43.8176L134.72 50.4447C136.828 51.1618 138.777 52.2213 140.577 53.638L144.906 48.1367ZM150.964 56.0697C149.513 52.8654 147.508 50.1841 144.906 48.1367L140.577 53.638C142.187 54.9047 143.538 56.6408 144.587 58.9576L150.964 56.0697ZM153.041 67.7677C153.178 63.3398 152.546 59.3591 150.93 55.9973L144.621 59.03C145.611 61.0897 146.158 63.8732 146.044 67.5521L153.041 67.7677ZM149.315 80.1246C151.726 76.6779 152.896 72.4872 153.041 67.7677L146.044 67.5521C145.93 71.2473 145.036 74.029 143.579 76.1123L149.315 80.1246ZM140.543 87.6947C144.093 85.8503 147.03 83.3329 149.298 80.1487L143.596 76.0882C141.998 78.3315 139.924 80.1277 137.315 81.483L140.543 87.6947ZM129.386 91.2739C133.372 90.6147 137.085 89.4348 140.502 87.7155L137.356 81.4623C134.617 82.8402 131.587 83.8148 128.244 84.3677L129.386 91.2739ZM117.899 92.0644C121.677 92.1809 125.507 91.9152 129.386 91.2739L128.244 84.3677C124.792 84.9384 121.417 85.1696 118.114 85.0677L117.899 92.0644ZM111.096 91.5292C113.267 91.8142 115.536 91.9916 117.899 92.0644L118.114 85.0677C115.962 85.0014 113.927 84.8407 112.007 84.5887L111.096 91.5292ZM114.747 95.4759C114.821 93.0892 114.92 90.6771 115.046 88.2396L108.056 87.8782C107.927 90.3632 107.826 92.8239 107.75 95.2602L114.747 95.4759ZM114.543 104.573C114.578 101.774 114.646 98.7418 114.747 95.4759L107.75 95.2602C107.649 98.5619 107.58 101.637 107.544 104.485L114.543 104.573ZM114.623 111.702C114.537 109.674 114.51 107.299 114.543 104.572L107.544 104.486C107.509 107.303 107.536 109.81 107.629 111.998L114.623 111.702ZM98.0845 115.257L111.101 115.35L111.151 108.35L98.1345 108.257L98.0845 115.257ZM94.6884 106.644C94.6351 108.373 94.6088 110.077 94.6095 111.758L101.61 111.756C101.609 110.15 101.634 108.518 101.685 106.86L94.6884 106.644ZM94.8304 102.038L94.6884 106.644L101.685 106.86L101.827 102.254L94.8304 102.038ZM100.89 104.667C101.05 104.417 101.204 104.164 101.354 103.907L95.3038 100.386C95.2028 100.559 95.0983 100.73 94.9902 100.9L100.89 104.667ZM94.8547 110.655C97.2881 109.101 99.3033 107.106 100.874 104.692L95.0061 100.875C93.982 102.449 92.6845 103.736 91.0873 104.756L94.8547 110.655ZM86.621 113.699C89.6334 113.228 92.3957 112.226 94.8547 110.655L91.0873 104.756C89.5157 105.759 87.684 106.448 85.5392 106.783L86.621 113.699ZM77.2956 113.246C80.2727 114.075 83.3966 114.203 86.621 113.699L85.5392 106.783C83.1913 107.15 81.0846 107.035 79.1726 106.502L77.2956 113.246ZM69.4788 109.313C71.8053 111.167 74.4338 112.483 77.3322 113.256L79.1361 106.492C77.1547 105.964 75.4006 105.081 73.8418 103.839L69.4788 109.313ZM63.8368 102.74C65.3048 105.29 67.1894 107.488 69.4788 109.313L73.8418 103.839C72.246 102.567 70.9371 101.043 69.9034 99.2476L63.8368 102.74ZM60.9309 94.4076C61.3979 97.393 62.3629 100.18 63.8368 102.74L69.9034 99.2476C68.8756 97.4623 68.1865 95.4976 67.8467 93.3257L60.9309 94.4076ZM60.9017 86.2071C60.496 88.9471 60.5049 91.6846 60.9309 94.4076L67.8467 93.3257C67.5309 91.3064 67.5231 89.2792 67.8262 87.2322L60.9017 86.2071ZM61.2826 84.1854C61.1264 84.8546 60.9989 85.5328 60.8998 86.2197L67.828 87.2195C67.899 86.7277 67.9896 86.2468 68.0994 85.7762L61.2826 84.1854ZM62.695 89.5012C63.8207 89.1051 64.9384 88.6737 66.0479 88.2071L63.3341 81.7545C62.3519 82.1676 61.3645 82.5487 60.3718 82.8979L62.695 89.5012ZM55.7543 91.577C58.0126 91.0276 60.3265 90.3345 62.695 89.5012L60.3718 82.8979C58.2024 83.6612 56.112 84.2858 54.0997 84.7753L55.7543 91.577ZM60.7366 94.3902C59.8921 91.9899 59.0639 89.5544 58.2521 87.0836L51.6019 89.2687C52.4286 91.7847 53.2724 94.2663 54.1334 96.7134L60.7366 94.3902ZM64.0309 103.508C62.9899 100.713 61.8918 97.6737 60.7366 94.3902L54.1334 96.7134C55.3005 100.031 56.413 103.11 57.4709 105.951L64.0309 103.508ZM66.8537 110.57C65.987 108.583 65.046 106.231 64.0304 103.507L57.4714 105.952C58.5184 108.761 59.5072 111.236 60.4376 113.369L66.8537 110.57ZM51.9214 120.151L64.8851 115.242L62.4063 108.696L49.4426 113.605L51.9214 120.151ZM37.8765 78.8384C36.8249 79.2029 35.7054 79.6772 34.8267 80.3506C34.0281 80.9627 32.3182 82.6994 33.1645 85.2108L39.798 82.9756C39.9151 83.3231 39.9724 83.7173 39.9396 84.1311C39.907 84.5403 39.793 84.8878 39.66 85.1581C39.4136 85.659 39.1085 85.8884 39.0847 85.9066C39.0387 85.9419 39.0845 85.8994 39.2936 85.8C39.4917 85.7058 39.7772 85.5882 40.1692 85.4523L37.8765 78.8384ZM33.1645 85.2108C33.7168 86.8499 34.9241 87.9149 36.2328 88.5142L39.1475 82.1499C39.1547 82.1532 39.2745 82.2095 39.425 82.3637C39.5855 82.5282 39.7193 82.7419 39.798 82.9756L33.1645 85.2108ZM36.2348 88.5152C37.3018 89.003 38.4405 89.2479 39.5875 89.3248L40.0557 82.3405C39.5831 82.3088 39.3009 82.2201 39.1454 82.149L36.2348 88.5152ZM40.9392 89.1494L41.2235 89.0536L38.9883 82.4201L38.704 82.5159L40.9392 89.1494ZM41.2239 89.0535L41.23 89.0514L38.994 82.4182L38.9878 82.4202L41.2239 89.0535ZM36.453 85.735C36.5565 86.076 36.6606 86.4174 36.7652 86.7591L43.4587 84.7105C43.3556 84.3735 43.253 84.037 43.1509 83.7008L36.453 85.735ZM35.672 83.1561C35.93 84.0117 36.1905 84.8717 36.4533 85.7361L43.1506 83.6998C42.8893 82.8402 42.6303 81.9852 42.3737 81.1346L35.672 83.1561ZM41.1265 88.2245C40.9119 88.2768 40.7026 88.3382 40.499 88.4068L42.7343 95.0404C42.7613 95.0313 42.7771 95.0271 42.7823 95.0259L41.1265 88.2245ZM40.499 88.4068C39.1193 88.8718 37.8476 89.7986 37.1044 91.2973L43.3756 94.4073C43.2873 94.5853 43.1557 94.7509 43.0011 94.8776C42.8547 94.9977 42.7441 95.037 42.7343 95.0404L40.499 88.4068ZM37.1044 91.2973C36.3674 92.7832 36.3861 94.349 36.8531 95.7347L43.4866 93.4995C43.4935 93.5198 43.5294 93.6387 43.5218 93.8316C43.5137 94.0341 43.4605 94.2361 43.3756 94.4073L37.1044 91.2973ZM36.8531 95.7347C37.1966 96.7541 37.8121 97.6408 38.6643 98.318L43.0193 92.8377C43.1155 92.9141 43.2156 93.0161 43.3041 93.1426C43.3924 93.2689 43.4508 93.3933 43.4866 93.4995L36.8531 95.7347ZM38.6072 98.2716C39.3757 98.9091 40.2643 99.32 41.2096 99.5147L42.6213 92.6585C42.6769 92.6699 42.753 92.6924 42.8397 92.7335C42.927 92.7749 43.0075 92.8268 43.0764 92.884L38.6072 98.2716ZM41.2403 99.5208C42.2734 99.724 43.2928 99.6324 44.2376 99.3141L42.0024 92.6805C42.0577 92.6619 42.1437 92.6404 42.2545 92.6322C42.3665 92.6239 42.4814 92.6309 42.5907 92.6523L41.2403 99.5208ZM44.2377 99.314C44.4061 99.2573 44.5723 99.1935 44.736 99.1225L41.9514 92.7001C41.969 92.6925 41.9861 92.686 42.0023 92.6805L44.2377 99.314ZM38.6204 92.6902C39.0777 94.1218 39.5438 95.5599 40.0189 97.0046L46.6686 94.818C46.1997 93.3919 45.7396 91.9727 45.2885 90.5602L38.6204 92.6902ZM50.8225 58.4634C52.1597 57.8828 53.4564 57.3722 54.7128 56.9302L52.3896 50.327C50.9644 50.8284 49.5127 51.4007 48.0347 52.0424L50.8225 58.4634ZM46.9067 60.2624C48.2062 59.6364 49.5142 59.0355 50.8309 58.4597L48.0263 52.0461C46.6308 52.6563 45.2449 53.293 43.8685 53.9561L46.9067 60.2624ZM51.2524 65.2218C50.295 62.0131 49.4727 59.0273 48.7838 56.2629L41.9915 57.9556C42.71 60.8388 43.5616 63.9285 44.5446 67.2231L51.2524 65.2218ZM54.3038 75.1228C53.2335 71.7532 52.2164 68.4529 51.2524 65.2218L44.5446 67.2231C45.5209 70.4954 46.5501 73.8349 47.6322 77.2418L54.3038 75.1228ZM55.8441 71.0172C53.8637 71.714 51.9415 72.3068 50.077 72.7976L51.859 79.567C53.9194 79.0246 56.0224 78.3751 58.1673 77.6204L55.8441 71.0172ZM68.4042 57.9649C69.2911 60.4857 68.9189 62.4738 67.2821 64.4242C65.4304 66.6305 61.8147 68.9166 55.8441 71.0172L58.1673 77.6204C64.5731 75.3667 69.5956 72.5564 72.644 68.9242C75.9072 65.036 76.6968 60.4435 75.0074 55.6417L68.4042 57.9649ZM65.1279 55.1364C66.0864 55.305 66.7223 55.6303 67.1743 56.0174C67.6289 56.4067 68.0657 57.0028 68.4042 57.9649L75.0074 55.6417C74.3299 53.7159 73.2634 52.0159 71.7274 50.7005C70.1889 49.3829 68.3469 48.5951 66.3403 48.2423L65.1279 55.1364ZM54.7128 56.9302C59.6968 55.1767 63.0622 54.7732 65.1279 55.1364L66.3403 48.2423C62.4757 47.5626 57.7192 48.4519 52.3896 50.327L54.7128 56.9302ZM87.4724 98.0164C86.581 98.7258 85.571 99.1717 84.3777 99.3584L85.4596 106.274C87.823 105.905 89.9685 104.976 91.8314 103.494L87.4724 98.0164ZM89.3093 95.0086C88.8474 96.4909 88.1843 97.4321 87.4324 98.0487L91.8714 103.461C93.8646 101.827 95.2008 99.6311 95.9923 97.0914L89.3093 95.0086ZM89.4305 89.084C89.8497 91.7639 89.7224 93.6832 89.3093 95.0086L95.9923 97.0914C96.8327 94.3947 96.8638 91.3094 96.3464 88.0021L89.4305 89.084ZM87.7072 84.6788C88.4471 85.5558 89.0946 86.9364 89.4305 89.084L96.3464 88.0021C95.8756 84.9925 94.8523 82.2923 93.0574 80.1649L87.7072 84.6788ZM84.83 82.6785C85.8741 83.0112 86.8274 83.6361 87.7072 84.6788L93.0574 80.1649C91.4024 78.2033 89.3627 76.7761 86.9553 76.009L84.83 82.6785ZM81.2219 82.3872C82.421 82.1996 83.6095 82.2896 84.83 82.6785L86.9553 76.009C84.7243 75.2981 82.4384 75.1118 80.14 75.4713L81.2219 82.3872ZM77.9031 83.5977C78.5889 83.0912 79.6357 82.6353 81.2219 82.3872L80.14 75.4713C77.7545 75.8444 75.5633 76.6238 73.7449 77.9666L77.9031 83.5977ZM76.1467 85.6901C76.5281 84.8884 77.0923 84.1964 77.9031 83.5977L73.7449 77.9666C72.0514 79.2171 70.7237 80.7948 69.8254 82.6832L76.1467 85.6901ZM75.3223 88.7472C75.4128 87.6236 75.6879 86.627 76.1291 85.7265L69.843 82.6468C68.9953 84.3771 68.5021 86.2335 68.3449 88.1852L75.3223 88.7472ZM75.4744 92.588C75.2699 91.2806 75.2212 90.0022 75.3223 88.7472L68.3449 88.1852C68.1983 90.0053 68.2715 91.8355 68.5585 93.6699L75.4744 92.588ZM76.5642 95.5396C76.0072 94.6463 75.644 93.6726 75.4744 92.588L68.5585 93.6699C68.871 95.6678 69.5596 97.5357 70.6241 99.243L76.5642 95.5396ZM78.7078 97.8939C77.858 97.236 77.1414 96.4493 76.5496 95.5165L70.6386 99.2662C71.6591 100.875 72.9231 102.268 74.4227 103.429L78.7078 97.8939ZM81.4836 99.2325C80.443 98.9316 79.4969 98.4677 78.6279 97.8338L74.5026 103.489C76.0329 104.605 77.7176 105.43 79.5393 105.957L81.4836 99.2325ZM84.3777 99.3584C83.3322 99.5219 82.3582 99.4674 81.4215 99.2152L79.6013 105.974C81.5177 106.49 83.4818 106.584 85.4596 106.274L84.3777 99.3584ZM122.159 53.8385C120.735 53.7946 119.265 53.8041 117.748 53.8655L118.032 60.8598C119.395 60.8046 120.698 60.7968 121.943 60.8352L122.159 53.8385ZM135.186 56.7698C131.984 54.8365 127.473 54.0024 122.159 53.8385L121.943 60.8352C126.891 60.9877 129.93 61.773 131.568 62.7622L135.186 56.7698ZM140.373 66.3757C140.433 64.4285 140.069 62.54 139.149 60.8295C138.227 59.1159 136.852 57.7755 135.186 56.7698L131.568 62.7622C132.323 63.2179 132.74 63.6917 132.984 64.1454C133.23 64.6022 133.405 65.234 133.376 66.16L140.373 66.3757ZM117.959 80.1256C124.346 80.3225 129.743 79.5635 133.693 77.3879C137.935 75.051 140.223 71.2271 140.373 66.3757L133.376 66.16C133.301 68.5945 132.342 70.1401 130.316 71.2564C127.996 72.5339 124.101 73.3116 118.174 73.1289L117.959 80.1256ZM111.757 79.6919C113.752 79.9156 115.819 80.0596 117.959 80.1256L118.174 73.1289C116.209 73.0683 114.331 72.9367 112.538 72.7355L111.757 79.6919ZM109.344 66.1744C109.091 69.3722 108.861 72.6469 108.654 75.9983L115.641 76.4291C115.845 73.1167 116.072 69.883 116.323 66.728L109.344 66.1744ZM110.249 57.1834C109.901 59.9556 109.6 62.9533 109.344 66.1744L116.323 66.728C116.571 63.5963 116.862 60.7061 117.195 58.0553L110.249 57.1834ZM117.739 53.8659C116.308 53.9277 114.876 54.0159 113.443 54.1305L114.001 61.1082C115.349 61.0004 116.695 60.9175 118.041 60.8594L117.739 53.8659ZM169.973 48.323L158.218 45.1283L156.382 51.8833L168.138 55.078L169.973 48.323ZM170.345 59.6408C171.168 56.8323 171.854 54.5265 172.404 52.7203L165.707 50.6807C165.147 52.5202 164.453 54.8524 163.627 57.6739L170.345 59.6408ZM167.883 68.7834C168.776 65.4143 169.602 62.3484 170.361 59.5851L163.612 57.7296C162.845 60.5179 162.013 63.6055 161.117 66.9916L167.883 68.7834ZM165.201 78.9142C166.106 75.4878 167 72.1117 167.883 68.7857L161.117 66.9894C160.233 70.3184 159.339 73.6975 158.433 77.1267L165.201 78.9142ZM162.669 88.723C163.455 85.5996 164.299 82.3301 165.201 78.9142L158.433 77.1267C157.524 80.5665 156.674 83.8626 155.88 87.0149L162.669 88.723ZM160.83 96.7986C161.339 94.4645 161.956 91.7556 162.682 88.6699L155.867 87.0679C155.136 90.1795 154.51 92.9264 153.991 95.3068L160.83 96.7986ZM160.42 98.6794L160.83 96.7986L153.991 95.3068L153.581 97.1875L160.42 98.6794ZM160.212 99.8934C160.243 99.593 160.308 99.1929 160.42 98.6794L153.581 97.1875C153.43 97.8777 153.315 98.5417 153.25 99.166L160.212 99.8934ZM144.153 100.052L155.898 102.929L157.564 96.1302L145.818 93.2529L144.153 100.052ZM142.114 93.0312C141.873 94.1367 141.676 95.1638 141.528 96.1085L148.443 97.1962C148.566 96.4138 148.735 95.5241 148.953 94.5231L142.114 93.0312ZM142.902 89.4201L142.114 93.0312L148.953 94.5231L149.741 90.912L142.902 89.4201ZM146.006 75.9163C144.84 80.7786 143.805 85.2802 142.902 89.4201L149.741 90.912C150.632 86.8267 151.656 82.3726 152.813 77.5488L146.006 75.9163ZM149.834 61.2746C148.505 66.1573 147.232 71.0262 146.014 75.8813L152.804 77.5838C154.01 72.7747 155.271 67.9511 156.588 63.113L149.834 61.2746ZM153.965 47.4464C152.61 51.7127 151.236 56.3118 149.843 61.2424L156.579 63.1452C157.955 58.2766 159.307 53.7504 160.636 49.5653L153.965 47.4464ZM138.883 115.698C140.431 118.209 142.74 119.842 145.622 120.47L147.114 113.631C146.083 113.406 145.389 112.913 144.841 112.024L138.883 115.698ZM137.586 107.648C136.97 110.473 137.364 113.231 138.881 115.696L144.843 112.026C144.343 111.214 144.166 110.327 144.425 109.14L137.586 107.648ZM142.246 100.851C139.775 102.437 138.211 104.783 137.586 107.648L144.425 109.14C144.675 107.993 145.199 107.273 146.027 106.742L142.246 100.851ZM150.441 99.4616C147.577 98.8369 144.795 99.279 142.3 100.817L145.973 106.776C146.877 106.218 147.8 106.05 148.949 106.301L150.441 99.4616ZM157.139 104.274C155.635 101.728 153.326 100.091 150.441 99.4616L148.949 106.301C149.977 106.525 150.621 107.003 151.112 107.835L157.139 104.274ZM158.428 112.51C159.063 109.595 158.668 106.754 157.105 104.218L151.146 107.891C151.678 108.754 151.872 109.719 151.588 111.018L158.428 112.51ZM153.801 119.284C156.304 117.746 157.807 115.357 158.428 112.51L151.588 111.018C151.312 112.283 150.789 112.919 150.137 113.32L153.801 119.284ZM145.622 120.47C148.481 121.094 151.309 120.816 153.801 119.284L150.137 113.32C149.474 113.727 148.568 113.948 147.114 113.631L145.622 120.47Z" fill="black" mask="url(#path-22-outside-1_1180_2)"/>
<rect x="60" y="118" width="61.8691" height="14.7089" rx="7.35445" fill="#E50E14"/>
<path d="M65.1347 122.19H68.8531L69.8491 123.186V127.004L68.8531 128H65.1347V122.19ZM68.297 127.037L68.7203 126.614V123.576L68.297 123.153H66.2635V127.037H68.297ZM70.849 122.19H75.0488V123.144H71.9778V124.614H74.8081V125.551H71.9778V127.045H75.0488V128H70.849V122.19ZM75.426 122.19H76.588L78.0322 126.655H78.0488L79.493 122.19H80.655L78.5883 128H77.4927L75.426 122.19ZM81.2808 122.19H85.4806V123.144H82.4096V124.614H85.2399V125.551H82.4096V127.045H85.4806V128H81.2808V122.19ZM86.3143 122.19H87.4431V127.045H90.3481V128H86.3143V122.19ZM90.7622 127.045V123.144L91.7167 122.19H94.7047L95.6592 123.144V127.045L94.7047 128H91.7167L90.7622 127.045ZM94.1071 127.037L94.5304 126.614V123.576L94.1071 123.153H92.3143L91.891 123.576V126.614L92.3143 127.037H94.1071ZM96.6569 122.19H100.301L101.189 123.086V125.12L100.292 126.025H97.7857V128H96.6569V122.19ZM99.786 125.078L100.076 124.788V123.427L99.786 123.136H97.7857V125.078H99.786ZM102.023 122.19H106.222V123.144H103.151V124.614H105.982V125.551H103.151V127.045H106.222V128H102.023V122.19ZM111.621 126.074V128H110.492V126.332L109.994 125.776H108.185V128H107.056V122.19H110.7L111.588 123.086V124.846L111.024 125.419L111.621 126.074ZM108.185 124.846H110.185L110.476 124.555V123.427L110.185 123.136H108.185V124.846ZM112.533 127.104V126.274H113.645V126.763L113.919 127.037H115.637L115.919 126.755V125.792L115.645 125.518H113.446L112.549 124.622V123.086L113.446 122.19H116.068L116.965 123.086V123.925H115.853V123.427L115.579 123.153H113.935L113.661 123.427V124.282L113.935 124.555H116.135L117.031 125.452V127.087L116.118 128H113.429L112.533 127.104Z" fill="white"/>
<path d="M414 190L460 129L459 513L414 470V190Z" fill="#EEEEEE" fill-opacity="0.15"/>
<path d="M414 470L459 513H458L413 470V190H414V470Z" fill="#EEEEEE" fill-opacity="0.5"/>
<path d="M459 129H460L459 513H458L459 129Z" fill="#EEEEEE" fill-opacity="0.25"/>
<path d="M17.088 14.312C16.336 14.312 15.72 14.128 15.24 13.76C14.776 13.392 14.456 12.936 14.28 12.392C14.12 11.832 14.12 11.232 14.28 10.592C14.44 9.952 14.776 9.36 15.288 8.816C15.816 8.256 16.52 7.792 17.4 7.424C18.28 7.056 19.368 6.872 20.664 6.872H35.4C35.64 6.872 35.8 6.936 35.88 7.064C35.96 7.176 35.976 7.328 35.928 7.52C35.88 7.712 35.784 7.912 35.64 8.12C35.496 8.328 35.32 8.528 35.112 8.72C34.92 8.912 34.704 9.072 34.464 9.2C34.24 9.312 34.016 9.368 33.792 9.368C33.584 9.368 33.224 9.344 32.712 9.296C32.2 9.248 31.592 9.184 30.888 9.104C30.2 9.008 29.44 8.912 28.608 8.816C27.792 8.72 26.968 8.624 26.136 8.528C25.864 8.896 25.512 9.376 25.08 9.968C24.664 10.56 24.224 11.192 23.76 11.864C23.296 12.52 22.832 13.168 22.368 13.808C21.92 14.432 21.544 14.968 21.24 15.416H22.536C23.064 15.416 23.512 15.488 23.88 15.632C24.264 15.776 24.544 15.936 24.72 16.112C24.896 16.272 24.952 16.424 24.888 16.568C24.84 16.712 24.656 16.784 24.336 16.784H20.328C19.608 17.856 18.912 18.784 18.24 19.568C17.568 20.352 16.888 21.008 16.2 21.536C15.512 22.048 14.784 22.432 14.016 22.688C13.264 22.928 12.44 23.048 11.544 23.048C10.6 23.048 9.888 22.744 9.408 22.136C9.296 21.992 9.24 21.848 9.24 21.704C9.256 21.544 9.328 21.464 9.456 21.464C9.552 21.48 9.664 21.52 9.792 21.584C9.936 21.648 10.104 21.72 10.296 21.8C10.488 21.864 10.696 21.928 10.92 21.992C11.16 22.04 11.416 22.064 11.688 22.064C12.264 22.064 12.808 21.92 13.32 21.632C13.848 21.328 14.352 20.928 14.832 20.432C15.328 19.92 15.816 19.336 16.296 18.68C16.776 18.008 17.264 17.296 17.76 16.544C17.552 16.448 17.384 16.336 17.256 16.208C17.144 16.08 17.072 15.96 17.04 15.848C17.024 15.72 17.056 15.616 17.136 15.536C17.216 15.456 17.36 15.416 17.568 15.416H18.552C18.904 14.904 19.328 14.296 19.824 13.592C20.336 12.888 20.84 12.184 21.336 11.48C21.832 10.776 22.288 10.136 22.704 9.56C23.136 8.968 23.448 8.536 23.64 8.264C23.032 8.2 22.472 8.152 21.96 8.12C21.448 8.088 21.016 8.072 20.664 8.072C19.832 8.072 19.136 8.176 18.576 8.384C18.032 8.576 17.608 8.824 17.304 9.128C17.016 9.432 16.84 9.768 16.776 10.136C16.728 10.488 16.784 10.816 16.944 11.12C17.12 11.424 17.392 11.68 17.76 11.888C18.128 12.08 18.584 12.176 19.128 12.176C19.432 12.176 19.576 12.288 19.56 12.512C19.544 12.736 19.424 12.984 19.2 13.256C18.976 13.512 18.672 13.752 18.288 13.976C17.92 14.2 17.52 14.312 17.088 14.312ZM33.4348 17.024C33.6108 16.864 33.7788 16.76 33.9388 16.712C34.0988 16.648 34.2268 16.632 34.3228 16.664C34.4188 16.696 34.4588 16.776 34.4428 16.904C34.4428 17.032 34.3628 17.2 34.2028 17.408C33.6108 18.128 32.9788 18.696 32.3068 19.112C31.6348 19.528 31.0108 19.824 30.4348 20C29.8588 20.16 29.3628 20.216 28.9468 20.168C28.5468 20.12 28.3228 19.992 28.2748 19.784C28.2428 19.656 28.3068 19.456 28.4668 19.184C28.6428 18.912 28.8508 18.616 29.0908 18.296C29.3308 17.96 29.5788 17.632 29.8348 17.312C30.1068 16.992 30.3228 16.72 30.4828 16.496C30.2268 16.56 29.9148 16.72 29.5468 16.976C29.1948 17.216 28.8348 17.504 28.4668 17.84C28.0988 18.16 27.7388 18.504 27.3868 18.872C27.0508 19.24 26.7708 19.584 26.5468 19.904C26.3228 20.224 26.1148 20.528 25.9228 20.816C25.7308 21.088 25.5628 21.328 25.4188 21.536C25.2428 21.776 25.0908 21.992 24.9628 22.184C24.7708 22.424 24.5388 22.624 24.2668 22.784C23.9948 22.928 23.7468 23 23.5228 23H22.8268C22.6028 23 22.4748 22.92 22.4428 22.76C22.4108 22.6 22.4828 22.408 22.6588 22.184L27.4828 15.344C27.6588 15.104 27.8828 14.912 28.1548 14.768C28.4268 14.624 28.6748 14.552 28.8988 14.552H29.5948C29.8188 14.552 29.9468 14.632 29.9788 14.792C30.0268 14.936 29.9628 15.12 29.7868 15.344L28.9468 16.472C29.4428 16.04 29.9308 15.68 30.4108 15.392C30.8908 15.088 31.3228 14.856 31.7068 14.696C32.1068 14.536 32.4428 14.448 32.7148 14.432C33.0028 14.416 33.2028 14.464 33.3148 14.576C33.5228 14.8 33.5308 15.112 33.3388 15.512C33.1468 15.896 32.8828 16.296 32.5468 16.712C32.2108 17.128 31.8748 17.52 31.5388 17.888C31.2028 18.256 31.0028 18.528 30.9388 18.704C31.4508 18.528 31.8908 18.304 32.2588 18.032C32.6428 17.76 33.0348 17.424 33.4348 17.024ZM39.5753 15.08C39.8313 15.368 39.9753 15.736 40.0073 16.184C40.0393 16.616 39.9593 17.096 39.7673 17.624C39.5753 18.152 39.2873 18.696 38.9033 19.256C38.5193 19.816 38.0473 20.352 37.4873 20.864C36.9433 21.376 36.3753 21.808 35.7833 22.16C35.2073 22.496 34.6553 22.744 34.1273 22.904C33.5993 23.048 33.1113 23.096 32.6633 23.048C32.2153 23 31.8633 22.832 31.6073 22.544C31.3353 22.256 31.1833 21.896 31.1513 21.464C31.1353 21.016 31.2233 20.528 31.4153 20C31.6073 19.472 31.8873 18.928 32.2553 18.368C32.6393 17.808 33.1113 17.272 33.6713 16.76C34.2153 16.232 34.7753 15.8 35.3513 15.464C35.9433 15.112 36.5033 14.864 37.0312 14.72C37.5753 14.56 38.0633 14.512 38.4953 14.576C38.9433 14.624 39.3033 14.792 39.5753 15.08ZM37.1513 19.304C37.4553 18.904 37.7113 18.512 37.9193 18.128C38.1273 17.744 38.2793 17.384 38.3753 17.048C38.4713 16.712 38.5033 16.424 38.4713 16.184C38.4553 15.928 38.3753 15.744 38.2313 15.632C38.0713 15.52 37.8633 15.488 37.6073 15.536C37.3673 15.584 37.0953 15.704 36.7913 15.896C36.5033 16.088 36.1913 16.336 35.8553 16.64C35.5353 16.944 35.2233 17.296 34.9193 17.696C34.6153 18.096 34.3593 18.488 34.1513 18.872C33.9593 19.256 33.8153 19.616 33.7193 19.952C33.6233 20.272 33.5833 20.56 33.5993 20.816C33.6313 21.056 33.7193 21.232 33.8633 21.344C34.0233 21.456 34.2233 21.488 34.4633 21.44C34.7193 21.392 34.9913 21.28 35.2793 21.104C35.5833 20.912 35.8953 20.664 36.2153 20.36C36.5353 20.056 36.8473 19.704 37.1513 19.304ZM47.7092 14.6C48.1252 14.536 48.4692 14.552 48.7412 14.648C49.0132 14.744 49.1572 14.952 49.1732 15.272C49.1892 15.576 49.0452 16.016 48.7412 16.592C48.4532 17.152 47.9492 17.88 47.2292 18.776C46.8612 19.208 46.5892 19.568 46.4132 19.856C46.2532 20.144 46.1412 20.376 46.0772 20.552C46.0292 20.712 46.0212 20.824 46.0532 20.888C46.0852 20.952 46.1332 20.992 46.1972 21.008C46.3572 21.056 46.6212 20.952 46.9892 20.696C47.3732 20.44 47.7892 20.104 48.2372 19.688C48.7012 19.272 49.1652 18.824 49.6292 18.344C50.0932 17.864 50.4852 17.424 50.8052 17.024C51.0292 16.768 51.2132 16.608 51.3572 16.544C51.5172 16.464 51.6292 16.464 51.6932 16.544C51.7732 16.608 51.8052 16.72 51.7892 16.88C51.7732 17.04 51.7012 17.216 51.5732 17.408C51.4612 17.568 51.2692 17.808 50.9972 18.128C50.7412 18.448 50.4292 18.8 50.0612 19.184C49.7092 19.568 49.3172 19.968 48.8852 20.384C48.4692 20.8 48.0452 21.184 47.6132 21.536C47.1812 21.888 46.7492 22.2 46.3172 22.472C45.9012 22.728 45.5252 22.888 45.1892 22.952C44.7092 23.048 44.3172 23.016 44.0132 22.856C43.7092 22.696 43.5252 22.44 43.4612 22.088C43.4132 21.72 43.4932 21.256 43.7012 20.696C43.9252 20.136 44.3172 19.496 44.8772 18.776C45.5492 17.928 46.0372 17.312 46.3412 16.928C46.6612 16.528 46.7332 16.288 46.5572 16.208C46.4132 16.128 46.1092 16.24 45.6452 16.544C45.1972 16.848 44.6852 17.256 44.1092 17.768C43.5332 18.264 42.9492 18.824 42.3572 19.448C41.7812 20.056 41.3012 20.632 40.9172 21.176C40.8852 21.24 40.8532 21.28 40.8212 21.296L40.1972 22.184C40.0052 22.424 39.7732 22.624 39.5012 22.784C39.2292 22.928 38.9812 23 38.7572 23H38.0612C37.8372 23 37.7092 22.92 37.6772 22.76C37.6452 22.6 37.7172 22.408 37.8932 22.184L42.7172 15.344C42.8932 15.104 43.1172 14.912 43.3892 14.768C43.6612 14.624 43.9092 14.552 44.1332 14.552H44.8292C45.0532 14.552 45.1812 14.632 45.2132 14.792C45.2612 14.936 45.1972 15.12 45.0212 15.344L44.1572 16.568C44.7652 16.056 45.3652 15.624 45.9572 15.272C46.5652 14.904 47.1492 14.68 47.7092 14.6ZM50.9424 10.472C51.3264 10.472 51.9264 10.472 52.7424 10.472C53.5584 10.456 54.4784 10.44 55.5024 10.424L56.5344 9.032C56.7104 8.808 56.9344 8.624 57.2064 8.48C57.4784 8.32 57.7264 8.24 57.9504 8.24H58.6464C58.8704 8.24 58.9984 8.32 59.0304 8.48C59.0784 8.624 59.0144 8.808 58.8384 9.032C58.8064 9.064 58.6944 9.208 58.5024 9.464C58.3264 9.704 58.1024 10.008 57.8304 10.376C58.6304 10.376 59.4224 10.376 60.2064 10.376C60.9904 10.36 61.7104 10.352 62.3664 10.352C63.0384 10.336 63.6144 10.328 64.0944 10.328C64.5904 10.312 64.9504 10.304 65.1744 10.304C65.5744 10.288 65.9504 10.36 66.3024 10.52C66.6704 10.68 66.9504 10.864 67.1424 11.072C67.3344 11.264 67.4064 11.448 67.3584 11.624C67.3104 11.8 67.0864 11.888 66.6864 11.888C66.4464 11.888 65.9744 11.904 65.2704 11.936C64.5824 11.968 63.7584 12.008 62.7984 12.056C61.8544 12.104 60.8224 12.152 59.7024 12.2C58.5984 12.248 57.4944 12.296 56.3904 12.344C55.8944 13.032 55.3744 13.752 54.8304 14.504C54.2864 15.256 53.7744 15.976 53.2944 16.664C52.8144 17.336 52.3904 17.936 52.0224 18.464C51.6704 18.992 51.4224 19.368 51.2784 19.592C50.9904 20.072 50.8304 20.424 50.7984 20.648C50.7664 20.856 50.8064 20.976 50.9184 21.008C51.0784 21.056 51.3424 20.952 51.7104 20.696C52.0944 20.44 52.5104 20.104 52.9584 19.688C53.4224 19.272 53.8864 18.824 54.3504 18.344C54.8144 17.864 55.2064 17.424 55.5264 17.024C55.7504 16.768 55.9424 16.608 56.1024 16.544C56.2624 16.464 56.3744 16.464 56.4384 16.544C56.5184 16.608 56.5424 16.72 56.5104 16.88C56.4944 17.04 56.4304 17.216 56.3184 17.408C56.2064 17.568 56.0144 17.808 55.7424 18.128C55.4864 18.448 55.1744 18.8 54.8064 19.184C54.4544 19.568 54.0624 19.968 53.6304 20.384C53.2144 20.8 52.7824 21.184 52.3344 21.536C51.9024 21.888 51.4784 22.2 51.0624 22.472C50.6464 22.728 50.2624 22.888 49.9104 22.952C49.4304 23.048 49.0624 23.024 48.8064 22.88C48.5504 22.736 48.3904 22.512 48.3264 22.208C48.2464 21.904 48.2544 21.552 48.3504 21.152C48.4464 20.736 48.6144 20.312 48.8544 19.88C48.9664 19.688 49.1984 19.328 49.5504 18.8C49.9184 18.256 50.3504 17.64 50.8464 16.952C51.3424 16.248 51.8704 15.504 52.4304 14.72C52.9904 13.92 53.5264 13.16 54.0384 12.44C52.9504 12.488 51.9984 12.528 51.1824 12.56C50.3824 12.592 49.8544 12.608 49.5984 12.608C49.1824 12.624 48.9504 12.52 48.9024 12.296C48.8544 12.072 48.9184 11.832 49.0944 11.576C49.2704 11.304 49.5264 11.056 49.8624 10.832C50.2144 10.592 50.5744 10.472 50.9424 10.472ZM56.9728 21.68C56.9728 22.048 56.8448 22.36 56.5888 22.616C56.3488 22.872 56.0448 23 55.6768 23C55.3088 23 54.9968 22.872 54.7408 22.616C54.4848 22.36 54.3568 22.048 54.3568 21.68C54.3568 21.312 54.4848 21.008 54.7408 20.768C54.9968 20.512 55.3088 20.384 55.6768 20.384C56.0448 20.384 56.3488 20.512 56.5888 20.768C56.8448 21.008 56.9728 21.312 56.9728 21.68ZM64.0504 21.176C64.2904 21.208 64.6184 21.08 65.0344 20.792C65.4504 20.504 65.8904 20.152 66.3544 19.736C66.8184 19.304 67.2744 18.848 67.7224 18.368C68.1704 17.872 68.5624 17.424 68.8984 17.024C69.1064 16.768 69.2824 16.608 69.4264 16.544C69.5864 16.464 69.6984 16.464 69.7624 16.544C69.8424 16.608 69.8744 16.72 69.8584 16.88C69.8424 17.04 69.7704 17.216 69.6424 17.408C69.5304 17.568 69.3464 17.816 69.0904 18.152C68.8344 18.472 68.5224 18.832 68.1544 19.232C67.8024 19.632 67.4104 20.048 66.9784 20.48C66.5624 20.896 66.1384 21.28 65.7064 21.632C65.2744 21.984 64.8424 22.288 64.4104 22.544C63.9944 22.784 63.6104 22.92 63.2584 22.952C62.8424 23 62.4744 22.896 62.1544 22.64C61.8504 22.384 61.5864 22.056 61.3624 21.656C61.1384 21.24 60.9544 20.8 60.8104 20.336C60.6824 19.856 60.5864 19.424 60.5224 19.04L58.3144 22.184C58.1224 22.424 57.8904 22.624 57.6184 22.784C57.3624 22.928 57.1224 23 56.8984 23H56.2024C55.9784 23 55.8504 22.92 55.8184 22.76C55.7704 22.6 55.8344 22.408 56.0104 22.184L66.1624 7.688C66.3384 7.448 66.5624 7.256 66.8344 7.112C67.1064 6.952 67.3544 6.872 67.5784 6.872H68.2744C68.4984 6.872 68.6264 6.952 68.6584 7.112C68.7064 7.272 68.6424 7.464 68.4664 7.688L61.5544 17.552C62.0344 17.472 62.4824 17.312 62.8984 17.072C63.3304 16.816 63.7144 16.552 64.0504 16.28C64.4024 15.992 64.6984 15.72 64.9384 15.464C65.1944 15.208 65.3784 15.032 65.4904 14.936C65.6024 14.824 65.7064 14.744 65.8024 14.696C65.9144 14.648 66.0184 14.616 66.1144 14.6C66.2264 14.568 66.3544 14.552 66.4984 14.552C66.6424 14.552 66.8264 14.552 67.0504 14.552C67.2584 14.552 67.4664 14.56 67.6744 14.576C67.8824 14.592 68.0344 14.632 68.1304 14.696C68.2264 14.76 68.2424 14.872 68.1784 15.032C68.1304 15.176 67.9464 15.376 67.6264 15.632C67.3064 15.888 66.9384 16.16 66.5224 16.448C66.1064 16.736 65.6744 17.016 65.2264 17.288C64.7944 17.544 64.3544 17.784 63.9064 18.008C63.4744 18.216 63.0664 18.368 62.6824 18.464C62.7144 18.704 62.7624 18.984 62.8264 19.304C62.9064 19.608 62.9944 19.896 63.0904 20.168C63.2024 20.44 63.3384 20.672 63.4984 20.864C63.6584 21.056 63.8424 21.16 64.0504 21.176ZM75.0362 15.08C75.2922 15.368 75.4362 15.736 75.4682 16.184C75.5002 16.616 75.4202 17.096 75.2282 17.624C75.0362 18.152 74.7482 18.696 74.3642 19.256C73.9802 19.816 73.5082 20.352 72.9482 20.864C72.4042 21.376 71.8362 21.808 71.2442 22.16C70.6682 22.496 70.1162 22.744 69.5882 22.904C69.0602 23.048 68.5722 23.096 68.1242 23.048C67.6762 23 67.3242 22.832 67.0682 22.544C66.7962 22.256 66.6442 21.896 66.6122 21.464C66.5962 21.016 66.6842 20.528 66.8762 20C67.0682 19.472 67.3482 18.928 67.7162 18.368C68.1002 17.808 68.5722 17.272 69.1322 16.76C69.6762 16.232 70.2362 15.8 70.8122 15.464C71.4042 15.112 71.9642 14.864 72.4922 14.72C73.0362 14.56 73.5242 14.512 73.9562 14.576C74.4042 14.624 74.7642 14.792 75.0362 15.08ZM72.6122 19.304C72.9162 18.904 73.1722 18.512 73.3802 18.128C73.5882 17.744 73.7402 17.384 73.8362 17.048C73.9322 16.712 73.9642 16.424 73.9322 16.184C73.9162 15.928 73.8362 15.744 73.6922 15.632C73.5322 15.52 73.3242 15.488 73.0682 15.536C72.8282 15.584 72.5562 15.704 72.2522 15.896C71.9642 16.088 71.6522 16.336 71.3162 16.64C70.9962 16.944 70.6842 17.296 70.3802 17.696C70.0762 18.096 69.8202 18.488 69.6122 18.872C69.4202 19.256 69.2762 19.616 69.1802 19.952C69.0842 20.272 69.0442 20.56 69.0602 20.816C69.0922 21.056 69.1802 21.232 69.3242 21.344C69.4842 21.456 69.6842 21.488 69.9242 21.44C70.1802 21.392 70.4522 21.28 70.7402 21.104C71.0442 20.912 71.3562 20.664 71.6762 20.36C71.9962 20.056 72.3082 19.704 72.6122 19.304Z" fill="#12274C"/>
<path d="M80.3926 6.02244C79.8001 6.11222 79.3224 6.35283 78.9023 6.77658C78.5503 7.1321 78.3959 7.37271 78.2523 7.80365C78.1589 8.07657 78.1266 8.31 77.947 10.1092C77.7208 12.3788 77.7172 12.5368 77.886 13.0359C78.026 13.4381 78.1805 13.6967 78.4713 14.0055C78.7371 14.2892 78.9956 14.4724 79.3332 14.6196C79.4625 14.6771 79.5774 14.7309 79.5918 14.7453C79.6061 14.7561 79.0495 14.9177 78.3528 15.1044C77.6562 15.2876 77.0026 15.4815 76.902 15.5282C76.7979 15.5749 76.6255 15.697 76.5178 15.7939C75.9683 16.2967 75.839 17.137 76.2125 17.787C76.3669 18.0599 76.6901 18.3436 76.9846 18.4657C77.2001 18.5555 77.2791 18.5699 77.5915 18.5699C77.9039 18.5699 78.0189 18.5519 78.4893 18.419C78.7874 18.3364 79.1573 18.2323 79.3153 18.1928C79.4733 18.1497 79.7139 18.0851 79.8467 18.0456C79.9832 18.0061 80.1017 17.9809 80.1089 17.9881C80.1161 17.9989 80.0586 18.2359 79.9832 18.5232C79.4876 20.3475 79.3009 21.0729 79.2793 21.2309C79.2003 21.8414 79.581 22.5345 80.1484 22.8182C80.7804 23.1342 81.4735 23.0337 81.9907 22.5524C82.2815 22.2831 82.3713 22.0784 82.6442 21.0585C82.7663 20.5917 82.8777 20.2074 82.892 20.2074C82.9028 20.2074 82.9315 20.2936 82.9567 20.3978C83.1362 21.1016 83.402 22.0317 83.4666 22.1538C83.6246 22.4663 83.9694 22.7607 84.3285 22.8936C85.2873 23.2491 86.3216 22.6458 86.4832 21.6331C86.5299 21.353 86.5047 21.1663 86.3467 20.5845C86.2749 20.3259 86.1995 20.0351 86.1743 19.9381C86.1169 19.7119 85.9373 19.0331 85.7793 18.4478C85.7111 18.2036 85.6644 17.9953 85.6716 17.9881C85.6788 17.9773 86.1779 18.1066 86.774 18.2718C87.3738 18.4334 87.9519 18.5735 88.0597 18.5842C88.8533 18.6453 89.6003 18.0779 89.7475 17.2986C89.8229 16.9 89.7583 16.505 89.5644 16.1602C89.4423 15.9448 89.1191 15.6431 88.9036 15.539C88.7707 15.4743 87.8514 15.2158 86.616 14.889C86.3647 14.8243 86.1671 14.7597 86.1779 14.7453C86.1851 14.7309 86.2749 14.6914 86.3754 14.6591C86.8028 14.5155 87.3917 14.0019 87.6754 13.5243C87.8658 13.2011 87.9914 12.7846 88.013 12.3967C88.0345 11.9658 87.6611 8.2274 87.5605 7.90779C87.2804 7.00282 86.6376 6.36719 85.7183 6.08708C85.4597 6.00808 85.4274 6.00808 83.0141 6.0009C81.671 5.99731 80.4896 6.00449 80.3926 6.02244ZM85.6716 7.24343C86.142 7.47685 86.476 7.92215 86.5514 8.41773C86.6196 8.87381 86.9213 12.0376 86.9213 12.271C86.9105 12.9605 86.3754 13.5854 85.6608 13.7398C85.5279 13.7685 84.6732 13.7793 82.8777 13.7793C80.0838 13.7793 80.0838 13.7793 79.6923 13.589C79.4876 13.4884 79.1177 13.1185 79.0172 12.9138C78.9741 12.8276 78.9166 12.6589 78.8879 12.5439C78.834 12.3393 78.8376 12.2567 79.01 10.497C79.2147 8.37105 79.2363 8.22381 79.3368 8.02271C79.5451 7.60973 79.8396 7.34398 80.2669 7.17879C80.4608 7.10338 80.4967 7.10338 82.9423 7.11056L85.4202 7.11774L85.6716 7.24343ZM83.9299 14.8925C83.9299 14.9572 84.1956 15.2265 84.3788 15.3414C84.6122 15.4887 84.623 15.4959 86.6053 16.0238C87.5354 16.2715 88.3398 16.4942 88.3937 16.5157C88.5445 16.5732 88.6702 16.7815 88.6702 16.9682C88.6702 17.1657 88.5948 17.3094 88.4439 17.4028C88.2249 17.5392 88.3039 17.5536 86.0702 16.9359C85.5495 16.7923 85.1042 16.6881 85.0072 16.6881C84.8025 16.6881 84.6337 16.7923 84.5368 16.9754C84.4326 17.1693 84.4434 17.7116 84.5619 18.1533C84.6122 18.3472 84.684 18.6201 84.7235 18.7602C84.7594 18.9038 84.8241 19.148 84.8672 19.2989C84.9067 19.4533 85.0395 19.9417 85.1616 20.387C85.3125 20.94 85.3843 21.2596 85.3843 21.3997C85.3843 21.59 85.3735 21.6187 85.2514 21.7373C85.1473 21.845 85.0898 21.8737 84.9426 21.8881C84.7307 21.906 84.5368 21.8127 84.4506 21.6475C84.4254 21.5936 84.2387 20.9364 84.0412 20.1859C83.8401 19.4389 83.6426 18.7566 83.6031 18.674C83.4882 18.4478 83.3158 18.376 82.8884 18.376C82.497 18.376 82.2995 18.4478 82.1954 18.6273C82.1343 18.7315 82.0338 19.0654 81.7788 20.0279C81.3299 21.7373 81.3443 21.7013 81.1467 21.8234C80.9744 21.9312 80.7014 21.9096 80.5686 21.7839C80.3495 21.5828 80.3351 21.4141 80.4752 20.9077C80.5147 20.7676 80.6117 20.4121 80.6907 20.1177C80.7697 19.8196 80.9385 19.2055 81.0606 18.753C81.2545 18.042 81.2868 17.8732 81.3012 17.5428C81.3155 17.2016 81.3083 17.1406 81.2365 16.997C81.1431 16.7994 80.9169 16.6702 80.705 16.6953C80.6332 16.7061 80.0479 16.8533 79.405 17.0257C78.7622 17.2016 78.1266 17.3704 77.9865 17.4099C77.6562 17.4961 77.4838 17.4961 77.333 17.4028C77.0959 17.2555 77.0313 16.9251 77.1965 16.6809C77.3042 16.5229 77.4263 16.4798 78.7766 16.1315C78.9741 16.0812 79.2722 15.9986 79.441 15.9519C79.6097 15.9052 79.9724 15.8083 80.249 15.7365C80.9923 15.539 81.2006 15.4671 81.3981 15.3414C81.5813 15.2265 81.847 14.9572 81.847 14.8925C81.847 14.871 82.2205 14.8566 82.8884 14.8566C83.5564 14.8566 83.9299 14.871 83.9299 14.8925Z" fill="#12274C"/>
<path d="M80.9205 10.0841C80.5111 10.1595 80.231 10.5151 80.231 10.9604C80.231 11.4811 80.608 11.8582 81.1287 11.851C81.4735 11.851 81.7644 11.6678 81.9296 11.359C82.0373 11.1543 82.0373 10.7665 81.9296 10.5618C81.7356 10.1955 81.3406 10.0087 80.9205 10.0841Z" fill="#12274C"/>
<path d="M84.4793 10.0839C84.2818 10.1199 84.1525 10.1917 84.0161 10.3389C83.5205 10.8632 83.7755 11.6892 84.4793 11.84C85.0359 11.9585 85.5459 11.5384 85.5459 10.9602C85.5459 10.3748 85.0647 9.97981 84.4793 10.0839Z" fill="#12274C"/>
</g>
<defs>
<filter id="filter0_d_1180_2" x="359" y="29" width="83" height="83" filterUnits="userSpaceOnUse" color-interpolation-filters="sRGB">
<feFlood flood-opacity="0" result="BackgroundImageFix"/>
<feColorMatrix in="SourceAlpha" type="matrix" values="0 0 0 0 0 0 0 0 0 0 0 0 0 0 0 0 0 0 127 0" result="hardAlpha"/>
<feOffset dx="4" dy="4"/>
<feGaussianBlur stdDeviation="1.5"/>
<feComposite in2="hardAlpha" operator="out"/>
<feColorMatrix type="matrix" values="0 0 0 0 0 0 0 0 0 0 0 0 0 0 0 0 0 0 0.5 0"/>
<feBlend mode="normal" in2="BackgroundImageFix" result="effect1_dropShadow_1180_2"/>
<feBlend mode="normal" in="SourceGraphic" in2="effect1_dropShadow_1180_2" result="shape"/>
</filter>
<filter id="filter1_d_1180_2" x="231" y="35" width="89.9999" height="71.4952" filterUnits="userSpaceOnUse" color-interpolation-filters="sRGB">
<feFlood flood-opacity="0" result="BackgroundImageFix"/>
<feColorMatrix in="SourceAlpha" type="matrix" values="0 0 0 0 0 0 0 0 0 0 0 0 0 0 0 0 0 0 127 0" result="hardAlpha"/>
<feOffset dx="4" dy="4"/>
<feGaussianBlur stdDeviation="2"/>
<feComposite in2="hardAlpha" operator="out"/>
<feColorMatrix type="matrix" values="0 0 0 0 0 0 0 0 0 0 0 0 0 0 0 0 0 0 0.25 0"/>
<feBlend mode="normal" in2="BackgroundImageFix" result="effect1_dropShadow_1180_2"/>
<feBlend mode="normal" in="SourceGraphic" in2="effect1_dropShadow_1180_2" result="shape"/>
</filter>
<linearGradient id="paint0_linear_1180_2" x1="460" y1="129" x2="395.5" y2="161" gradientUnits="userSpaceOnUse">
<stop offset="0.0030706" stop-color="#D9D9D9"/>
<stop offset="1" stop-color="#D9D9D9" stop-opacity="0"/>
</linearGradient>
<radialGradient id="paint1_radial_1180_2" cx="0" cy="0" r="1" gradientUnits="userSpaceOnUse" gradientTransform="translate(237 322) rotate(90) scale(412 343.689)">
<stop stop-color="#EEEEEE"/>
<stop offset="1" stop-color="#EEEEEE" stop-opacity="0"/>
</radialGradient>
<linearGradient id="paint2_linear_1180_2" x1="88.957" y1="40.6224" x2="100.606" y2="115.091" gradientUnits="userSpaceOnUse">
<stop stop-color="#F6B300"/>
<stop offset="1" stop-color="#FCEDA6"/>
</linearGradient>
<clipPath id="clip0_1180_2">
<rect width="460" height="643" fill="white"/>
</clipPath>
<clipPath id="clip1_1180_2">
<rect width="409" height="76" fill="white" transform="translate(26 29)"/>
</clipPath>
</defs>
</svg>
