<svg width="77" height="54" viewBox="0 0 77 54" fill="none" xmlns="http://www.w3.org/2000/svg">
<path fill-rule="evenodd" clip-rule="evenodd" d="M76.4628 0H33.0723C26.8534 0 21.7821 5.07221 21.7821 11.2902V43.1089H10.8911V32.4451H19.2857V21.554H10.8911H10.1605C4.56437 21.554 0 26.1184 0 31.7145V32.4451V43.1089V54H10.8911H43.3914C49.6103 54 54.6816 48.9278 54.6816 42.7098V10.8911H76.4637V0H76.4628ZM76.4628 21.5549H57.1772V32.446H66.3032C71.8993 32.446 76.4637 27.8816 76.4637 22.2855V21.5549H76.4628ZM38.1445 43.1098H32.6732V16.537C32.6732 13.4276 35.2088 10.8911 38.3192 10.8911H43.7905V37.4638C43.7905 40.5733 41.2549 43.1098 38.1445 43.1098Z" fill="#0098DA"/>
</svg>
