<?xml version="1.0" encoding="UTF-8"?>
<!DOCTYPE svg PUBLIC "-//W3C//DTD SVG 1.1//EN" "http://www.w3.org/Graphics/SVG/1.1/DTD/svg11.dtd">
<!-- Creator: CorelDRAW 2020 (64-Bit) -->
<svg xmlns="http://www.w3.org/2000/svg" xml:space="preserve" width="1700px" height="1691px" version="1.1"
  style="shape-rendering:geometricPrecision; text-rendering:geometricPrecision; image-rendering:optimizeQuality; fill-rule:evenodd; clip-rule:evenodd"
  viewBox="0 0 1698.32 1689.66" xmlns:xlink="http://www.w3.org/1999/xlink"
  xmlns:xodm="http://www.corel.com/coreldraw/odm/2003">
  <defs>
    <style type="text/css">
      <![CDATA[
      .fil1 {
        fill: #0098DA
      }

      .fil0 {
        fill: #E6E6E6
      }

      .fil3 {
        fill: #FDD835
      }

      .fil2 {
        fill: black;
        fill-rule: nonzero
      }
      ]]>
    </style>
    <mask id="id0">
      <linearGradient id="id1" gradientUnits="userSpaceOnUse" x1="747.05" y1="1447.6" x2="747.7" y2="1668.63">
        <stop offset="0" style="stop-opacity:1; stop-color:white" />
        <stop offset="0.6" style="stop-opacity:0.075; stop-color:white" />
        <stop offset="1" style="stop-opacity:0; stop-color:white" />
      </linearGradient>
      <rect style="fill:url(#id1)" y="200.6" width="1698.32" height="1488.77" />
    </mask>
  </defs>
  <g id="Layer_x0020_1">
    <metadata id="CorelCorpID_0Corel-Layer" />
    <path class="fil0" style="mask:url(#id0)"
      d="M1113.64 558.94c0.77,7.56 1.41,15.28 1.92,23.16 0.5,7.7 0.91,16.22 1.23,25.53 0.3,8.5 0.5,17.55 0.59,27.13 0.1,9.37 0.09,19.09 -0.01,29.17 -0.11,9.96 -0.3,20.01 -0.57,30.13 -0.29,10.58 -0.66,21.06 -1.09,31.46 -0.46,10.77 -0.96,21.27 -1.52,31.5 -0.53,9.84 -1.09,19.35 -1.68,28.54 0.56,1.04 1.1,2.11 1.64,3.22 1.21,2.5 2.27,4.9 3.18,7.21 1.29,3.24 2.47,6.65 3.54,10.21 1.01,3.36 2,7.13 2.95,11.27 0.99,4.32 1.87,8.8 2.64,13.41 0.8,4.84 1.48,9.72 2.04,14.59 0.57,4.94 1.04,10.1 1.42,15.42 0.35,4.96 0.64,10.55 0.85,16.67 0.08,2.54 0.15,5.36 0.21,8.44 0.05,2.77 0.09,5.68 0.1,8.69 0.01,2.95 0.01,5.87 -0.02,8.74 -0.03,3.08 -0.07,5.99 -0.14,8.71 -0.08,3.38 -0.17,6.42 -0.27,9.09 -0.12,3.32 -0.24,6.1 -0.36,8.39 -0.19,3.66 -0.36,6.54 -0.5,8.67 -0.22,3.33 -0.4,5.81 -0.54,7.42 -0.18,2.04 -0.45,4.69 -0.81,7.92 -0.24,2.09 -0.58,4.81 -1.03,8.15l-0.02 0.3c-0.35,2.59 -0.73,5.17 -1.14,7.73 -0.48,3.01 -0.89,5.34 -1.2,6.93 -0.42,2.15 -0.96,4.59 -1.63,7.33 -0.67,2.78 -1.27,5.02 -1.77,6.68 -0.59,1.97 -1.35,4.15 -2.27,6.54 -0.84,2.18 -1.71,4.17 -2.59,5.95l0 0.05 -1.3 2.61c-0.71,5.25 -1.29,9.38 -1.73,12.28 -0.61,4.07 -1.34,8.61 -2.18,13.6 -0.92,5.41 -1.85,10.57 -2.79,15.47 -1.02,5.31 -2.02,10.23 -3,14.76 -1.01,4.67 -2.19,9.74 -3.54,15.23 -1.12,4.57 -2.45,9.63 -3.98,15.19l0 0.05c-1.42,5.14 -2.86,10.09 -4.32,14.86 -1.66,5.36 -3.17,10.04 -4.54,14.02l-0.05 0c-1.58,4.59 -3.28,9.24 -5.09,13.93l0 0.05c-1.85,4.82 -3.73,9.45 -5.61,13.86 -1.94,4.57 -3.96,9.06 -6.02,13.45 -2.07,4.39 -4.22,8.74 -6.46,13.05 -1.85,3.56 -3.99,7.49 -6.43,11.82 -2.65,4.7 -4.85,8.46 -6.58,11.27 -1.23,2 -3.1,4.91 -5.61,8.71l-2.97 4.46 0.27 1.27 0.83 3.07c5.95,3.37 11.92,6.55 17.89,9.57 7.2,3.63 14.63,7.12 22.26,10.47 8.09,3.56 16.23,6.88 24.42,10.01 8.57,3.27 16.72,6.18 24.52,8.78 8.32,2.78 16.96,5.47 25.83,8.1 8.39,2.48 17.32,4.98 26.62,7.48 8.73,2.36 17.91,4.74 27.32,7.13 13.34,3.39 20.11,5.08 26.76,6.73 39.09,9.73 78.19,19.47 117.37,32.7 39.45,13.32 78.65,30.1 117.33,53.76 19.44,11.89 38.71,25.54 57.77,41.37 18.95,15.74 37.6,33.6 55.87,53.99 18.23,20.35 35.98,43.04 53.15,68.46 17.17,25.41 33.94,53.77 50.23,85.46 1.42,2.77 2.56,5.66 3.42,8.63 0.9,3.14 1.47,6.19 1.72,9.11 0.24,3.02 0.18,6.08 -0.17,9.14 -0.35,3.03 -0.99,6.03 -1.91,8.95l-0.09 0.31c-0.96,2.99 -2.18,5.84 -3.64,8.49 -1.49,2.69 -3.26,5.27 -5.28,7.66 -1.98,2.34 -4.21,4.51 -6.65,6.45 -2.37,1.88 -4.98,3.57 -7.79,5.03 -2.77,1.42 -5.66,2.56 -8.62,3.41 -3.15,0.91 -6.2,1.48 -9.12,1.72 -3.02,0.25 -6.08,0.19 -9.14,-0.16 -3.03,-0.35 -6.03,-1 -8.95,-1.92l0 -0.01 -0.26 -0.07c-2.65,-0.85 -5.13,-1.86 -7.4,-3.04 -2.39,-1.23 -4.66,-2.65 -6.75,-4.22l-0.62 -0.49 -1542.38 -0.14c-1.17,0.92 -2.37,1.77 -3.6,2.57 -2.5,1.61 -5.26,3.03 -8.24,4.21 -2.87,1.14 -5.84,2.01 -8.87,2.57 -2.96,0.54 -6.03,0.8 -9.16,0.75 -3.27,-0.05 -6.38,-0.39 -9.28,-1 -3.17,-0.66 -6.14,-1.6 -8.86,-2.77 -2.78,-1.19 -5.49,-2.71 -8.1,-4.52 -2.58,-1.77 -4.95,-3.79 -7.09,-6 -2.18,-2.24 -4.13,-4.69 -5.81,-7.3 -1.61,-2.49 -3.03,-5.25 -4.21,-8.23 -0.68,-1.72 -1.26,-3.47 -1.74,-5.25l-4.44 0 2.89 -14.17c0.2,-7.09 1.01,-14.07 2.39,-20.93 1.47,-7.27 3.56,-14.37 6.23,-21.29 2.62,-6.78 5.79,-13.41 9.47,-19.88 3.63,-6.39 7.81,-12.7 12.5,-18.95 4.44,-5.91 9.17,-11.58 14.18,-17.01 5.07,-5.51 10.5,-10.91 16.26,-16.2 5.41,-4.96 11.45,-10.09 18.07,-15.39 6.57,-5.24 13.18,-10.23 19.82,-14.96 6.34,-4.5 13.01,-9.02 19.98,-13.55 6.91,-4.48 14.06,-8.93 21.42,-13.35 7.66,-4.6 15.1,-8.92 22.34,-12.99 6.83,-3.84 14.75,-8.15 23.58,-12.85 9.17,-4.88 17.13,-9.03 24.07,-12.56 6.28,-3.2 14.75,-7.4 24.97,-12.42 11.11,-5.45 19.37,-9.46 25.46,-12.37 5.11,-2.44 14.04,-6.64 25.73,-12.1 38.82,-18.16 73.3,-39.01 108.06,-60.04 6.16,-3.08 13.91,-8.35 20.03,-12.02l11.22 -6.68c7.21,-4.29 6.76,-4.07 8.6,-5.15 1.17,-0.68 4.15,-2.39 9.48,-5.43 3.06,-1.74 6.83,-3.86 11.45,-6.44l0.84 -0.47 -0.35 -0.66 23.09 -11.68 7.22 -3.71c2.51,-1.29 5.33,-2.72 8.46,-4.29 2.99,-1.49 5.86,-2.92 8.58,-4.25 3.98,-1.95 6.58,-3.22 7.74,-3.77l6.57 -3.09 3.75 -1.74 -5.48 -71.11 -0.86 -1c-1.12,-1.3 -2.38,-2.79 -3.76,-4.49 -2.03,-2.47 -3.8,-4.69 -5.3,-6.65 -1.65,-2.16 -3.33,-4.44 -5.01,-6.81 -1.74,-2.43 -3.62,-5.2 -5.65,-8.29 -2.1,-3.19 -3.92,-6.05 -5.45,-8.57 -1.89,-3.1 -3.63,-6.07 -5.22,-8.91 -1.36,-2.41 -3.08,-5.6 -5.13,-9.53 -2.16,-4.12 -3.76,-7.26 -4.84,-9.45l0.04 -0.02c-1.86,-3.81 -3.32,-6.9 -4.41,-9.3 -1.39,-3.07 -2.78,-6.28 -4.19,-9.62 -1.17,-2.82 -2.54,-6.21 -4.07,-10.15 -1.45,-3.72 -2.52,-6.51 -3.23,-8.45 -1.12,-3.04 -2.06,-5.66 -2.82,-7.86l-1.27 -3.77c-3.95,-1.55 -7.71,-3.38 -11.29,-5.45 -5.4,-3.13 -10.3,-6.8 -14.73,-10.94 -5.2,-4.85 -9.7,-10.3 -13.61,-16.21 -3.78,-5.72 -7.03,-11.97 -9.85,-18.62 -2.57,-6.08 -4.7,-12.43 -6.49,-18.93 -1.75,-6.35 -3.16,-12.83 -4.34,-19.35 -1.15,-6.37 -2.07,-12.64 -2.87,-18.78 -0.96,-7.41 -1.54,-12.59 -2.1,-17.61l-0.65 -5.66 -0.87 -7.01 0.04 -0.01 -0.74 -5.75 -0.01 0.01 -0.73 -4.67c-0.57,-3.38 -1.07,-6.75 -1.48,-10.06 -0.33,-2.64 -0.72,-6.4 -1.15,-11.23 -0.39,-4.23 -0.68,-8.12 -0.89,-11.58l0 -0.05c-0.2,-3.54 -0.37,-7.46 -0.49,-11.75 -0.11,-3.75 -0.16,-7.63 -0.16,-11.6 0.01,-3.92 0.07,-7.69 0.2,-11.26 0.14,-4.18 0.32,-7.87 0.54,-10.99 0.24,-3.49 0.54,-6.86 0.91,-10.06 0.18,-1.65 0.41,-3.46 0.68,-5.4 0.27,-1.88 0.54,-3.65 0.81,-5.3 0.35,-2.07 0.66,-3.78 0.92,-5.12 0.32,-1.61 0.67,-3.23 1.04,-4.83 0.31,-1.32 0.74,-2.96 1.29,-4.92 0.45,-1.64 0.95,-3.28 1.47,-4.9 0.59,-1.81 1.15,-3.44 1.69,-4.86 0.63,-1.69 1.23,-3.16 1.78,-4.4 0.82,-1.87 1.75,-3.75 2.78,-5.66 0.94,-1.75 2.02,-3.55 3.22,-5.4 1.25,-1.93 2.48,-3.66 3.66,-5.16 0.46,-0.59 0.95,-1.17 1.45,-1.77 -0.69,-15.99 -1.76,-34.2 -2.83,-52.42l-0.03 -0.39c0,0.02 0,0.03 -0.01,0l0 -0.07 0.01 0.07 0 -0.1 -0.01 0.03 -0.02 -0.46c0,-0.05 0,-0.04 0,0l0 -0.15c-1.62,-27.43 -3.23,-54.88 -3.72,-83.81 -0.11,-6.71 -0.15,-13.38 -0.1,-20 0.05,-6.81 0.18,-13.36 0.42,-19.6 0.24,-6.56 0.56,-12.55 0.93,-17.89 0.34,-4.7 0.74,-9.35 1.22,-13.94 -1.96,-4.83 -3.76,-9.67 -5.4,-14.52 -1.89,-5.58 -3.62,-11.43 -5.19,-17.53 -1.72,-6.67 -3.1,-13.11 -4.14,-19.3 -1.09,-6.46 -1.86,-12.81 -2.33,-19.04 -0.49,-6.54 -0.65,-13.28 -0.48,-20.24 0.17,-6.74 0.69,-13.51 1.54,-20.29 0.88,-6.89 2.05,-13.54 3.52,-19.97 1.5,-6.53 3.35,-13.09 5.56,-19.67 2.19,-6.53 4.72,-13 7.57,-19.42 2.91,-6.52 6.07,-12.83 9.48,-18.92 3.28,-5.86 7.07,-11.95 11.36,-18.25 4.06,-5.99 8.52,-12.02 13.37,-18.08 4.94,-6.17 9.93,-11.99 14.96,-17.45 5.23,-5.66 10.77,-11.28 16.64,-16.86 5.65,-5.35 11.8,-10.84 18.46,-16.45 6.75,-5.69 13.43,-11.02 20,-15.98l0.09 -0.03c0.51,-0.39 1.02,-0.74 1.51,-1.08l0.02 0.03 1.6 -1.02c1.55,-0.98 0.91,-0.64 1.51,-0.99l0.02 0.04 1.53 -0.86 3.26 -1.65 1.64 -0.65 1.79 -0.66c2.76,-0.96 6.13,-2.82 9.8,-5.14 4.05,-2.56 8.51,-5.72 12.96,-8.87l0.66 -0.45c3.37,-2.39 6.71,-4.75 9.52,-6.67 3.34,-2.28 6.71,-4.51 10.14,-6.61 3.73,-2.29 7.59,-4.48 11.62,-6.51 4.02,-2.03 8.29,-3.92 12.86,-5.62 4.5,-1.67 9.03,-3.07 13.58,-4.11 4.73,-1.09 9.56,-1.84 14.49,-2.2 3.78,-0.28 7.73,-0.32 11.84,-0.1 2.24,0.12 4.52,0.33 6.83,0.62 11.37,-8.59 21.92,-14.95 31.88,-19.58 11.58,-5.38 22.43,-8.47 32.88,-9.97 11.12,-1.6 21.31,-1.4 31.18,-0.24 5.37,0.62 10.53,1.51 15.66,2.52l0.02 -0.09 5.76 1.28 10.79 2.34c7.84,1.68 15.81,3.23 22.58,3.43l0.79 0 1.66 -0.09 4.6 -0.35c4.39,-0.55 9.6,-1.49 13.91,-1.73 8.05,-1.01 16.83,-2.11 26.47,-2.94 9.41,-0.81 19.67,-1.33 30.93,-1.19 11.31,0.15 22.93,1.02 34.58,3.04 11.84,2.04 23.94,5.28 36.15,10.14 12.41,4.95 24.56,11.43 36.16,19.85 11.6,8.42 22.77,18.84 33.25,31.67 9.11,11.17 17.65,24.13 25.4,39.16 6.11,11.84 11.74,24.96 16.79,39.49l0.71 -0.2 0.55 1.97 1.52 -0.38 5.16 23.98c3.03,3.52 6.07,7.14 8.94,11.82 1.64,2.65 3.26,5.76 4.85,9.52 1.48,3.5 2.81,7.39 3.96,11.79 0.86,3.34 1.59,6.87 2.14,10.62 0.54,3.65 0.94,7.74 1.17,12.34 0.17,3.22 0.24,6.82 0.21,10.85 -0.01,2.26 -0.06,4.51 -0.13,6.75 0.83,0.92 1.65,1.85 2.45,2.8 1.92,2.29 3.89,4.92 5.9,7.88 2.54,3.75 4.91,7.78 7.12,12.07 2.2,4.29 4.22,8.81 6.05,13.53 2.05,5.29 3.88,10.72 5.48,16.29 1.59,5.54 3.07,11.61 4.45,18.19 1.33,6.37 2.5,12.91 3.5,19.61 0.97,6.49 1.85,13.65 2.64,21.46zm-709.02 172.69l-0.02 -0.16 0.02 0.16zm-0.03 -0.43l0.01 0.11 -0.01 -0.11z" />
    <path class="fil1"
      d="M848.95 0c9.21,0 18.38,0.15 27.51,0.45l-213.4 213.39c-8.67,4.4 -17.8,10.12 -27.53,17.47 -2.31,-0.29 -4.59,-0.5 -6.83,-0.62 -4.11,-0.22 -8.06,-0.18 -11.84,0.1 -4.93,0.36 -9.76,1.11 -14.49,2.2 -4.55,1.04 -9.08,2.44 -13.58,4.11 -4.57,1.7 -8.84,3.59 -12.86,5.62 -4.03,2.03 -7.89,4.22 -11.62,6.51 -3.43,2.1 -6.8,4.33 -10.14,6.61 -2.17,1.48 -4.65,3.23 -7.22,5.04l10.6 -10.6c1.21,-1.2 2,-2.76 2.25,-4.45 1.14,-7.61 -8.12,-12.28 -13.55,-6.85l-45.21 45.21c-1.21,1.21 -2,2.76 -2.25,4.46 -0.13,0.89 -0.12,1.74 0,2.53 -3.48,2.78 -7,5.66 -10.53,8.64 -6.66,5.61 -12.81,11.1 -18.46,16.45 -5.87,5.58 -11.41,11.2 -16.64,16.86 -1.63,1.77 -3.27,3.59 -4.89,5.44 -1.33,0.32 -2.62,1.01 -3.74,2.13l-11.3 11.3c-1.21,1.21 -2,2.77 -2.25,4.46 -0.18,1.18 -0.11,2.28 0.16,3.29 -2.2,2.98 -4.31,5.95 -6.31,8.91 -4.29,6.3 -8.08,12.39 -11.36,18.25 -3.41,6.09 -6.57,12.4 -9.48,18.92 -2.85,6.42 -5.38,12.89 -7.57,19.42 -2.21,6.58 -4.06,13.14 -5.56,19.67 -1.47,6.43 -2.64,13.08 -3.52,19.97 -0.85,6.78 -1.37,13.55 -1.54,20.29 -0.05,2.01 -0.07,4.01 -0.06,5.99l-362.25 362.24c-0.29,-9.13 -0.45,-18.3 -0.45,-27.5 0,-31.99 1.88,-63.54 5.43,-94.58l0.11 -0.99 724.8 -724.8 0.39 -0.05c31.24,-3.58 62.99,-5.49 95.18,-5.49zm754.22 1092.46c1.21,-1.21 2,-2.76 2.25,-4.46 1.14,-7.61 -8.13,-12.27 -13.55,-6.84l-45.21 45.21c-1.21,1.21 -2,2.76 -2.25,4.45 -1.15,7.61 8.12,12.28 13.55,6.85l45.21 -45.21zm-101.72 101.72c1.21,-1.21 2,-2.76 2.25,-4.46 1.14,-7.61 -8.13,-12.27 -13.55,-6.84l-45.21 45.21c-1.21,1.21 -2,2.76 -2.25,4.45 -1.15,7.61 8.12,12.28 13.55,6.85l45.21 -45.21zm-101.72 101.72c1.21,-1.21 2,-2.76 2.25,-4.45 1.14,-7.62 -8.13,-12.28 -13.55,-6.85l-11.31 11.3c-1.21,1.21 -1.99,2.76 -2.25,4.46 -1.14,7.61 8.13,12.27 13.56,6.84l11.3 -11.3zm246.17 -364.15c1.21,-1.21 1.99,-2.77 2.25,-4.46 1.14,-7.61 -8.13,-12.27 -13.56,-6.85l-45.21 45.21c-1.21,1.21 -1.99,2.77 -2.25,4.46 -1.14,7.61 8.13,12.28 13.56,6.85l45.21 -45.21zm-101.72 101.72c1.21,-1.21 1.99,-2.77 2.25,-4.46 1.14,-7.61 -8.13,-12.27 -13.56,-6.85l-45.21 45.21c-1.21,1.21 -1.99,2.77 -2.25,4.46 -1.14,7.61 8.13,12.28 13.56,6.85l45.21 -45.21zm-101.72 101.72c1.2,-1.21 1.99,-2.77 2.25,-4.46 1.14,-7.61 -8.13,-12.27 -13.56,-6.85l-45.21 45.21c-1.21,1.21 -1.99,2.77 -2.25,4.46 -1.14,7.61 8.13,12.28 13.56,6.85l45.21 -45.21zm-101.72 101.72c1.2,-1.21 1.99,-2.77 2.25,-4.46 1.14,-7.61 -8.13,-12.27 -13.56,-6.85l-11.3 11.31c-1.21,1.21 -2,2.76 -2.25,4.45 -1.14,7.61 8.12,12.28 13.55,6.85l11.31 -11.3zm313.98 -431.97c1.2,-1.21 1.99,-2.76 2.25,-4.46 1.14,-7.61 -8.13,-12.27 -13.56,-6.84l-11.3 11.3c-1.21,1.21 -2,2.76 -2.25,4.46 -1.14,7.61 8.12,12.27 13.55,6.84l11.31 -11.3zm-67.82 67.81c1.21,-1.21 2,-2.76 2.25,-4.45 1.14,-7.61 -8.12,-12.28 -13.55,-6.85l-45.21 45.21c-1.21,1.21 -2,2.76 -2.25,4.46 -1.14,7.61 8.12,12.27 13.55,6.84l45.21 -45.21zm-101.72 101.72c1.21,-1.21 2,-2.76 2.25,-4.45 1.14,-7.61 -8.12,-12.28 -13.55,-6.85l-45.21 45.21c-1.21,1.21 -2,2.76 -2.25,4.46 -1.14,7.61 8.12,12.27 13.55,6.84l45.21 -45.21zm-101.72 101.72c1.21,-1.21 2,-2.76 2.25,-4.45 1.14,-7.61 -8.12,-12.28 -13.55,-6.85l-45.21 45.21c-1.21,1.21 -2,2.76 -2.25,4.46 -1.14,7.61 8.12,12.27 13.55,6.84l45.21 -45.21zm-101.72 101.72c1.21,-1.21 2,-2.76 2.25,-4.45 1.14,-7.61 -8.12,-12.28 -13.55,-6.85l-11.3 11.3c-1.21,1.21 -2,2.77 -2.25,4.46 -1.15,7.61 8.12,12.27 13.55,6.85l11.3 -11.31zm-67.81 67.82c1.21,-1.21 2,-2.77 2.25,-4.46 1.14,-7.61 -8.13,-12.27 -13.55,-6.85l-11.31 11.31c-1.21,1.21 -1.99,2.76 -2.25,4.45 -1.14,7.61 8.13,12.28 13.56,6.85l11.3 -11.3zm381.79 -499.78c1.21,-1.21 2,-2.77 2.25,-4.46 1.14,-7.61 -8.12,-12.27 -13.55,-6.85l-11.3 11.31c-1.21,1.21 -2,2.76 -2.25,4.45 -1.15,7.61 8.12,12.28 13.55,6.85l11.3 -11.3zm-67.81 67.81c1.21,-1.21 2,-2.76 2.25,-4.46 1.14,-7.61 -8.13,-12.27 -13.55,-6.84l-45.21 45.21c-1.21,1.21 -2,2.76 -2.25,4.45 -1.15,7.61 8.12,12.28 13.55,6.85l45.21 -45.21zm-101.72 101.72c1.21,-1.21 2,-2.76 2.25,-4.46 1.14,-7.61 -8.13,-12.27 -13.55,-6.84l-45.21 45.21c-1.21,1.21 -2,2.76 -2.25,4.45 -1.15,7.61 8.12,12.28 13.55,6.85l45.21 -45.21zm-101.72 101.72c1.21,-1.21 2,-2.76 2.25,-4.46 1.14,-7.61 -8.13,-12.27 -13.55,-6.84l-45.21 45.21c-1.21,1.21 -2,2.76 -2.26,4.45 -1.14,7.61 8.13,12.28 13.56,6.85l45.21 -45.21zm-101.72 101.72c1.21,-1.21 2,-2.76 2.25,-4.46 1.14,-7.61 -8.13,-12.27 -13.55,-6.84l-11.31 11.3c-1.21,1.21 -1.99,2.76 -2.25,4.46 -1.14,7.61 8.13,12.27 13.56,6.84l11.3 -11.3zm-67.81 67.81c1.2,-1.21 1.99,-2.76 2.25,-4.45 1.14,-7.61 -8.13,-12.28 -13.56,-6.85l-11.3 11.3c-1.21,1.21 -2,2.77 -2.25,4.46 -1.14,7.61 8.12,12.27 13.55,6.85l11.31 -11.31zm449.6 -567.59c1.21,-1.21 2,-2.76 2.25,-4.46 1.14,-7.61 -8.12,-12.27 -13.55,-6.84l-11.3 11.3c-1.21,1.21 -2,2.76 -2.25,4.46 -1.15,7.61 8.12,12.27 13.55,6.84l11.3 -11.3zm-67.81 67.81c1.21,-1.21 2,-2.76 2.25,-4.45 1.14,-7.61 -8.13,-12.28 -13.55,-6.85l-11.31 11.3c-1.21,1.21 -1.99,2.77 -2.25,4.46 -1.14,7.61 8.13,12.27 13.56,6.85l11.3 -11.31zm-67.81 67.82c1.2,-1.21 1.99,-2.77 2.25,-4.46 1.14,-7.61 -8.13,-12.27 -13.56,-6.85l-45.21 45.21c-1.21,1.21 -1.99,2.77 -2.25,4.46 -1.14,7.61 8.13,12.27 13.56,6.85l45.21 -45.21zm-101.72 101.72c1.2,-1.21 1.99,-2.77 2.25,-4.46 1.14,-7.61 -8.13,-12.27 -13.56,-6.85l-45.21 45.21c-1.21,1.21 -1.99,2.77 -2.25,4.46 -1.14,7.61 8.13,12.27 13.56,6.85l45.21 -45.21zm-101.73 101.72c1.21,-1.21 2,-2.77 2.26,-4.46 1.14,-7.61 -8.13,-12.27 -13.56,-6.85l-45.21 45.21c-1.21,1.21 -1.99,2.77 -2.25,4.46 -1.14,7.61 8.13,12.27 13.56,6.85l45.2 -45.21zm-101.72 101.72c1.21,-1.21 2,-2.77 2.26,-4.46 1.14,-7.61 -8.13,-12.27 -13.56,-6.85l-11.3 11.31c-1.21,1.21 -2,2.76 -2.25,4.45 -1.14,7.61 8.12,12.28 13.55,6.85l11.3 -11.3zm381.8 -499.78c1.21,-1.21 2,-2.77 2.25,-4.46 1.14,-7.61 -8.13,-12.27 -13.56,-6.85l-11.3 11.31c-1.21,1.21 -1.99,2.76 -2.25,4.45 -1.14,7.61 8.13,12.28 13.56,6.85l11.3 -11.3zm-67.82 67.81c1.21,-1.21 2,-2.76 2.26,-4.46 1.14,-7.61 -8.13,-12.27 -13.56,-6.84l-11.3 11.3c-1.21,1.21 -2,2.76 -2.25,4.46 -1.14,7.61 8.12,12.27 13.55,6.84l11.3 -11.3zm-67.81 67.81c1.21,-1.21 2,-2.76 2.25,-4.45 1.14,-7.61 -8.12,-12.28 -13.55,-6.85l-45.21 45.21c-1.21,1.21 -2,2.76 -2.25,4.46 -1.14,7.61 8.12,12.27 13.55,6.84l45.21 -45.21zm-101.72 101.72c1.21,-1.21 2,-2.76 2.25,-4.45 1.14,-7.61 -8.12,-12.28 -13.55,-6.85l-45.21 45.21c-1.21,1.21 -2,2.76 -2.25,4.46 -1.14,7.61 8.12,12.27 13.55,6.84l45.21 -45.21zm-101.72 101.72c1.21,-1.21 2,-2.76 2.25,-4.45 1.14,-7.61 -8.12,-12.28 -13.55,-6.85l-45.21 45.21c-1.21,1.21 -2,2.76 -2.25,4.46 -1.14,7.61 8.12,12.27 13.55,6.84l45.21 -45.21zm280.07 -398.06c1.21,-1.21 2,-2.76 2.26,-4.45 1.14,-7.61 -8.13,-12.28 -13.56,-6.85l-11.3 11.3c-1.21,1.21 -2,2.77 -2.25,4.46 -1.14,7.61 8.12,12.27 13.55,6.85l11.3 -11.31zm-67.81 67.82c1.21,-1.21 2,-2.77 2.25,-4.46 1.14,-7.61 -8.12,-12.28 -13.55,-6.85l-11.3 11.31c-1.21,1.2 -2,2.76 -2.26,4.45 -1.14,7.61 8.13,12.28 13.56,6.85l11.3 -11.3zm-67.81 67.81c1.21,-1.21 2,-2.76 2.25,-4.46 1.14,-7.61 -8.13,-12.27 -13.55,-6.84l-45.21 45.21c-1.21,1.2 -2,2.76 -2.26,4.45 -1.14,7.61 8.13,12.28 13.56,6.85l45.21 -45.21zm-101.72 101.72c1.21,-1.21 2,-2.76 2.25,-4.46 1.14,-7.61 -8.13,-12.27 -13.56,-6.84l-45.2 45.21c-1.21,1.21 -2,2.76 -2.26,4.45 -1.14,7.61 8.13,12.28 13.56,6.85l45.21 -45.21zm178.35 -296.34c1.21,-1.21 2,-2.76 2.25,-4.46 1.14,-7.61 -8.12,-12.27 -13.55,-6.84l-11.3 11.3c-1.21,1.21 -2,2.76 -2.26,4.46 -1.14,7.61 8.13,12.27 13.56,6.84l11.3 -11.3zm-67.81 67.81c1.21,-1.21 2,-2.76 2.25,-4.45 1.14,-7.61 -8.13,-12.28 -13.56,-6.85l-11.3 11.3c-1.21,1.21 -1.99,2.77 -2.25,4.46 -1.14,7.61 8.13,12.27 13.56,6.85l11.3 -11.31zm-67.82 67.82c1.21,-1.21 2,-2.77 2.26,-4.46 1.14,-7.61 -8.13,-12.28 -13.56,-6.85l-45.21 45.21c-1.21,1.21 -2,2.77 -2.25,4.46 -1.14,7.61 8.13,12.27 13.56,6.85l45.2 -45.21zm-101.72 101.72c1.21,-1.21 2,-2.77 2.26,-4.46 1.14,-7.61 -8.13,-12.28 -13.56,-6.85l-45.21 45.21c-1.21,1.21 -2,2.77 -2.25,4.46 -1.14,7.61 8.13,12.27 13.56,6.85l45.2 -45.21zm178.36 -296.34c1.21,-1.21 1.99,-2.77 2.25,-4.46 1.14,-7.61 -8.13,-12.28 -13.56,-6.85l-11.3 11.31c-1.21,1.2 -2,2.76 -2.25,4.45 -1.14,7.61 8.13,12.28 13.56,6.85l11.3 -11.3zm-67.82 67.81c1.21,-1.21 2,-2.76 2.26,-4.46 1.14,-7.61 -8.13,-12.27 -13.56,-6.84l-11.3 11.3c-1.21,1.21 -2,2.76 -2.25,4.45 -1.14,7.61 8.12,12.28 13.55,6.85l11.3 -11.3zm-67.81 67.81c1.21,-1.21 2,-2.76 2.25,-4.45 1.14,-7.61 -8.12,-12.28 -13.55,-6.85l-45.21 45.21c-1.21,1.21 -2,2.76 -2.25,4.45 -1.14,7.62 8.12,12.28 13.55,6.85l45.21 -45.21zm-745.94 745.95c1.21,-1.21 2,-2.77 2.25,-4.46 1.14,-7.61 -8.13,-12.28 -13.56,-6.85l-11.3 11.31c-1.21,1.2 -2,2.76 -2.25,4.45 -1.14,7.61 8.13,12.28 13.56,6.85l11.3 -11.3zm822.57 -940.57c1.21,-1.21 2,-2.76 2.25,-4.45 1.15,-7.61 -8.12,-12.28 -13.55,-6.85l-11.3 11.3c-1.21,1.21 -2,2.77 -2.25,4.46 -1.14,7.61 8.12,12.27 13.55,6.84l11.3 -11.3zm-67.81 67.82c1.21,-1.21 2,-2.77 2.25,-4.46 1.14,-7.61 -8.12,-12.28 -13.55,-6.85l-11.3 11.3c-1.21,1.21 -2,2.77 -2.26,4.46 -1.14,7.61 8.13,12.28 13.56,6.85l11.3 -11.3zm-67.81 67.81c1.21,-1.21 2,-2.76 2.25,-4.46 1.14,-7.61 -8.13,-12.27 -13.56,-6.84l-45.2 45.21c-1.21,1.2 -2,2.76 -2.26,4.45 -1.14,7.61 8.13,12.28 13.56,6.85l45.21 -45.21zm-745.95 745.94c1.21,-1.21 2,-2.76 2.26,-4.45 1.14,-7.61 -8.13,-12.28 -13.56,-6.85l-11.3 11.3c-1.21,1.21 -2,2.76 -2.25,4.46 -1.14,7.61 8.12,12.27 13.55,6.84l11.3 -11.3zm-67.81 67.82c1.21,-1.21 2,-2.77 2.25,-4.46 1.14,-7.61 -8.12,-12.28 -13.55,-6.85l-11.3 11.3c-1.21,1.21 -2,2.77 -2.26,4.46 -1.14,7.61 8.13,12.28 13.56,6.85l11.3 -11.3zm890.39 -1008.38c1.21,-1.21 2,-2.76 2.25,-4.46 1.14,-7.61 -8.12,-12.27 -13.55,-6.84l-11.3 11.3c-1.21,1.21 -2,2.76 -2.26,4.45 -1.14,7.61 8.13,12.28 13.56,6.85l11.3 -11.3zm-67.81 67.81c1.21,-1.21 1.99,-2.76 2.25,-4.45 1.14,-7.61 -8.13,-12.28 -13.56,-6.85l-11.3 11.3c-1.21,1.21 -2,2.76 -2.25,4.46 -1.14,7.61 8.13,12.27 13.56,6.84l11.3 -11.3zm-813.76 813.76c1.21,-1.21 2,-2.76 2.25,-4.46 1.14,-7.61 -8.12,-12.27 -13.55,-6.84l-11.3 11.3c-1.21,1.21 -2,2.76 -2.26,4.45 -1.14,7.61 8.13,12.28 13.56,6.85l11.3 -11.3zm-67.81 67.81c1.21,-1.21 1.99,-2.76 2.25,-4.45 1.14,-7.61 -8.13,-12.28 -13.56,-6.85l-11.3 11.3c-1.21,1.21 -2,2.76 -2.25,4.46 -1.14,7.61 8.13,12.27 13.56,6.84l11.3 -11.3zm890.39 -1008.37c1.21,-1.21 1.99,-2.77 2.25,-4.46 1.14,-7.61 -8.13,-12.28 -13.56,-6.85l-11.3 11.3c-1.21,1.21 -2,2.77 -2.25,4.46 -1.14,7.61 8.13,12.28 13.55,6.85l11.31 -11.3zm-67.82 67.81c1.21,-1.21 2,-2.76 2.25,-4.46 1.15,-7.61 -8.12,-12.27 -13.55,-6.84l-11.3 11.3c-1.21,1.21 -2,2.76 -2.25,4.45 -1.14,7.61 8.12,12.28 13.55,6.85l11.3 -11.3zm-813.75 813.76c1.21,-1.21 1.99,-2.77 2.25,-4.46 1.14,-7.61 -8.13,-12.28 -13.56,-6.85l-11.3 11.3c-1.21,1.21 -2,2.77 -2.25,4.46 -1.14,7.61 8.13,12.28 13.55,6.85l11.31 -11.3zm-67.82 67.81c1.21,-1.21 2,-2.76 2.26,-4.46 1.14,-7.61 -8.13,-12.27 -13.56,-6.84l-11.3 11.3c-1.21,1.21 -2,2.76 -2.25,4.45 -1.14,7.61 8.12,12.28 13.55,6.85l11.3 -11.3zm890.39 -1008.38c1.21,-1.21 2,-2.76 2.25,-4.45 1.15,-7.61 -8.12,-12.28 -13.55,-6.85l-11.3 11.3c-1.21,1.21 -2,2.76 -2.25,4.46 -1.14,7.61 8.12,12.27 13.55,6.84l11.3 -11.3zm-67.81 67.82c1.21,-1.21 2,-2.77 2.25,-4.46 1.14,-7.61 -8.12,-12.28 -13.55,-6.85l-11.31 11.3c-1.2,1.21 -1.99,2.77 -2.25,4.46 -1.14,7.61 8.13,12.28 13.56,6.85l11.3 -11.3zm-712.04 712.03c1.21,-1.21 2,-2.76 2.25,-4.45 1.14,-7.61 -8.12,-12.28 -13.55,-6.85l-45.21 45.21c-1.21,1.21 -2,2.76 -2.25,4.45 -1.14,7.61 8.13,12.28 13.55,6.85l45.21 -45.21zm-101.72 101.72c1.21,-1.21 2,-2.76 2.25,-4.45 1.15,-7.61 -8.12,-12.28 -13.55,-6.85l-11.3 11.3c-1.21,1.21 -2,2.76 -2.25,4.46 -1.14,7.61 8.12,12.27 13.55,6.84l11.3 -11.3zm-67.81 67.82c1.21,-1.21 2,-2.77 2.25,-4.46 1.14,-7.61 -8.12,-12.28 -13.55,-6.85l-11.3 11.3c-1.21,1.21 -2,2.77 -2.26,4.46 -1.14,7.61 8.13,12.28 13.56,6.85l11.3 -11.3zm890.39 -1008.38c1.21,-1.21 2,-2.76 2.25,-4.46 1.14,-7.61 -8.12,-12.27 -13.55,-6.84l-11.31 11.3c-1.2,1.21 -1.99,2.76 -2.25,4.45 -1.14,7.61 8.13,12.28 13.56,6.85l11.3 -11.3zm-67.81 67.81c1.21,-1.21 1.99,-2.76 2.25,-4.45 1.14,-7.61 -8.13,-12.28 -13.56,-6.85l-11.3 11.3c-1.21,1.21 -2,2.76 -2.25,4.46 -1.14,7.61 8.13,12.27 13.55,6.84l11.31 -11.3zm-610.32 610.32c1.21,-1.21 2,-2.76 2.25,-4.46 1.14,-7.61 -8.13,-12.27 -13.56,-6.84l-45.2 45.21c-1.21,1.2 -2,2.76 -2.25,4.45 -1.15,7.61 8.12,12.28 13.55,6.85l45.21 -45.21zm-101.72 101.72c1.21,-1.21 2,-2.76 2.25,-4.46 1.14,-7.61 -8.13,-12.27 -13.55,-6.84l-45.21 45.2c-1.21,1.21 -2,2.77 -2.25,4.46 -1.14,7.61 8.12,12.28 13.55,6.85l45.21 -45.21zm-101.72 101.72c1.21,-1.21 2,-2.76 2.25,-4.46 1.14,-7.61 -8.12,-12.27 -13.55,-6.84l-11.31 11.3c-1.2,1.21 -1.99,2.76 -2.25,4.45 -1.14,7.61 8.13,12.28 13.56,6.85l11.3 -11.3zm-67.81 67.81c1.21,-1.21 1.99,-2.76 2.25,-4.45 1.14,-7.61 -8.13,-12.28 -13.56,-6.85l-11.3 11.3c-1.21,1.21 -2,2.76 -2.25,4.46 -1.14,7.61 8.13,12.27 13.55,6.84l11.31 -11.3zm822.57 -940.56c1.21,-1.21 2,-2.76 2.25,-4.46 1.15,-7.61 -8.12,-12.27 -13.55,-6.84l-11.3 11.3c-1.21,1.21 -2,2.76 -2.25,4.45 -1.14,7.61 8.12,12.28 13.55,6.85l11.3 -11.3zm-610.32 610.32c1.21,-1.21 2,-2.77 2.26,-4.46 1.14,-7.61 -8.13,-12.27 -13.56,-6.85l-45.21 45.21c-1.21,1.21 -1.99,2.77 -2.25,4.46 -1.14,7.61 8.13,12.27 13.56,6.85l45.2 -45.21zm-101.71 101.72c1.2,-1.21 1.99,-2.77 2.25,-4.46 1.14,-7.61 -8.13,-12.28 -13.56,-6.85l-45.21 45.21c-1.21,1.21 -1.99,2.76 -2.25,4.46 -1.14,7.61 8.13,12.27 13.56,6.84l45.21 -45.2zm-101.72 101.72c1.21,-1.21 1.99,-2.77 2.25,-4.46 1.14,-7.61 -8.13,-12.28 -13.56,-6.85l-11.3 11.3c-1.21,1.21 -2,2.77 -2.25,4.46 -1.14,7.61 8.13,12.28 13.55,6.85l11.31 -11.3zm-67.82 67.81c1.21,-1.21 2,-2.77 2.25,-4.46 1.15,-7.61 -8.12,-12.27 -13.55,-6.84l-11.3 11.3c-1.21,1.21 -2,2.76 -2.25,4.45 -1.14,7.61 8.12,12.28 13.55,6.85l11.3 -11.3zm822.58 -940.57c1.21,-1.2 2,-2.76 2.25,-4.45 1.14,-7.61 -8.13,-12.28 -13.55,-6.85l-11.31 11.3c-1.2,1.21 -1.99,2.77 -2.25,4.46 -1.14,7.61 8.13,12.28 13.56,6.85l11.3 -11.31zm-67.81 67.82c1.21,-1.21 1.99,-2.77 2.25,-4.46 1.14,-7.61 -8.13,-12.27 -13.56,-6.85l-45.21 45.21c-1.21,1.21 -1.99,2.77 -2.25,4.46 -1.14,7.61 8.13,12.28 13.56,6.85l45.21 -45.21zm-440.79 440.78c1.21,-1.2 2,-2.76 2.25,-4.45 1.14,-7.61 -8.12,-12.28 -13.55,-6.85l-45.21 45.21c-1.21,1.21 -2,2.76 -2.25,4.46 -1.14,7.61 8.12,12.27 13.55,6.84l45.21 -45.21zm-101.72 101.72c1.21,-1.21 2,-2.76 2.25,-4.45 1.14,-7.61 -8.12,-12.28 -13.55,-6.85l-45.21 45.21c-1.21,1.21 -2,2.76 -2.25,4.45 -1.14,7.61 8.12,12.28 13.55,6.85l45.21 -45.21zm-101.72 101.72c1.21,-1.21 2,-2.76 2.25,-4.45 1.14,-7.61 -8.12,-12.28 -13.55,-6.85l-45.21 45.21c-1.21,1.21 -2,2.76 -2.25,4.45 -1.14,7.61 8.13,12.28 13.55,6.85l45.21 -45.21zm-101.72 101.72c1.21,-1.21 2,-2.76 2.25,-4.45 1.14,-7.61 -8.12,-12.28 -13.55,-6.85l-11.3 11.3c-1.21,1.21 -2,2.76 -2.25,4.46 -1.14,7.61 8.12,12.27 13.55,6.84l11.3 -11.3zm686.95 -804.94c1.21,-1.2 2,-2.76 2.25,-4.45 1.15,-7.61 -8.12,-12.28 -13.55,-6.85l-45.21 45.21c-1.21,1.21 -2,2.76 -2.25,4.46 -1.14,7.61 8.13,12.27 13.55,6.84l45.21 -45.21zm-101.72 101.72c1.21,-1.2 2,-2.76 2.25,-4.45 1.14,-7.61 -8.12,-12.28 -13.55,-6.85l-45.21 45.21c-1.21,1.21 -2,2.76 -2.25,4.46 -1.14,7.61 8.13,12.27 13.55,6.84l45.21 -45.21zm-271.25 271.26c1.21,-1.21 2,-2.77 2.25,-4.46 1.14,-7.61 -8.13,-12.27 -13.55,-6.85l-11.31 11.31c-1.21,1.21 -1.99,2.76 -2.25,4.45 -1.14,7.61 8.13,12.28 13.56,6.85l11.3 -11.3zm-67.81 67.81c1.21,-1.21 1.99,-2.76 2.25,-4.46 1.14,-7.61 -8.13,-12.27 -13.56,-6.84l-45.2 45.21c-1.21,1.21 -2,2.76 -2.26,4.45 -1.14,7.61 8.13,12.28 13.56,6.85l45.21 -45.21zm-101.72 101.72c1.21,-1.21 1.99,-2.76 2.25,-4.46 1.14,-7.61 -8.13,-12.27 -13.56,-6.84l-45.2 45.2c-1.21,1.21 -2,2.77 -2.26,4.46 -1.14,7.61 8.13,12.28 13.56,6.85l45.21 -45.21zm-101.72 101.72c1.21,-1.21 2,-2.76 2.25,-4.46 1.14,-7.61 -8.13,-12.27 -13.55,-6.84l-45.21 45.2c-1.21,1.21 -2,2.77 -2.25,4.46 -1.14,7.61 8.12,12.28 13.55,6.85l45.21 -45.21zm483.51 -601.5c1.21,-1.21 2,-2.76 2.25,-4.46 1.14,-7.61 -8.13,-12.27 -13.55,-6.84l-45.21 45.21c-1.21,1.21 -2,2.76 -2.25,4.45 -1.15,7.61 8.12,12.28 13.55,6.85l45.21 -45.21zm-101.72 101.72c1.21,-1.21 2,-2.76 2.25,-4.46 1.14,-7.61 -8.13,-12.27 -13.55,-6.84l-45.21 45.21c-1.21,1.21 -2,2.76 -2.25,4.45 -1.15,7.61 8.12,12.28 13.55,6.85l45.21 -45.21zm-101.72 101.72c1.21,-1.21 2,-2.76 2.25,-4.45 1.14,-7.62 -8.13,-12.28 -13.55,-6.85l-11.31 11.3c-1.21,1.21 -1.99,2.76 -2.25,4.46 -1.14,7.61 8.13,12.27 13.56,6.84l11.3 -11.3zm-67.81 67.81c1.21,-1.2 1.99,-2.76 2.25,-4.45 1.14,-7.61 -8.13,-12.28 -13.56,-6.85l-11.3 11.3c-1.21,1.21 -2,2.77 -2.25,4.46 -1.14,7.61 8.13,12.28 13.55,6.85l11.31 -11.31zm-67.82 67.82c1.21,-1.21 2,-2.77 2.25,-4.46 1.14,-7.61 -8.12,-12.27 -13.55,-6.85l-45.21 45.21c-1.21,1.21 -2,2.77 -2.25,4.46 -1.14,7.61 8.13,12.27 13.55,6.85l45.21 -45.21zm-101.72 101.72c1.21,-1.21 2,-2.77 2.25,-4.46 1.15,-7.61 -8.12,-12.28 -13.55,-6.85l-45.21 45.21c-1.21,1.21 -1.99,2.76 -2.25,4.46 -1.14,7.61 8.13,12.27 13.56,6.84l45.2 -45.2zm280.08 -398.06c1.2,-1.21 1.99,-2.77 2.25,-4.46 1.14,-7.61 -8.13,-12.27 -13.56,-6.85l-45.21 45.21c-1.21,1.21 -1.99,2.77 -2.25,4.46 -1.14,7.61 8.13,12.28 13.56,6.85l45.21 -45.21zm-101.72 101.72c1.2,-1.21 1.99,-2.77 2.25,-4.46 1.14,-7.61 -8.13,-12.27 -13.56,-6.85l-11.3 11.31c-1.21,1.21 -2,2.76 -2.25,4.45 -1.14,7.61 8.12,12.28 13.55,6.85l11.31 -11.3zm-67.82 67.81c1.21,-1.21 2,-2.76 2.25,-4.46 1.14,-7.61 -8.12,-12.27 -13.55,-6.84l-11.3 11.3c-1.21,1.21 -2,2.76 -2.25,4.46 -1.15,7.61 8.12,12.27 13.55,6.84l11.3 -11.3zm-67.81 67.81c1.21,-1.21 2,-2.76 2.25,-4.45 1.14,-7.61 -8.13,-12.28 -13.55,-6.85l-45.21 45.21c-1.21,1.21 -2,2.76 -2.25,4.46 -1.14,7.61 8.12,12.27 13.55,6.84l45.21 -45.21zm202.4 361.99l-0.02 -0.16 0.02 0.16zm-0.03 -0.43l0.01 0.11 -0.01 -0.11zm-376.01 -0.86c3.24,-28.12 7.91,-55.8 13.91,-82.98l15.28 -15.28c1.21,-1.21 2,-2.77 2.26,-4.46 0.96,-6.4 -5.44,-10.71 -10.73,-8.7 3.21,-12.44 6.71,-24.75 10.48,-36.95l0.36 -1.17 543.7 -543.71 0.59 -0.18c12.82,-3.97 25.78,-7.64 38.86,-10.99l-0.05 0.29c-1.14,7.61 8.12,12.28 13.55,6.85l13.62 -13.62c27.18,-6 54.86,-10.66 82.97,-13.9l-724.8 724.8zm31.56 -149.54c26.03,-83.89 65.1,-162.04 114.79,-232.1 0.55,-0.77 1.08,-1.55 1.63,-2.31l192.86 -192.86c0.6,-0.44 1.22,-0.86 1.82,-1.29 70.2,-49.86 148.52,-89.05 232.6,-115.15l-543.7 543.71zm116.42 -234.41c53.18,-74.45 118.42,-139.68 192.86,-192.86l-192.86 192.86zm699.9 -345.94l0.28 0.01c36.37,1.2 72.14,4.76 107.17,10.53l-199.91 199.9c-6.24,-0.43 -13.32,-1.82 -20.3,-3.32l-10.79 -2.34 -5.76 -1.28 -0.02 0.09c-5.13,-1.01 -10.29,-1.9 -15.66,-2.52 -3.6,-0.42 -7.23,-0.72 -10.94,-0.85 -0.89,-6.09 -8.74,-9.24 -13.57,-4.42l-5.31 5.32 -1.36 0.19c-10.45,1.5 -21.3,4.59 -32.88,9.97 -1.14,0.53 -2.28,1.08 -3.43,1.65l-0.92 0.46 213.4 -213.39zm-490.72 490.72l0 0.66c0.03,4.63 0.21,9.16 0.54,13.59 0.47,6.23 1.24,12.58 2.33,19.04 1.04,6.19 2.42,12.63 4.14,19.3 1.57,6.1 3.3,11.95 5.19,17.53 1.64,4.85 3.44,9.69 5.4,14.52 -0.48,4.59 -0.88,9.24 -1.22,13.94 -0.07,1.05 -0.14,2.13 -0.21,3.24l-367.88 367.88c-5.73,-34.84 -9.28,-70.41 -10.51,-106.56l-0.03 -0.9 362.25 -362.24zm598.17 -480.18l0.22 0.03c8.4,1.39 16.76,2.9 25.08,4.54 -2.05,-0.09 -4.18,0.61 -5.91,2.34l-11.3 11.3c-1.21,1.21 -2,2.77 -2.25,4.46 -1.14,7.61 8.13,12.28 13.55,6.85l11.31 -11.3c1.21,-1.21 1.99,-2.77 2.25,-4.46 0.63,-4.21 -1.93,-7.52 -5.26,-8.72 23.19,4.64 46.03,10.24 68.47,16.78l-175.86 175.86c-1.67,-0.34 -3.33,-0.65 -4.99,-0.93 -11.65,-2.02 -23.27,-2.89 -34.58,-3.04 -9.46,-0.12 -18.22,0.23 -26.35,0.82l40.69 -40.69c1.21,-1.21 2,-2.76 2.25,-4.45 1.14,-7.62 -8.12,-12.28 -13.55,-6.85l-45.21 45.21c-1.21,1.21 -2,2.76 -2.25,4.45 -0.22,1.47 -0.06,2.82 0.39,4.02 -4.67,0.53 -9.12,1.08 -13.37,1.62 -4.31,0.24 -9.52,1.18 -13.91,1.73l-4.6 0.35 -1.66 0.09 -0.79 0c-0.62,-0.01 -1.25,-0.04 -1.89,-0.09l-0.39 -0.02 199.91 -199.9zm-582 582l-0.05 0.73c-0.26,4.29 -0.48,8.94 -0.67,13.92 -0.16,4.11 -0.27,8.35 -0.34,12.72l-19.17 19.16c-1.21,1.21 -2,2.77 -2.25,4.46 -1.14,7.61 8.13,12.27 13.56,6.85l7.82 -7.83 0.06 4.24c0.36,21.38 1.33,41.95 2.47,62.3l-347.49 347.49c-9.05,-31.06 -16.31,-62.88 -21.69,-95.34l-0.13 -0.82 367.88 -367.88zm678.16 -560.18l0.18 0.05c29.73,8.67 58.76,18.95 86.99,30.77l-183.7 183.7c-3.94,-3.46 -7.95,-6.65 -12.01,-9.6 -10.11,-7.34 -20.64,-13.2 -31.4,-17.86 0.04,-0.17 0.07,-0.33 0.09,-0.5 1.15,-7.61 -8.12,-12.28 -13.55,-6.85l-1.62 1.62c-6.9,-2.27 -13.76,-4.04 -20.53,-5.41l-0.31 -0.06 175.86 -175.86zm-676.73 676.73l0.04 0.69c0.39,6.96 0.8,13.89 1.21,20.82l0 0.15c0,-0.04 0,-0.05 0,0l0.02 0.46 0 0.07c0.01,0.03 0.01,0.02 0.01,0l0.03 0.39c1.07,18.22 2.14,36.43 2.83,52.42 -0.5,0.6 -0.99,1.18 -1.45,1.77 -1.18,1.5 -2.41,3.23 -3.66,5.16 -1.2,1.85 -2.28,3.65 -3.22,5.4 -1.03,1.91 -1.96,3.79 -2.78,5.66 -0.55,1.24 -1.15,2.71 -1.78,4.4 -0.54,1.42 -1.1,3.05 -1.69,4.86 -0.52,1.62 -1.02,3.26 -1.47,4.9 -0.55,1.96 -0.98,3.6 -1.29,4.92 -0.37,1.6 -0.72,3.22 -1.04,4.83 -0.26,1.34 -0.57,3.05 -0.92,5.12 -0.27,1.65 -0.54,3.42 -0.81,5.3 -0.27,1.94 -0.5,3.75 -0.68,5.4 -0.08,0.71 -0.16,1.43 -0.24,2.15l-299.8 299.8c-11.73,-28.05 -21.96,-56.89 -30.58,-86.41l-0.22 -0.77 347.49 -347.49zm763.9 -645.91l0.15 0.06c6.11,2.56 12.18,5.19 18.21,7.89l-7.8 7.8c-1.21,1.21 -2,2.76 -2.25,4.45 -1.14,7.61 8.13,12.28 13.55,6.85l11.99 -11.98c15.5,7.32 30.75,15.12 45.7,23.36l-213.25 213.25c-1.1,-2.29 -2.23,-4.55 -3.36,-6.75 -7.75,-15.03 -16.29,-27.99 -25.4,-39.16 -6.75,-8.27 -13.79,-15.53 -21.05,-21.91l-0.19 -0.16 183.7 -183.7zm-780.79 780.78l-0.08 0.88c-0.23,2.28 -0.42,4.63 -0.59,7.03 -0.22,3.12 -0.4,6.81 -0.54,10.99 -0.13,3.57 -0.19,7.34 -0.2,11.26 0,3.97 0.05,7.85 0.16,11.6 0.12,4.29 0.29,8.21 0.49,11.75l0 0.05c0.21,3.46 0.5,7.35 0.89,11.58 0.43,4.83 0.82,8.59 1.15,11.23 0.41,3.31 0.91,6.68 1.48,10.06l0.73 4.67 0.01 -0.01 0.74 5.75 -0.04 0.01 0.87 7.01 0.65 5.66 0.28 2.48 -267.38 267.37c-8.24,-14.96 -16.03,-30.2 -23.35,-45.71l13.68 -13.68c1.21,-1.21 1.99,-2.76 2.25,-4.46 1.14,-7.61 -8.13,-12.27 -13.56,-6.84l-9.49 9.49c-2.62,-5.85 -5.17,-11.74 -7.65,-17.66l-0.3 -0.71 299.8 -299.8zm860.34 -742.35l0.13 0.07c5.6,3.09 11.15,6.24 16.67,9.45l-26.8 26.79c-1.2,1.21 -1.99,2.76 -2.25,4.46 -1.14,7.61 8.13,12.27 13.56,6.84l29.66 -29.66c14.23,8.67 28.18,17.76 41.83,27.24l-249.92 249.92c-0.32,-0.82 -0.64,-1.62 -0.97,-2.41 -1.59,-3.76 -3.21,-6.87 -4.85,-9.52 -2.87,-4.68 -5.91,-8.3 -8.94,-11.82l-5.16 -23.98 -1.52 0.38 -0.06 -0.22 7.79 -7.79c1.21,-1.21 2,-2.76 2.25,-4.45 1.14,-7.61 -8.12,-12.28 -13.55,-6.85l-3.09 3.08c-2.52,-6.3 -5.16,-12.31 -7.91,-18.04l-0.12 -0.24 213.25 -213.25zm-854.34 854.35l0.08 0.74c0.46,4.09 0.99,8.54 1.74,14.39 0.36,2.72 0.73,5.45 1.14,8.21l-40.19 40.19c-1.2,1.21 -1.99,2.76 -2.25,4.46 -1.14,7.61 8.13,12.27 13.56,6.84l32.32 -32.32c0.78,3.61 1.65,7.2 2.63,10.75 1.79,6.5 3.92,12.85 6.49,18.93 2.82,6.65 6.07,12.9 9.85,18.62l0.72 1.08 -248.28 248.28c-9.49,-13.65 -18.57,-27.6 -27.24,-41.83l31.37 -31.37c1.21,-1.21 2,-2.76 2.25,-4.45 1.14,-7.61 -8.12,-12.28 -13.55,-6.85l-28.5 28.5c-3.11,-5.34 -6.16,-10.72 -9.15,-16.14l-0.37 -0.66 267.38 -267.37zm927.14 -809.16l0.11 0.08c5.13,3.57 10.21,7.19 15.25,10.87l-39.16 39.17c-1.21,1.2 -2,2.76 -2.25,4.45 -1.14,7.61 8.12,12.28 13.55,6.85l40.82 -40.82c13.05,9.91 25.8,20.2 38.22,30.85l-287.5 287.5c-0.34,-0.94 -0.7,-1.88 -1.06,-2.81 -1.83,-4.72 -3.85,-9.24 -6.05,-13.53 -2.21,-4.29 -4.58,-8.32 -7.12,-12.07 -2.01,-2.96 -3.98,-5.59 -5.9,-7.88 -0.8,-0.95 -1.62,-1.88 -2.45,-2.8 0.07,-2.24 0.12,-4.49 0.13,-6.75l0.01 -0.79 38.76 -38.76c1.21,-1.21 2,-2.77 2.26,-4.46 1.14,-7.61 -8.13,-12.28 -13.56,-6.85l-28.7 28.71 -0.15 -1.04c-0.55,-3.75 -1.28,-7.28 -2.14,-10.62 -0.86,-3.31 -1.83,-6.33 -2.89,-9.11l-0.1 -0.27 249.92 -249.92zm-901.05 901.05l0.35 0.5c3.42,4.98 7.29,9.6 11.66,13.8l-16.33 16.34c-1.21,1.2 -2,2.76 -2.25,4.45 -1.14,7.61 8.12,12.28 13.55,6.85l17.67 -17.67c0.97,0.62 1.96,1.22 2.97,1.8 3.58,2.07 7.34,3.9 11.29,5.45l1.27 3.77c0.76,2.2 1.7,4.82 2.82,7.86 0.71,1.94 1.78,4.73 3.23,8.45 1.53,3.94 2.9,7.33 4.07,10.15 0.6,1.41 1.19,2.8 1.78,4.16l-248.93 248.93c-10.65,-12.43 -20.94,-25.17 -30.85,-38.22l42.54 -42.54c1.21,-1.21 2,-2.77 2.26,-4.46 1.14,-7.61 -8.13,-12.28 -13.56,-6.85l-40.88 40.89c-3.56,-4.88 -7.07,-9.81 -10.52,-14.77l-0.42 -0.61 248.28 -248.28zm967.59 -849.6l0.1 0.09c4.68,4.02 9.32,8.09 13.92,12.21l-0.16 0.15 -45.21 45.21c-1.21,1.21 -2,2.76 -2.25,4.46 -1.14,7.61 8.13,12.27 13.55,6.84l45.21 -45.21c0.22,-0.22 0.43,-0.45 0.62,-0.69 11.92,11.12 23.52,22.58 34.76,34.38l-330.82 330.82c-0.09,-1.65 -0.19,-3.27 -0.29,-4.86 -0.51,-7.88 -1.15,-15.6 -1.92,-23.16 -0.79,-7.81 -1.67,-14.97 -2.64,-21.46 -1,-6.7 -2.17,-13.24 -3.5,-19.61 -1.38,-6.58 -2.86,-12.65 -4.45,-18.19 -1.29,-4.49 -2.73,-8.89 -4.31,-13.2l-0.11 -0.28 287.5 -287.5zm-915.51 915.51l0.26 0.6c0.72,1.66 1.44,3.28 2.15,4.86 1.09,2.4 2.55,5.49 4.41,9.3l-0.04 0.02c0.44,0.89 0.97,1.95 1.59,3.16l-5.78 5.78c-1.21,1.21 -2,2.76 -2.25,4.45 -1.14,7.62 8.13,12.28 13.56,6.85l2.28 -2.28 0.57 1.02c1.59,2.84 3.33,5.81 5.22,8.91 1.53,2.52 3.35,5.38 5.45,8.57 2.03,3.09 3.91,5.86 5.65,8.29 1.68,2.37 3.36,4.65 5.01,6.81 1.5,1.96 3.27,4.18 5.3,6.65l0.73 0.89 -184.2 184.2c-13.29,7.25 -26.94,14.27 -41.17,20.93 -11.69,5.46 -20.62,9.66 -25.73,12.1l-2.16 1.03c-5.81,-5.88 -11.54,-11.85 -17.17,-17.9 1.02,-0.38 1.99,-1 2.87,-1.87l45.21 -45.21c1.21,-1.21 2,-2.76 2.25,-4.46 1.14,-7.61 -8.13,-12.27 -13.56,-6.84l-45.2 45.2c-0.66,0.66 -1.19,1.41 -1.58,2.23 -4.09,-4.55 -8.13,-9.16 -12.12,-13.8l-0.48 -0.56 248.93 -248.93zm976.05 -858.07l0.09 0.1c4.26,4.46 8.46,8.97 12.62,13.54 -0.13,0.11 -0.27,0.23 -0.4,0.36l-45.2 45.21c-1.21,1.21 -2,2.77 -2.26,4.46 -1.14,7.61 8.13,12.27 13.56,6.85l44.96 -44.96c10.78,12.29 21.2,24.9 31.24,37.82l-384.79 384.79c0.11,-3.41 0.21,-6.82 0.31,-10.25 0.27,-10.12 0.46,-20.17 0.57,-30.13 0.1,-10.08 0.11,-19.8 0.01,-29.17l0 -0.4 13.84 -13.85c1.21,-1.21 2,-2.76 2.25,-4.45 1.14,-7.61 -8.12,-12.28 -13.55,-6.85l-2.98 2.98c-0.05,-1.54 -0.1,-3.06 -0.15,-4.56 -0.25,-7.24 -0.56,-14 -0.91,-20.27l-0.03 -0.4 330.82 -330.82zm-931.94 931.95l0.39 0.47c0.95,1.15 1.83,2.19 2.64,3.13l0.86 1 5.48 71.11 -3.75 1.74 -6.57 3.09c-1.16,0.55 -3.76,1.82 -7.74,3.77 -2.72,1.33 -5.59,2.76 -8.58,4.25 -3.13,1.57 -5.95,3 -8.46,4.29l-7.22 3.71 -23.09 11.68 0.35 0.66 -0.84 0.47c-4.62,2.58 -8.39,4.7 -11.45,6.44 -5.33,3.04 -8.31,4.75 -9.48,5.43 -1.84,1.08 -1.39,0.86 -8.6,5.15l-10.26 6.11c-2.95,-2.25 -7.38,-2.49 -10.53,0.66l-11.3 11.3c-0.6,0.6 -1.1,1.29 -1.48,2.03 -20.53,12.42 -41,24.76 -62.36,36.49l-2.21 1.22 184.2 -184.2zm986.55 -868.57l0.08 0.11c3.81,4.9 7.57,9.85 11.28,14.85l-39.87 39.87c-1.21,1.21 -2,2.76 -2.25,4.45 -1.14,7.61 8.12,12.28 13.55,6.85l38.08 -38.08c9.62,13.51 18.85,27.31 27.65,41.41l-426.46 426.47c-0.8,-3.36 -1.62,-6.45 -2.47,-9.25 -1.07,-3.56 -2.25,-6.97 -3.54,-10.21 -0.91,-2.31 -1.97,-4.71 -3.18,-7.21 -0.54,-1.11 -1.08,-2.18 -1.64,-3.22 0.59,-9.19 1.15,-18.7 1.68,-28.54 0.56,-10.23 1.06,-20.73 1.52,-31.5 0.28,-6.87 0.54,-13.78 0.77,-20.73l0.01 -0.48 384.79 -384.79zm48.52 69.46l0.08 0.12c3.35,5.37 6.65,10.79 9.88,16.24l-28 28c-1.21,1.21 -2,2.76 -2.25,4.46 -1.14,7.61 8.13,12.27 13.56,6.84l24.99 -24.99c8.38,14.81 16.32,29.91 23.8,45.27l-461.41 461.41c0.07,-1.54 0.14,-3.24 0.2,-5.1 0.1,-2.67 0.19,-5.71 0.27,-9.09 0.07,-2.72 0.11,-5.63 0.14,-8.71 0.03,-2.87 0.03,-5.79 0.02,-8.74 -0.01,-3.01 -0.05,-5.92 -0.1,-8.69 -0.06,-3.08 -0.13,-5.9 -0.21,-8.44 -0.21,-6.12 -0.5,-11.71 -0.85,-16.67l-0.22 -2.89 17.79 -17.78c1.21,-1.21 2,-2.76 2.25,-4.46 1.14,-7.61 -8.13,-12.27 -13.56,-6.84l-8.69 8.69c-0.32,-2.25 -0.66,-4.49 -1.03,-6.73 -0.77,-4.61 -1.65,-9.09 -2.64,-13.41l-0.38 -1.62 -0.1 -0.4 426.46 -426.47zm42.06 75.94l0.07 0.14c2.85,5.87 5.64,11.78 8.37,17.73l-9.54 9.54c-1.21,1.21 -2,2.77 -2.26,4.46 -1.14,7.61 8.13,12.27 13.56,6.85l5.2 -5.21c7.03,16.24 13.56,32.75 19.55,49.52l-523.06 523.06c0.75,-3.15 1.43,-6.15 2.04,-9 0.98,-4.53 1.98,-9.45 3,-14.76 0.94,-4.9 1.87,-10.06 2.79,-15.47 0.84,-4.99 1.57,-9.53 2.18,-13.6 0.44,-2.9 1.02,-7.03 1.73,-12.28l1.3 -2.61 0 -0.05c0.88,-1.78 1.75,-3.77 2.59,-5.95 0.92,-2.39 1.68,-4.57 2.27,-6.54 0.5,-1.66 1.1,-3.9 1.77,-6.68 0.67,-2.74 1.21,-5.18 1.63,-7.33 0.31,-1.59 0.72,-3.92 1.2,-6.93 0.41,-2.56 0.79,-5.14 1.14,-7.73l0.02 -0.3c0.45,-3.34 0.79,-6.06 1.03,-8.15 0.36,-3.23 0.63,-5.88 0.81,-7.92 0.14,-1.61 0.32,-4.09 0.54,-7.42 0.14,-2.13 0.31,-5.01 0.5,-8.67l0.13 -2.72 0.03 -0.57 461.41 -461.41zm34.95 83.03l0.06 0.16c10.58,29.61 19.55,59.98 26.73,91.04l-587.82 587.82 -2.2 -1.1c-5.97,-3.02 -11.94,-6.2 -17.89,-9.57l-0.83 -3.07 -0.27 -1.27 2.97 -4.46c2.51,-3.8 4.38,-6.71 5.61,-8.71 1.73,-2.81 3.93,-6.57 6.58,-11.27 2.44,-4.33 4.58,-8.26 6.43,-11.82 2.24,-4.31 4.39,-8.66 6.46,-13.05 2.06,-4.39 4.08,-8.88 6.02,-13.45 1.17,-2.73 2.33,-5.55 3.49,-8.44 0.88,-0.39 1.72,-0.95 2.49,-1.72l11.3 -11.3c1.21,-1.21 2,-2.76 2.25,-4.46 0.71,-4.69 -2.55,-8.26 -6.42,-9.04 0.7,-2.16 1.42,-4.46 2.18,-6.9 1.46,-4.77 2.9,-9.72 4.32,-14.86l0 -0.05c1.53,-5.56 2.86,-10.62 3.98,-15.19 0.46,-1.86 0.9,-3.67 1.32,-5.43l0.18 -0.8 523.06 -523.06zm26.79 91.2l0.05 0.2c1.93,8.37 3.73,16.78 5.41,25.23 -2.32,-0.37 -4.83,0.26 -6.83,2.25l-11.3 11.3c-1.21,1.21 -2,2.77 -2.25,4.46 -1.14,7.61 8.12,12.27 13.55,6.85l9.7 -9.7c3.57,19.94 6.43,40.12 8.53,60.53l-519.91 519.92c-5.37,-1.66 -10.63,-3.34 -15.77,-5.06 -7.8,-2.6 -15.95,-5.51 -24.52,-8.78 -8.19,-3.13 -16.33,-6.45 -24.42,-10.01 -6.7,-2.94 -13.24,-5.99 -19.61,-9.14l-0.45 -0.23 587.82 -587.82zm16.86 101.12l0.03 0.25c2.89,28.07 4.37,56.56 4.37,85.39 0,9.52 -0.16,18.99 -0.48,28.43l-430.8 430.8 -2.27 -0.57c-6.65,-1.65 -13.42,-3.34 -26.76,-6.73 -9.41,-2.39 -18.59,-4.77 -27.32,-7.13 -9.3,-2.5 -18.23,-5 -26.62,-7.48 -3.21,-0.95 -6.4,-1.92 -9.56,-2.89l-0.5 -0.15 519.91 -519.92zm3.92 114.07l-0.01 0.33c-1.55,45.37 -6.77,89.81 -15.36,133.03l-322.44 322.44c-21.88,-6.72 -43.74,-12.56 -65.59,-18.12 -1.14,-0.61 -2.43,-0.94 -3.74,-0.95 -7.72,-1.96 -15.43,-3.88 -23.15,-5.8l-0.51 -0.13 430.8 -430.8zm-15.37 133.36l-0.09 0.47c-2.23,11.18 -4.69,22.28 -7.36,33.3l-3.18 3.18c-1.21,1.21 -2,2.76 -2.25,4.45 -0.39,2.59 0.42,4.83 1.87,6.45 -11.28,43.1 -25.95,84.81 -43.71,124.86l-181.99 181.99c-21.1,-9.74 -42.32,-17.94 -63.62,-25.13 -7.22,-2.44 -14.43,-4.76 -21.65,-6.98l-0.46 -0.15 322.44 -322.44zm-54.72 172.71l-0.36 0.82c-12.58,28.27 -26.7,55.71 -42.25,82.2 -2.48,-4.08 -8.55,-5.55 -12.54,-1.56l-45.21 45.21c-1.21,1.21 -2,2.76 -2.25,4.46 -1.14,7.61 8.12,12.27 13.55,6.84l33.24 -33.23c-22.93,36.43 -48.62,70.95 -76.79,103.26 -5.6,-3.35 -11.21,-6.56 -16.83,-9.64l3.87 -3.88c1.21,-1.2 2,-2.76 2.25,-4.45 1.14,-7.61 -8.12,-12.28 -13.55,-6.85l-7.38 7.39c-5.77,-2.92 -11.55,-5.72 -17.34,-8.4l-0.4 -0.18 181.99 -181.99zm-1199.68 -428.75l0.01 -0.03 0 0.1 -0.01 -0.07z" />
    <path class="fil2"
      d="M58.69 1642.02c-0.09,5.5 -4.61,9.88 -10.11,9.8 -5.49,-0.09 -9.88,-4.61 -9.79,-10.11 0.8,-42.29 33.2,-80.34 83.3,-115.99 48.19,-34.31 113.14,-66.77 181.69,-98.83 41.54,-19.43 76.45,-40.55 111.66,-61.85 25.88,-15.65 51.93,-31.41 81.15,-46.81 0.3,-0.18 0.6,-0.34 0.92,-0.49 19.75,-10.38 40.96,-20.61 64.55,-30.54l-8.52 -110.5c-15.28,-15.16 -28.53,-34.46 -39.62,-55.66 -12.01,-22.94 -21.51,-48.18 -28.34,-72.73 -47.02,-3.88 -52.72,-54.77 -57.63,-98.65 -1,-8.94 -1.97,-17.55 -3.25,-25.1 -3.52,-20.7 -5.1,-53.06 -2.23,-78.33 1.28,-11.25 3.46,-21.32 6.75,-28.76 3.51,-7.93 8.37,-13.42 14.84,-15.46 -0.61,-23.46 -2.07,-48.18 -3.52,-72.9 -3.29,-55.76 -6.57,-111.53 -0.3,-158.85 -20.62,-45.89 -24.2,-90.35 -9.79,-133.29 14.49,-43.19 47.16,-84.37 98.96,-123.42l0.01 0.01c0.8,-0.61 1.71,-1.1 2.72,-1.45 10.9,-3.8 21.53,-11.34 32.15,-18.87 23.31,-16.52 46.62,-33.05 79.29,-21.65 47.4,-41.43 74.82,-35.44 106.6,-28.49 10.53,2.3 21.6,4.72 33.69,5.09 6.36,0.19 15.69,-0.98 26.52,-2.33 60.3,-7.54 163.67,-20.45 206.81,136.54 0.12,0.36 0.21,0.73 0.29,1.11 1.41,6.87 4.18,10.05 6.93,13.24 8.23,9.49 16.46,18.99 11.6,66.85 20.98,10.6 33.57,44.77 39.07,98.87 5.71,56.23 4.54,135.5 -2.1,233.06 12.09,13.02 17.83,46.91 19.08,83.07 0.75,21.98 0.13,44.81 -1.52,63.75 -1.74,19.9 -4.74,36.25 -8.66,44.12 -1.06,2.14 -2.28,3.93 -3.65,5.35 -5.53,43.99 -13.7,82.66 -25.63,117.26 -12.02,34.87 -27.86,65.62 -48.64,93.5 0.77,7.78 1.99,15.1 3.8,21.82 1.79,6.62 4.16,12.65 7.24,17.96 69.4,41.89 142.69,60.13 215.99,78.37 151.77,37.77 303.54,75.55 427.42,316.57 2.52,4.89 0.6,10.9 -4.29,13.43 -4.89,2.52 -10.9,0.59 -13.42,-4.3 -119.76,-233 -267.12,-269.67 -414.47,-306.34 -63.56,-15.82 -127.11,-31.64 -188.92,-62.69 11.49,82.68 -34.33,149.35 -104.02,191.85 -33.67,20.54 -72.9,35.37 -113.8,43.54 -40.88,8.17 -83.56,9.72 -124.14,3.68 -93.96,-13.97 -176.58,-68.26 -200.79,-174.52 -24.29,13.24 -46.62,26.75 -68.82,40.18 -35.44,21.43 -70.57,42.69 -113.54,62.79 -67.59,31.61 -131.54,63.56 -178.57,97.03 -45.13,32.12 -74.29,65.22 -74.95,100.07zm634.7 -578.56c28.51,21.82 64.24,30.65 101.86,29.05 42.49,-1.8 87.35,-16.82 127.22,-41.44 -18.03,-7.04 -39.96,-4.31 -61.89,-1.59 -14.83,1.84 -29.66,3.69 -44.28,2.85 -16.1,2.12 -31.15,1.28 -46.2,0.44 -24.65,-1.38 -49.3,-2.76 -76.71,10.69zm102.64 48.95c-47.52,2.02 -92.59,-11.04 -126.77,-43.34l0.01 -0.02c-0.58,-0.55 -1.11,-1.18 -1.57,-1.9 -2.95,-4.63 -1.59,-10.78 3.05,-13.73 37.76,-24.06 69.1,-22.31 100.44,-20.55 14.3,0.8 28.61,1.6 43.09,-0.38 0.74,-0.13 1.51,-0.17 2.29,-0.12 12.95,0.85 27.27,-0.93 41.59,-2.71 31.54,-3.92 63.08,-7.84 89.49,13.1 0.74,0.61 1.41,1.32 1.99,2.15 3.12,4.52 1.98,10.72 -2.54,13.85 -46,31.82 -99.98,51.49 -151.07,53.65zm80.34 -340.76c-4.21,3.55 -10.5,3.03 -14.05,-1.17 -3.56,-4.2 -3.03,-10.49 1.17,-14.05 20.14,-17.03 41.13,-24.82 62.9,-24.19 21.4,0.62 43.07,9.44 64.97,25.67 4.42,3.28 5.35,9.52 2.07,13.93 -3.27,4.42 -9.51,5.35 -13.93,2.07 -14.52,-10.76 -28.62,-17.68 -42.26,-20.44 2,2.83 3.17,6.28 3.17,10 0,9.6 -7.78,17.38 -17.38,17.38 -9.59,0 -17.37,-7.78 -17.37,-17.38 0,-3.43 1,-6.64 2.72,-9.33 -10.79,2.81 -21.46,8.59 -32.01,17.51zm-166 -11.28c4.44,3.26 5.4,9.49 2.14,13.93 -3.25,4.44 -9.49,5.4 -13.93,2.15 -13.08,-9.58 -26.76,-14.77 -41.06,-15.44 4.56,3.13 7.55,8.38 7.55,14.33 0,9.59 -7.78,17.37 -17.37,17.37 -9.6,0 -17.38,-7.78 -17.38,-17.37 0,-4.54 1.74,-8.67 4.58,-11.76 -16.19,4.29 -33.34,13.83 -51.47,28.75 -4.25,3.49 -10.52,2.88 -14.01,-1.36 -3.49,-4.25 -2.88,-10.52 1.37,-14.01 25.28,-20.82 49.45,-32.48 72.54,-35.32 23.82,-2.92 46.15,3.43 67.04,18.73zm75.78 170.49c4.41,3.29 5.32,9.55 2.03,13.97 -3.3,4.41 -9.56,5.32 -13.97,2.03 -4.22,-3.16 -8.53,-5.25 -12.92,-6.25 -4.37,-0.99 -9,-0.95 -13.89,0.16 -5.37,1.2 -10.7,-2.17 -11.9,-7.53 -1.21,-5.37 2.16,-10.7 7.53,-11.91 7.82,-1.77 15.36,-1.8 22.63,-0.15 7.26,1.64 14.08,4.89 20.49,9.68zm90.21 -18.89c5.5,0.19 9.79,4.81 9.6,10.3 -0.19,5.5 -4.81,9.79 -10.3,9.6 -4.22,-0.16 -8.2,0.46 -12.25,1.83 -3.84,1.3 -7.76,3.25 -11.98,5.81 -1.76,2.94 -3.68,5.8 -5.75,8.43 -6.92,8.82 -15.71,15.54 -26.26,15.84 -5.5,0.15 -10.08,-4.18 -10.23,-9.68 -0.15,-5.49 4.18,-10.07 9.68,-10.22 3.54,-0.1 7.48,-3.62 11.12,-8.27 1.96,-2.48 3.74,-5.2 5.33,-7.94 0.1,-0.19 0.21,-0.38 0.32,-0.56 4.42,-7.75 7.27,-15.57 8.03,-18.78l0.41 -1.94c1.05,-4.76 1.2,-5.46 -0.51,-20.11 -0.47,-4.01 -2.63,-12.28 -5.45,-23.04 -8.46,-32.36 -22.52,-86.08 -18.27,-130.12 0.51,-5.47 5.37,-9.49 10.84,-8.97 5.48,0.51 9.49,5.37 8.98,10.85 -3.91,40.54 9.59,92.15 17.73,123.24 3.05,11.65 5.39,20.59 5.99,25.78 2.1,17.95 1.86,19.05 0.2,26.58l-0.35 1.63 -0.14 0.56 -0.09 0.35c4.34,-0.95 8.74,-1.35 13.35,-1.17zm-144.66 -225.79c4.78,2.71 6.46,8.79 3.75,13.58 -2.72,4.78 -8.8,6.46 -13.58,3.74 -27.61,-15.7 -55.76,-22.15 -84.45,-19.62 -28.98,2.54 -58.73,14.26 -89.24,34.84 -4.57,3.08 -10.77,1.88 -13.85,-2.69 -3.08,-4.57 -1.88,-10.77 2.69,-13.85 33.36,-22.51 66.26,-35.35 98.68,-38.2 32.72,-2.88 64.73,4.41 96,22.2zm136.34 20.02c-4.89,2.49 -10.88,0.56 -13.38,-4.34 -2.5,-4.89 -0.56,-10.88 4.33,-13.38 26.65,-13.63 53.75,-21.69 81.44,-22.32 27.84,-0.63 56.05,6.24 84.71,22.52 4.79,2.71 6.46,8.79 3.75,13.57 -2.72,4.79 -8.8,6.47 -13.58,3.75 -25.37,-14.4 -50.17,-20.49 -74.49,-19.94 -24.48,0.55 -48.72,7.83 -72.78,20.14zm146.84 559.19c-4.12,-2.35 -8.23,-4.77 -12.33,-7.28 -1.35,-0.82 -2.44,-1.92 -3.23,-3.17l-0.01 0.01c-4.77,-7.5 -8.29,-16.04 -10.81,-25.4 -1.34,-4.96 -2.4,-10.15 -3.21,-15.54 -17.41,7.83 -34.18,17.43 -50.96,27.02 -42.98,24.59 -85.97,49.17 -143.44,47.83 -69.62,-1.62 -116.15,-33.55 -162.67,-65.48 -17.56,-12.05 -35.13,-24.11 -53.71,-34.28l8.01 103.78 -0.02 0c0.31,4.18 -2.06,8.27 -6.15,9.95 -23.13,9.49 -44,19.34 -63.46,29.39 20.59,100.33 97.56,151.46 185.36,164.51 38.27,5.69 78.62,4.21 117.35,-3.52 38.72,-7.74 75.72,-21.7 107.32,-40.97 67.22,-41 110.05,-106.32 91.96,-186.85zm-27.46 -73.97c19.76,-26.35 34.83,-55.55 46.31,-88.81 11.89,-34.5 19.93,-73.38 25.28,-117.96 0.4,-3.41 2.47,-6.2 5.29,-7.68 2.65,-5.92 4.86,-19.36 6.35,-36.34 1.62,-18.53 2.23,-40.54 1.52,-61.4 -1.2,-34.87 -5.05,-66.36 -12.46,-69.64 -3.86,-1.21 -6.75,-4.7 -6.98,-8.97 -2.19,-39.87 -4.75,-73.67 -8.23,-98.46 -3.14,-22.34 -6.35,-36.14 -9.8,-38.55 -28.25,-19.75 -23.7,-43.96 -19.36,-67.01 2.13,-11.33 4.19,-22.29 0.51,-29.8 -54.16,-110.55 -102.49,-112.39 -167.19,-114.85 -18.62,-0.71 -38.52,-1.47 -60.1,-4.53 -23.41,-0.07 -43.31,-2.16 -61.55,-4.08 -103.71,-5.34 -108.03,17.08 -155.73,74.92 -9.34,11.32 -25.93,5.97 -33.99,21.75 -6.75,13.21 -5.88,27.76 -4.84,42.67 1.16,16.56 1.14,33.2 -0.31,49.91l-0.02 0c-0.29,3.27 -2.17,6.32 -5.29,7.96 -52.72,27.91 -43.28,77.87 -33.83,127.82 5.22,27.62 10.45,55.25 6.6,80.87l-0.03 0c-0.3,2.04 -1.24,4.01 -2.82,5.58 -3.9,3.88 -10.21,3.86 -14.09,-0.04l-33.09 -33.38c-0.47,0.65 -1.19,2.09 -2.09,4.1 -2.45,5.54 -4.13,13.6 -5.19,22.91 -2.67,23.51 -1.19,53.62 2.08,72.87 1.38,8.13 2.37,16.99 3.4,26.19 4.24,37.85 9.19,82.08 45.27,81.15 4.53,-0.1 8.7,2.91 9.87,7.49 6.55,25.41 16.18,51.9 28.65,75.72 10.51,20.09 23.03,38.22 37.39,52.06 25.52,12.15 48.02,27.59 70.51,43.03 44.12,30.28 88.25,60.56 151.82,62.04 51.9,1.21 92.52,-22.02 133.14,-45.25 20.39,-11.66 40.78,-23.33 63,-32.29zm-529.69 -311.59c0.9,-5.43 6.04,-9.09 11.47,-8.19 5.43,0.9 9.1,6.04 8.19,11.47 -3.07,18.12 -4.03,35.04 -3,50.81 1.02,15.62 3.98,30.09 8.78,43.47 1.85,5.17 -0.84,10.87 -6.01,12.72 -5.17,1.85 -10.87,-0.84 -12.72,-6.01 -5.45,-15.21 -8.81,-31.51 -9.95,-48.93 -1.13,-17.28 -0.09,-35.7 3.24,-55.34z" />
    <path class="fil3"
      d="M1658.42 1637.3c92.49,108.64 -534.31,14.52 -913.52,14.52 -78.67,0 -283.56,-24.77 -372.12,0 -191.73,53.62 64.41,-163.69 -323.89,0 5.35,-0.08 9.71,-4.4 9.8,-9.8 0.66,-34.85 29.82,-67.95 74.95,-100.07 47.03,-33.47 110.98,-65.42 178.57,-97.03 42.97,-20.1 78.1,-41.36 113.54,-62.79 22.2,-13.43 44.53,-26.94 68.82,-40.18 24.21,106.26 106.83,160.55 200.79,174.52 40.58,6.04 83.26,4.49 124.14,-3.68 40.9,-8.17 80.13,-23 113.8,-43.54 69.69,-42.5 115.51,-109.17 104.02,-191.85 61.81,31.05 125.36,46.87 188.92,62.69 147.35,36.67 294.71,73.34 414.47,306.34 5.5,10.05 22.93,4.76 17.71,-9.13z" />
  </g>
</svg>