<svg width="100" height="100" viewBox="0 0 100 100" fill="none" xmlns="http://www.w3.org/2000/svg">
<path fill-rule="evenodd" clip-rule="evenodd" d="M96.9989 16H43.0897C35.3632 16 29.0625 22.3018 29.0625 30.0272V69.5594H15.5313V56.3104H25.9609V42.7792H15.5313H14.6236C7.67087 42.7792 2 48.45 2 55.4027V56.3104V69.5594V83.0907H15.5313H55.9103C63.6368 83.0907 69.9375 76.7889 69.9375 69.0635V29.5313H97V16H96.9989ZM96.9989 42.7803H73.038V56.3115H84.3764C91.3291 56.3115 97 50.6407 97 43.688V42.7803H96.9989ZM49.3915 69.5605H42.5938V36.546C42.5938 32.6827 45.7442 29.5313 49.6085 29.5313H56.4062V62.5458C56.4062 66.4091 53.2559 69.5605 49.3915 69.5605Z" fill="#0098DA"/>
</svg>
